<?xml version="1.0" encoding="UTF-8"?>
<svg width="114.51mm" height="123mm" version="1.1" viewBox="0 0 114.51 123" xmlns="http://www.w3.org/2000/svg" xmlns:cc="http://creativecommons.org/ns#" xmlns:dc="http://purl.org/dc/elements/1.1/" xmlns:rdf="http://www.w3.org/1999/02/22-rdf-syntax-ns#">
 <metadata>
  <rdf:RDF>
   <cc:Work rdf:about="">
    <dc:format>image/svg+xml</dc:format>
    <dc:type rdf:resource="http://purl.org/dc/dcmitype/StillImage"/>
    <dc:title/>
   </cc:Work>
  </rdf:RDF>
 </metadata>
 <g transform="translate(-31.785 -14.131)">
  <g transform="matrix(.56781 0 0 .56781 36.354 11.613)">
   <path d="m-8.0477 40.393 15.38 133.33 85.455 47.331 85.455-47.331 15.38-133.33-100.83-35.958-100.83 35.958" stroke-width="1.0831"/>
   <path d="m92.787 16.126-89.95 32.077 7.4447 64.539h82.505zm0 96.616v96.617l76.231-42.222 6.2752-54.395z" fill="#fff" stroke-width=".96617"/>
   <g transform="matrix(2.1246 0 0 2.1246 25.18 44.889)">
    <rect width="24" height="24" fill="none"/>
    <path d="m8.4 18.2c0.38 0.5 0.6 1.12 0.6 1.8 0 1.66-1.34 3-3 3s-3-1.34-3-3 1.34-3 3-3c0.44 0 0.85 0.09 1.23 0.26l1.41-1.77c-0.92-1.03-1.29-2.39-1.09-3.69l-2.03-0.68c-0.54 0.83-1.46 1.38-2.52 1.38-1.66 0-3-1.34-3-3s1.34-3 3-3 3 1.34 3 3c0 0.07 0 0.14-0.01 0.21l2.03 0.68c0.64-1.21 1.82-2.09 3.22-2.32v-2.16c-1.28-0.34-2.24-1.51-2.24-2.91 0-1.66 1.34-3 3-3s3 1.34 3 3c0 1.4-0.96 2.57-2.25 2.91v2.16c1.4 0.23 2.58 1.11 3.22 2.32l2.03-0.68v-0.21c0-1.66 1.34-3 3-3s3 1.34 3 3-1.34 3-3 3c-1.06 0-1.98-0.55-2.52-1.37l-2.03 0.68c0.2 1.29-0.16 2.65-1.09 3.69l1.41 1.77c0.38-0.18 0.79-0.27 1.23-0.27 1.66 0 3 1.34 3 3s-1.34 3-3 3-3-1.34-3-3c0-0.68 0.22-1.3 0.6-1.8l-1.41-1.77c-1.35 0.75-3.01 0.76-4.37 0z"/>
   </g>
   <g transform="matrix(2.4135 0 0 2.3455 103.48 39.656)" fill="#fff">
    <rect width="24" height="24" fill="none"/>
    <path d="m14 12-2 2-2-2 2-2zm-2-6 2.12 2.12 2.5-2.5-4.62-4.62-4.62 4.62 2.5 2.5zm-6 6 2.12-2.12-2.5-2.5-4.62 4.62 4.62 4.62 2.5-2.5zm12 0-2.12 2.12 2.5 2.5 4.62-4.62-4.62-4.62-2.5 2.5zm-6 6-2.12-2.12-2.5 2.5 4.62 4.62 4.62-4.62-2.5-2.5z"/>
   </g>
   <g transform="matrix(2.594 0 0 2.594 101.1 121.05)">
    <path d="m0 0h24v24h-24z" fill="none"/>
    <path d="m15 9h-6v6h6zm-2 4h-2v-2h2zm8-2v-2h-2v-2c0-1.1-0.9-2-2-2h-2v-2h-2v2h-2v-2h-2v2h-2c-1.1 0-2 0.9-2 2v2h-2v2h2v2h-2v2h2v2c0 1.1 0.9 2 2 2h2v2h2v-2h2v2h2v-2h2c1.1 0 2-0.9 2-2v-2h2v-2h-2v-2zm-4 6h-10v-10h10z"/>
   </g>
   <g transform="matrix(2.4726 0 0 2.4726 22.148 123.79)" fill="#fff">
    <rect width="24" height="24" fill="none"/>
    <path d="m19.97 6.43-7.97-4.43-7.97 4.43 5.07 2.81c0.73-0.76 1.76-1.24 2.9-1.24s2.17 0.48 2.9 1.24zm-9.97 5.57c0-1.1 0.9-2 2-2s2 0.9 2 2-0.9 2-2 2-2-0.9-2-2zm1 9.44-8-4.44v-8.86l5.13 2.85c-0.09 0.32-0.13 0.66-0.13 1.01 0 1.86 1.27 3.43 3 3.87zm2 0v-5.57c1.73-0.44 3-2.01 3-3.87 0-0.35-0.04-0.69-0.13-1.01l5.13-2.85v8.86z"/>
   </g>
  </g>
 </g>
</svg>
