<svg width="60" height="60" viewBox="0 0 50 50" fill="none" xmlns="http://www.w3.org/2000/svg"><path d="M21.426 34.792c-1.384.181-3.213-1.168-3.171-3.095.04-1.843 1.281-3.167 3.273-3.185 1.598-.014 3.066 1.518 3.037 3.09-.034 1.86-1.342 3.19-3.14 3.19zm14.408-9.66c-.014-1.833-1.187-3.112-3.085-3.19-1.651-.067-2.987 1.17-3.177 2.78-.221 1.888 1.16 3.466 3.023 3.527 1.728.08 3.252-1.332 3.239-3.117zm-14.44-9.698c-1.337 0-3.143 1.094-3.163 3.139-.016 1.654 1.252 3.15 3.192 3.174 1.748.02 3.08-1.362 3.081-3.172.133-1.648-1.477-3.143-3.11-3.141zM17.67 28.316c1.776-.053 3.066-1.29 3.124-3.165.052-1.69-1.432-3.16-3.13-3.176-1.728-.016-3.132 1.39-3.133 3.137-.13 1.775 1.43 3.255 3.139 3.204zm8.096-9.728c.073 1.823 1.166 3.042 3.06 3.13 1.964.091 3.198-1.587 3.234-3.105.036-1.54-1.38-3.293-3.173-3.155-1.554-.175-3.192 1.379-3.121 3.13zm3.164 9.929c-1.897.044-3.092 1.251-3.135 3.128-.043 1.867 1.558 3.168 3.192 3.17 1.613 0 3.238-1.575 3.037-3.11.193-1.57-1.16-3.234-3.094-3.188zM14.046 16.84c-1.021-.03-1.801.702-1.826 1.714-.028 1.163.664 1.946 1.737 1.967 1.023.02 1.783-.717 1.807-1.752.025-1.078-.706-1.898-1.718-1.929zm20.432 1.83c.011.979.806 1.749 1.82 1.762 1.03.014 1.878-.805 1.862-1.796-.017-1.022-.825-1.8-1.864-1.797a1.82 1.82 0 00-1.818 1.83zm-11.17-6.412c-.061.936.861 1.758 1.826 1.747.989-.012 1.828-.825 1.823-1.766-.006-1.072-.748-1.842-1.784-1.85-1.282.018-1.795.804-1.865 1.869zm13.093 17.471c-.983-.02-1.872.81-1.92 1.796-.047.94.828 1.836 1.834 1.878.949.04 1.83-.836 1.846-1.836.015-.943-.822-1.818-1.76-1.838zm-22.35 3.697c.933-.011 1.898-.889 1.815-1.778-.097-1.039-.556-1.786-1.827-1.82-1.044-.027-1.808.705-1.81 1.711-.003 1.148.724 1.9 1.821 1.887zm12.834 4.618a1.792 1.792 0 00-1.847-1.803c-1 .021-1.779.802-1.78 1.783-.002 1.092.73 1.84 1.796 1.837a1.807 1.807 0 001.83-1.817zm15.041-14.516c-.81-.018-1.58.693-1.612 1.49-.033.823.708 1.626 1.55 1.634.697.007 1.558-.508 1.533-1.521.024-.849-.652-1.585-1.471-1.603zM15.283 10.786c.035.82.722 1.433 1.563 1.396.865-.038 1.475-.728 1.434-1.622-.039-.865-.751-1.574-1.551-1.543-.901.035-1.489.754-1.446 1.77zm-6.83 12.806c-.795-.005-1.58.758-1.591 1.546-.011.813.731 1.566 1.546 1.568.858.002 1.518-.627 1.523-1.45.005-.986-.592-1.659-1.478-1.664zm6.845 16.01c-.005.91.66 1.625 1.523 1.635.853.01 1.538-.703 1.545-1.608.006-.823-.645-1.468-1.49-1.476-.92-.008-1.574.593-1.579 1.45zM33.55 38.11a1.537 1.537 0 00-1.527 1.56c.017.804.767 1.561 1.55 1.564.755.003 1.52-.804 1.519-1.6-.001-.854-.695-1.54-1.542-1.524zm-.089-26.017c.859.016 1.57-.636 1.609-1.473.035-.78-.729-1.586-1.521-1.606-.883-.023-1.51.597-1.527 1.509-.018.945.539 1.553 1.44 1.57zm-8.336-6.349c.696 0 1.224-.549 1.22-1.269-.004-.77-.47-1.278-1.185-1.292-.74-.015-1.274.53-1.27 1.294.005.711.547 1.268 1.235 1.267zM7.299 36.777c.658.044 1.35-.612 1.353-1.28.003-.618-.629-1.276-1.26-1.315-.584-.035-1.287.643-1.3 1.256-.013.662.559 1.296 1.207 1.34zm17.762 7.715c-.628.005-1.25.638-1.26 1.285-.011.652.588 1.28 1.234 1.29.683.011 1.317-.624 1.309-1.313-.007-.625-.66-1.266-1.283-1.262zm19.232-29.767c-.023-.616-.687-1.248-1.316-1.254-.602-.005-1.29.687-1.283 1.29.007.62.686 1.32 1.267 1.308.639-.015 1.355-.738 1.332-1.344zm.005 20.638c-.014-.68-.57-1.19-1.288-1.184-.682.005-1.272.592-1.247 1.24a1.252 1.252 0 001.26 1.215c.782-.003 1.291-.51 1.275-1.271zM6.086 14.848c-.013.74.483 1.229 1.239 1.223.74-.005 1.235-.512 1.217-1.245-.018-.742-.5-1.212-1.238-1.21-.725.003-1.205.489-1.218 1.232zm29.406-9.434c-.01.633.433.932.949.962.54.031.947-.277.972-.905.024-.599-.357-1.043-.917-1.06-.526-.016-.994.441-1.004 1.003zm-34 19.746c-.019.46.558 1.088 1.02 1.024.535-.076.929-.39.964-.979.032-.545-.446-.997-1.008-.999-.498-.001-.956.445-.976.954zm34.075 19.656c-.013.476.517.99 1.027.998.419.007.974-.572.947-1.021-.037-.591-.387-.892-.833-.944-.733-.013-1.126.365-1.141.967zM13.83 4.436c-.51-.1-.985.429-.994 1.006-.01.579.284.903.845.957.608.059 1.035-.336 1.055-1.056.044-.522-.38-.805-.906-.907zm34.99 20.648c-.039-.566-.36-.948-.938-1.024-.531-.07-.957.413-.985 1.016-.032.672.416.849.856.967.593.011 1.1-.45 1.066-.959zm-34.878 18.77c-.458-.049-1.116.49-1.085.96.037.56.375.96.945 1.01.573.049.939-.27 1.02-.719.066-.69-.34-1.195-.88-1.252z" fill="#1F6FCD"/></svg>