<svg width="143" height="142" fill="none" xmlns="http://www.w3.org/2000/svg"><path d="M71.6 141.6c39.047 0 70.7-31.653 70.7-70.7C142.3 31.853 110.647.2 71.6.2 32.554.2.9 31.854.9 70.9c0 39.047 31.654 70.7 70.7 70.7z" fill="url(#paint0_linear)"/><path d="M96.3 38H43.7c-1.4 0-2.6 1.2-2.6 2.6v11.7c0 1.4 1.2 2.6 2.6 2.6h17.7v47.3c0 1.4 2 6.5 6.5 6.5h11c1.4 0 2.6-1.2 2.6-2.6V54.9h17.9c1.4 0 2.6-1.2 2.6-2.6v-8.7c.1-1.4-2.1-5.6-5.7-5.6z" fill="#fff"/><defs><linearGradient id="paint0_linear" x1=".9" y1="70.9" x2="142.3" y2="70.9" gradientUnits="userSpaceOnUse"><stop stop-color="#2E2D4F"/><stop offset=".024" stop-color="#2F2E50"/><stop offset="1" stop-color="#544E75"/></linearGradient></defs></svg>