<svg width="60" height="55" fill="none" xmlns="http://www.w3.org/2000/svg"><g clip-path="url(#clip0)"><path d="M35.95 25.963a6.234 6.234 0 001.556-3.902c.077-2.324-.467-3.653-5.055-3.57v-3.57h-2.025v3.57h-1.553v-3.57h-2.1v3.402l-3.99.168v2.324h1.814s.855-.082.777 1.33c-.077 1.41 0 9.29 0 9.29a.724.724 0 01-.16.52.641.641 0 01-.211.166.604.604 0 01-.256.06c-.656.046-1.313.046-1.969 0v2.492h4.147v3.654h2.022v-3.478H30.5v3.488h1.867v-3.57s5.597.165 6.142-3.323c.545-3.488-.382-5.313-2.56-5.48zm-7.232-4.982s4.9-.996 5.055 2.076c.155 3.072-5.055 2.076-5.055 2.076v-4.152zm5.987 8.555c0 3.819-5.987 2.74-5.987 2.74v-4.663c6.377-.594 5.987 1.923 5.987 1.923z" fill="#000"/><path d="M44.368 25.308l15.038-7.319.365.855-15.038 7.318-.365-.854z" fill="url(#paint0_linear)"/><path d="M30.136 55L15.06 26.753v-.125c0-.853 3.513-13.953 4.217-16.56l.09-.342h21.748l3.782 16.061L30.136 55zM15.953 26.525l14.162 26.534 13.843-27.41-3.529-14.994H20.04c-1.607 5.944-3.887 14.621-4.088 15.874l.002-.004z" fill="url(#paint1_linear)"/><path d="M30.127 54.743L-.006 18.264 9.537 4.996 19.13 0h22.606l8.814 5.004 9.456 13.341-29.88 36.398zM1.138 18.22l28.987 35.096 28.744-35.019-8.903-12.562L41.516.94H19.334l-9.225 4.805-8.97 12.476z" fill="url(#paint2_linear)"/><path d="M9.642 5.797l.366-.855 9.875 4.818-.366.854-9.875-4.817z" fill="url(#paint3_linear)"/><path d="M40.583 9.765l9.488-4.815.378.848-9.488 4.815-.378-.848z" fill="url(#paint4_linear)"/><path d="M.366 18.657l.41-.83 14.93 8.388-.41.831-14.93-8.389z" fill="url(#paint5_linear)"/></g><defs><linearGradient id="paint0_linear" x1="52.087" y1="17.949" x2="52.049" y2="26.192" gradientUnits="userSpaceOnUse"><stop stop-color="#F79421"/><stop offset="1" stop-color="#FAC239"/></linearGradient><linearGradient id="paint1_linear" x1="5014.31" y1="3546.07" x2="5014.31" y2="13697.8" gradientUnits="userSpaceOnUse"><stop stop-color="#F79421"/><stop offset="1" stop-color="#FAC239"/></linearGradient><linearGradient id="paint2_linear" x1="10062.1" y1="1642.31" x2="10062.1" y2="16481.6" gradientUnits="userSpaceOnUse"><stop stop-color="#F79421"/><stop offset="1" stop-color="#FAC239"/></linearGradient><linearGradient id="paint3_linear" x1="90.898" y1="633.514" x2="90.898" y2="959.077" gradientUnits="userSpaceOnUse"><stop stop-color="#F79421"/><stop offset="1" stop-color="#FAC239"/></linearGradient><linearGradient id="paint4_linear" x1="2663.45" y1="58.478" x2="2663.45" y2="84.819" gradientUnits="userSpaceOnUse"><stop stop-color="#F79421"/><stop offset="1" stop-color="#FAC239"/></linearGradient><linearGradient id="paint5_linear" x1="52.892" y1="2144.21" x2="52.892" y2="2966.47" gradientUnits="userSpaceOnUse"><stop stop-color="#F79421"/><stop offset="1" stop-color="#FAC239"/></linearGradient><clipPath id="clip0"><path fill="#fff" d="M0 0h60v55H0z"/></clipPath></defs></svg>