<svg xmlns="http://www.w3.org/2000/svg" viewBox="0 0 544 544"><defs><linearGradient id="a" x1="-24.6" y1="683.51" x2="-23.57" y2="683.51" gradientTransform="matrix(98 0 0 -47 2497.75 32364.11)" gradientUnits="userSpaceOnUse"><stop offset="0" stop-color="#fff" stop-opacity="0"/><stop offset="1" stop-color="#fff"/></linearGradient><linearGradient id="b" x1="-28.68" y1="685.09" x2="-27.47" y2="685.09" gradientTransform="matrix(-98 0 0 -60 -2353.25 41328.94)" gradientUnits="userSpaceOnUse"><stop offset="0" stop-color="#fd76fd" stop-opacity="0"/><stop offset="1" stop-color="#ff51ff"/></linearGradient><linearGradient id="c" x1="-28.7" y1="703.17" x2="-27.72" y2="703.17" gradientTransform="matrix(-98 0 0 26 -2353.25 -18019.72)" gradientUnits="userSpaceOnUse"><stop offset="0" stop-color="#9d6eff" stop-opacity="0"/><stop offset="1" stop-color="#a18cff"/></linearGradient><linearGradient id="d" x1="-28.69" y1="682.8" x2="-27.57" y2="682.8" gradientTransform="matrix(-98 0 0 -43 -2353.25 29603.78)" gradientUnits="userSpaceOnUse"><stop offset="0" stop-color="#ae60d6" stop-opacity="0"/><stop offset="1" stop-color="#ab38e6"/></linearGradient></defs><g data-name="layer 2"><g data-name="logo in dark circle"><circle cx="272" cy="272" r="272" fill="#0b1624"/><path d="M272.25 327.21h77.53l-77.5-135v-81.76l151.91 260.19H272.25z" fill="#0b76ff"/><path data-name="Combined-Shape" d="M272.25 327.21h-77.53l77.5-135v-81.76L120.31 370.64h151.94z" fill="#24c1ff"/><path d="M164 434.94V403.2c1.81-.09 6.33-.27 9.87-.27 7.78 0 10.94 3.51 10.94 7.93a7.79 7.79 0 01-3.72 7.12v.09c2.37.86 4.65 3.19 4.65 7.29 0 6.71-5.3 9.85-12.38 9.85-3.12 0-7.45-.09-9.36-.27zm10.33-12.81h-2.88v6a8.51 8.51 0 002.51.27c2.89 0 4.33-1.23 4.33-3.37s-1.53-2.9-3.96-2.9zm-.55-12.36a18.69 18.69 0 00-2.33.18v5.79h2.47c1.9 0 3.44-.77 3.44-3.1 0-1.91-1.77-2.87-3.58-2.87zm50 25.26v-31.92h19.32V410h-11.87v5.61h10.48v6.84h-10.48v5.79h12.34V435zm53.63 0L291 403.11h6.66L311.18 435h-8l-2.7-6.7h-12.9l-2.7 6.7zm16.67-22.57l-3.68 9h7.32zM346.41 435v-31.89h7.5L364 416.56l9.5-13.45h7V435h-7.45v-20.31L364 427.14h-1.1l-9-12.31V435z" fill="#25c1ff"/><path fill="#39fff2" d="M272.25 226.3v87.27l-47.48.1 47.48-87.37z"/><path data-name="Triangle-5" fill="#00e2c2" d="M272.25 226.3v87.27l47.48.1-47.48-87.37z"/><path fill="url(#a)" d="M86.13 191.81l186.12 86.02v9L86.13 246.1v-54.29z"/><path data-name="Rectangle-5" fill="url(#b)" d="M458.75 166.83l-186.5 111v3l186.5-78.16v-35.84z"/><path data-name="Rectangle-5" fill="url(#c)" d="M458.75 274.33l-186.5 12.5v-3l186.5-45.33v35.83z"/><path data-name="Rectangle-5" fill="url(#d)" d="M458.75 202.67l-186.5 78.16v3l186.5-45.33v-35.83z"/></g></g></svg>