<svg width="55" height="54" fill="none" xmlns="http://www.w3.org/2000/svg"><ellipse cx="27.5" cy="27" rx="27.5" ry="27" fill="#FFD12A"/><g clip-path="url(#clip0)"><g clip-path="url(#clip1)" fill="#fff"><path d="M37.178 33.063V29.45l-2.987 1.637v3.546l2.986-1.569zM24.676 40.155v3.682l3.056 1.637 2.986-1.637v-3.682l-2.986 1.568-3.056-1.568zM40.442 34.563l-6.25 3.683v3.682l9.236-5.455V25.97l-2.986 1.569v7.023zM37.247 25.767v-3.41l-3.125-1.704-6.25 3.682-6.182-3.614-3.125 1.773v3.41l6.111 3.545v7.024l3.056 1.636 3.056-1.636v-6.82l6.459-3.886zM27.663 20.585l3.125-1.841-2.986-1.773-3.126 1.84 2.987 1.774zM40.58 16.834l-3.194 1.91 3.125 1.773v3.34l3.195-1.908v-3.342l-3.125-1.773z"/><path d="M27.454 13.493l6.46 3.41 3.194-1.978-9.515-4.978-2.292 1.364-.903.546-5.972 3.546 2.917 1.704 6.111-3.614zM18.356 33.063l3.125 1.841v-3.409l-3.125-1.841v3.41zM15.37 20.585l3.056-1.773-3.195-1.91-3.126 1.773v3.342l3.265 1.909v-3.341zM15.3 27.813l-3.264-1.91v10.638l2.361 1.364.903.545 6.043 3.478v-3.341L15.3 34.973v-7.16z"/></g></g><defs><clipPath id="clip0"><path fill="#fff" transform="translate(10.132 9.947)" d="M0 0h36.184v35.526H0z"/></clipPath><clipPath id="clip1"><path fill="#fff" transform="translate(12.036 9.947)" d="M0 0h31.67v35.526H0z"/></clipPath></defs></svg>