<svg width="55" height="55" fill="none" xmlns="http://www.w3.org/2000/svg"><path d="M4.777 13.766c.848-1.184 1.637-2.41 2.592-3.519a26.753 26.753 0 015.96-5.178c2.022-1.284 4.154-2.296 6.435-3.004a26.26 26.26 0 0110.872-1.008c2.7.308 5.301.998 7.779 2.114 1.5.676 2.91 1.51 4.292 2.412 2.786 1.817 5.018 4.181 6.884 6.883 1.993 2.886 3.288 6.097 3.998 9.54.5 2.418.71 4.859.496 7.316-.264 3.029-.937 5.95-2.194 8.756-1.062 2.374-2.374 4.554-4.054 6.523-1.644 1.926-3.497 3.612-5.627 5-1.45.947-2.962 1.791-4.557 2.418-2.67 1.05-5.44 1.759-8.337 1.883-2.04.087-4.068.053-6.08-.304a28.54 28.54 0 01-5.068-1.375c-1.602-.601-3.156-1.314-4.588-2.215A27.023 27.023 0 018 45.315a26.368 26.368 0 01-4.486-6.748C1.897 35.065 1.1 31.373 1.054 27.52c-.018-1.449.149-2.887.342-4.321.014-.103 0-.209-.002-.314.17-.104.154-.288.185-.448a26.834 26.834 0 012.136-6.48c.348-.733.828-1.403 1.062-2.191zm30.99 14.23c.72-.382 1.403-.6 1.943-1.083 2.08-1.859 2.635-6.234-.742-8.342-1.053-.656-2.175-1.143-3.385-1.64.2-1.62.848-3.136 1.058-4.796-.998-.247-1.933-.575-2.906-.681l-1.175 4.602c-.745-.228-1.513-.207-2.215-.602.253-1.583.855-3.066 1.02-4.655-1.026-.16-1.895-.56-2.89-.603l-1.164 4.644c-1.974-.303-3.787-.982-5.778-1.347-.437.98-.63 2.015-.806 3.115.648.153 1.212.288 1.777.42 1.426.329 1.817 1.109 1.478 2.356-.24.887-.458 1.78-.68 2.673-.797 3.208-1.587 6.417-2.389 9.623-.18.722-.63.958-1.364.85-.722-.105-1.403-.43-2.199-.406-.345 1.104-1.031 2.076-1.274 3.294l5.648 1.439c-.145 1.673-.838 3.204-1.043 4.888l2.81.674c.622-1.545.765-3.168 1.345-4.766.699.359 1.474.255 2.157.707l-1.12 4.628c.99.354 1.953.498 2.944.745l1.164-4.663a.76.76 0 01.565-.063c1.553.333 3.123.41 4.695.236 1.36-.151 2.567-.67 3.536-1.691 1.077-1.136 1.618-2.525 1.879-4.02.212-1.216.157-2.45-.557-3.527-.56-.844-1.33-1.488-2.332-2.009zM24.544 34.34c1.915.475 3.828.984 5.832.618 1.069-.195 1.874-.74 2.199-1.815.305-1.014.128-1.935-.624-2.737-.782-.833-1.788-1.266-2.825-1.629-1.24-.432-2.495-.825-3.85-.932L23.74 34.09c.328.103.563.189.804.249zm6.765-8.836c1.06-.15 1.937-.851 2.195-1.803.316-1.164-.037-2.185-.979-2.88-1.069-.788-2.3-1.189-3.572-1.467-.473-.104-.94-.38-1.513-.193l-1.386 5.633c1.81.457 3.478.963 5.255.71z" fill="#F39321"/></svg>