<svg width="60" height="60" fill="none" xmlns="http://www.w3.org/2000/svg"><path d="M59.129 34.719c-.09 1.332-.52 2.608-.89 3.858-1.48 4.989-4.117 9.32-7.945 12.87-3.995 3.705-8.641 6.189-14.006 7.302-.703.146-6.874.89-12.684-.042a28.475 28.475 0 01-7.852-2.996c-1.823-1.017-3.59-2.145-5.107-3.61-1.177-1.138-2.521-2.155-3.474-3.458-.848-1.16-1.741-2.322-2.432-3.607-1.247-2.32-2.128-4.742-3.043-7.247-1.905-5.215-.765-11.48-.364-14.204.147-.999.525-1.936.795-2.902.92-3.295 2.673-6.146 4.723-8.809 2.167-2.814 4.825-5.111 7.85-7.007 2.916-1.828 6.083-2.824 9.402-3.715 3.7-.993 11.682-.183 12.568.08 1.583.47 3.228.751 4.727 1.473 2.786 1.343 5.458 2.822 7.79 4.948 1.144 1.043 2.314 2.038 3.316 3.223 3.018 3.565 5.366 7.534 6.243 12.14 1.12 5.887.405 11.364.383 11.703zm-51.77-4.952c.007 12.564 10.022 23.05 23.087 22.84 12.188-.198 21.998-9.743 22.281-22.136.298-13.066-10.023-22.911-22.258-23.21C17.432 6.943 7.497 17.563 7.36 29.767z" fill="#FCB207"/><path d="M29.855 50.004c-10.466.123-19.724-8.766-19.865-19.754-.131-10.238 7.455-18.607 16.486-20.058 6.76-1.086 12.74.632 17.667 5.447 4.13 4.035 6.062 9.023 5.99 14.81-.136 10.79-9.341 19.832-20.278 19.555zm.256-2c9.914-.03 18.065-8.173 18-18.084-.064-9.923-7.956-17.997-18.113-18.012-9.85-.015-18.021 8.207-17.975 18.018.047 10.19 8.289 18.049 18.088 18.078z" fill="#06236B"/><path d="M38.509 29.051c2.43 1.938 3.45 4.39 2.412 7.375-1.108 3.181-3.64 4.345-6.93 4.284v2.836h-2.96v-2.723c-.682-.207-1.288-.101-1.985-.11v2.854c-1.015.075-1.938.098-2.96-.015v-2.836h-6.898l1.803-3.622h1.962V22.586c-.378-.17-.806-.093-1.213-.074-.512.022-.877-.133-1.093-.608-.442-.972-.889-1.942-1.391-3.039h6.724c.2-1.058.005-2.04.145-3.033h2.884v2.966c.715.032 1.313.07 1.978-.04v-2.92h2.96v2.983c2.465.364 4.294 1.55 5.289 3.796.998 2.255.636 4.402-.727 6.434zm-11.91 2.583v5.418c2.964 0 5.895.069 8.82-.03 1.357-.046 2.329-1.356 2.313-2.721-.016-1.367-1.044-2.589-2.523-2.639-2.832-.095-5.67-.028-8.61-.028zm.012-3.704c2.383 0 4.7.07 7.01-.024 1.582-.064 2.657-1.389 2.582-2.9-.073-1.454-1.223-2.528-2.807-2.582-.882-.03-1.766-.008-2.649-.008h-4.136v5.514z" fill="#06236B"/></svg>