<svg xmlns="http://www.w3.org/2000/svg" xmlns:xlink="http://www.w3.org/1999/xlink" height="256" width="256" data-name="Layer 1"><defs><linearGradient gradientUnits="userSpaceOnUse" y2="59.472" x2="-1.178" y1="10.618" x1="71.252" id="a"><stop stop-color="#f1d961" offset="0"/><stop stop-color="#cda146" offset="1"/></linearGradient><linearGradient y2="59.472" x2="-1.178" y1="10.618" x1="71.252" gradientTransform="translate(.037 .044)" gradientUnits="userSpaceOnUse" id="b" xlink:href="#a"/></defs><g transform="matrix(3.65714 0 0 3.65714 -.135 -.163)"><circle cx="35.037" cy="35.044" r="28.875" opacity=".98" fill-rule="evenodd" stroke="#000" stroke-width="8.25"/><path d="M23.62 22.055c-5.757 0-8.64 6.961-4.57 11.032 4.072 4.07 11.032 1.188 11.032-4.57a6.472 6.472 0 00-6.462-6.462zm0 8.993c-2.542.006-3.151-3.542-.754-4.386v-1.635h1.509v1.635c2.381.853 1.774 4.376-.755 4.382zm22.907 4.167c-5.747.008-8.618 6.956-4.555 11.018 4.063 4.063 11.01 1.19 11.017-4.557a6.46 6.46 0 00-6.462-6.46zm.755 8.647v1.635h-1.509v-1.635a2.241 2.241 0 01-1.51-2.139c.004-1.835 2.075-2.903 3.573-1.842 1.497 1.06 1.176 3.37-.554 3.981zm-.755-8.647c-5.747.008-8.618 6.956-4.555 11.018 4.063 4.063 11.01 1.19 11.017-4.557a6.46 6.46 0 00-6.462-6.46zm.755 8.647v1.635h-1.509v-1.635a2.241 2.241 0 01-1.51-2.139c.004-1.835 2.075-2.903 3.573-1.842 1.497 1.06 1.176 3.37-.554 3.981zM35.037.044c-19.402-.004-35 15.701-35 35 0 19.3 15.7 35 35 35s35-15.7 35-35c0-19.299-15.598-34.995-35-35zm11.49 17.515a9.384 9.384 0 019.371 9.37 9.267 9.267 0 01-1.148 4.481 12.654 12.654 0 00-3.93-2.17c.38-.71.579-1.504.581-2.31.094-6.592-9.841-6.592-9.747 0a4.757 4.757 0 00.583 2.314 12.654 12.654 0 00-3.93 2.17 9.267 9.267 0 01-1.148-4.48 9.373 9.373 0 019.368-9.375zM23.62 52.62a9.384 9.384 0 01-9.37-9.37h4.5a4.874 4.874 0 109.748 0h4.5a9.374 9.374 0 01-9.378 9.37zm0-13.159c-9.757-.007-14.633-11.806-7.73-18.7 6.904-6.893 18.696-2 18.689 7.757-.004 6.049-4.91 10.948-10.959 10.943zm22.907 13.16c-9.76.007-14.652-11.794-7.751-18.695 6.901-6.9 18.701-2.01 18.694 7.751-.012 6.04-4.904 10.932-10.943 10.943zm0-17.4c-5.747.007-8.618 6.955-4.555 11.017 4.063 4.063 11.01 1.19 11.017-4.557a6.46 6.46 0 00-6.462-6.465zm.755 8.646v1.635h-1.509v-1.639a2.241 2.241 0 01-1.51-2.139c.004-1.835 2.075-2.903 3.573-1.842 1.497 1.06 1.176 3.37-.554 3.981zm-.755-8.647c-5.747.008-8.618 6.956-4.555 11.018 4.063 4.063 11.01 1.19 11.017-4.557a6.46 6.46 0 00-6.462-6.465zm.755 8.647v1.635h-1.509v-1.639a2.241 2.241 0 01-1.51-2.139c.004-1.835 2.075-2.903 3.573-1.842 1.497 1.06 1.176 3.37-.554 3.981zm-.755-8.647c-5.747.008-8.618 6.956-4.555 11.018 4.063 4.063 11.01 1.19 11.017-4.557a6.46 6.46 0 00-6.462-6.465zm.755 8.647v1.635h-1.509v-1.639a2.241 2.241 0 01-1.51-2.139c.004-1.835 2.075-2.903 3.573-1.842 1.497 1.06 1.176 3.37-.554 3.981z" fill="url(#b)"/></g></svg>