<svg width="60" height="60" fill="none" xmlns="http://www.w3.org/2000/svg"><path d="M59.496 29.91c-.01 16.309-13.175 29.455-29.517 29.536-16.103.08-29.936-13.103-29.587-30.2C.721 13.186 13.851.358 29.912.367c16.347.01 29.594 13.225 29.584 29.543z" fill="#048EE2"/><path d="M19 42.965l.973-5.416c.575 0 1.071.002 1.568 0 3.398-.014 6.8.061 10.194-.073 2.592-.102 4.878-1.012 6.244-3.476.67-1.207.944-2.549 1.24-3.879.235-1.055.382-2.122.34-3.21-.084-2.225-1.213-3.6-3.362-4.122-1-.243-2.014-.327-3.037-.327-3.28 0-6.56.002-9.84.001-.21 0-.42-.018-.75-.033l.957-5.418h1.192c3.945.006 7.892-.052 11.835.042 2.596.062 5.09.625 7.106 2.477 1.409 1.294 2.13 2.975 2.263 4.822.37 5.171-.55 10.047-3.803 14.23-1.992 2.562-4.739 3.81-7.886 4.25-1.277.18-2.56.162-3.842.164-3.565.005-7.13.003-10.695.001-.21 0-.42-.019-.697-.033z" fill="#fff"/><path d="M30 27.006c-.314 1.413-.452 2.765-.952 3.995-.559 1.372-1.635 1.966-2.921 1.978-3.975.035-7.95.016-11.925.015-.04 0-.081-.042-.202-.108.283-1.568.42-3.218 1.27-4.597.538-.875 1.43-1.258 2.348-1.266 4.089-.039 8.178-.017 12.382-.017z" fill="#fff"/></svg>