<svg width="69" height="53" fill="none" xmlns="http://www.w3.org/2000/svg"><g clip-path="url(#clip0)"><path d="M30.219 32.899H47.17c6.298 0 11.457-5.092 11.457-11.458 0-6.365-5.092-11.39-11.39-11.39H41.81L30.22 0H47.17c11.86-.067 21.508 9.515 21.508 21.374.067 8.778-5.293 16.684-13.468 19.967l13.4 11.592H53.336L30.22 32.899z" fill="url(#paint0_linear)"/><path d="M38.527 20.101H21.575c-6.298 0-11.458 5.092-11.458 11.458a11.41 11.41 0 0011.458 11.457h5.427l11.525 10.051H21.575C9.715 53.067.067 43.486 0 31.693c-.067-8.845 5.293-16.751 13.467-20.034L.067 0H15.41l23.116 20.101z" fill="#4971FA"/><path d="M38.527 20.101H21.575c-6.298 0-11.458 5.092-11.458 11.458a11.41 11.41 0 0011.458 11.457h5.427l11.525 10.051H21.575C9.715 53.067.067 43.486 0 31.693c-.067-8.845 5.293-16.751 13.467-20.034L.067 0H15.41l23.116 20.101z" fill="url(#paint1_linear)"/></g><defs><linearGradient id="paint0_linear" x1="30.252" y1="26.47" x2="68.665" y2="26.47" gradientUnits="userSpaceOnUse"><stop stop-color="#62D0C9"/><stop offset="1" stop-color="#7DE2AC"/></linearGradient><linearGradient id="paint1_linear" x1=".12" y1="26.5" x2="38.533" y2="26.5" gradientUnits="userSpaceOnUse"><stop stop-color="#3268FB"/><stop offset="1" stop-color="#4795FA"/></linearGradient><clipPath id="clip0"><path fill="#fff" d="M0 0h68.746v53H0z"/></clipPath></defs></svg>