<svg width="60" height="60" fill="none" xmlns="http://www.w3.org/2000/svg"><path d="M30 58.98c16.005 0 28.98-12.975 28.98-28.98C58.98 13.995 46.005 1.02 30 1.02 13.995 1.02 1.02 13.995 1.02 30c0 16.005 12.975 28.98 28.98 28.98z" fill="#002352"/><path d="M30 59.498c-3.982 0-7.846-.78-11.482-2.318a29.5 29.5 0 01-9.376-6.322 29.743 29.743 0 01-3.603-4.365A29.348 29.348 0 01.504 30c0-3.982.78-7.846 2.318-11.482a29.5 29.5 0 016.322-9.376 29.878 29.878 0 014.366-3.6 29.41 29.41 0 015.01-2.72A29.308 29.308 0 0130.003.504c3.982 0 7.846.78 11.482 2.318a29.5 29.5 0 019.377 6.322 29.741 29.741 0 013.602 4.366 29.41 29.41 0 012.72 5.01A29.308 29.308 0 0159.5 30.003c0 3.982-.78 7.846-2.319 11.482a29.5 29.5 0 01-6.321 9.377 29.743 29.743 0 01-4.366 3.602A29.369 29.369 0 0130 59.498zm0-57.96a28.299 28.299 0 00-15.912 4.86 28.781 28.781 0 00-4.214 3.476 28.532 28.532 0 00-6.098 9.048A28.299 28.299 0 001.537 30a28.299 28.299 0 004.86 15.912 28.638 28.638 0 007.688 7.687 28.299 28.299 0 0015.912 4.86A28.299 28.299 0 0045.91 53.6a28.638 28.638 0 007.687-7.687A28.299 28.299 0 0058.457 30a28.299 28.299 0 00-4.86-15.912 28.636 28.636 0 00-3.475-4.212 28.22 28.22 0 00-4.208-3.478 28.532 28.532 0 00-4.833-2.623A28.268 28.268 0 0030 1.538z" fill="#06C"/><path d="M13.761 22.476h20.465s7.063-.067 2.18 9.043c0 0-3.565 7.13-12.411 6.999l4.774-12.17a.966.966 0 00-.884-1.32l-6.266-.109-7.922 19.277s2.64.264 4.092.132l-.792 1.98h3.744c.21 0 .398-.13.472-.326l.67-1.786 1.584-.132-.924 2.244h3.64a.662.662 0 00.615-.417l1.025-2.619s11.09-1.848 16.106-10.826c0 0 6.735-10.43-1.188-14.127A15.292 15.292 0 0037.857 17l.932-2.277a.456.456 0 00-.423-.627H34.95l-1.056 2.772H32.44l.82-2.153a.46.46 0 00-.264-.59.477.477 0 00-.163-.029h-3.432l-1.056 2.772H17.681a1.575 1.575 0 00-1.397.838l-2.523 4.771z" fill="#fff"/></svg>