<svg width="55" height="55" fill="none" xmlns="http://www.w3.org/2000/svg"><path d="M27.624 2.385l11.439 15.452 5.238 24.27L27.624 52.41 10.95 42.107l5.238-25.143L27.624 2.385z" fill="#fff"/><path d="M27.81.87c.23.224.5.42.687.676 3.648 4.972 7.289 9.948 10.92 14.933.195.268.35.597.42.92 1.797 8.16 3.58 16.323 5.364 24.486.15.683.068.86-.524 1.23l-16.67 10.453c-.04.025-.063.072-.094.109h-.62c-.09-.072-.175-.154-.273-.215-5.54-3.478-11.079-6.959-16.63-10.42-.496-.311-.476-.715-.38-1.16.475-2.213.965-4.424 1.45-6.636 1.29-5.9 2.576-11.8 3.884-17.695.094-.42.289-.848.542-1.195 3.595-4.946 7.207-9.88 10.824-14.81.188-.256.456-.452.687-.676h.413zm-7.52 26.279l4.536 14.3h5.597l4.534-14.301-7.353-12.93-7.314 12.93zm17.762-9.78l-9.53-13.044c-.1 2.65-.104 5.244-.092 7.836 0 .174.098.36.187.519 2.24 3.977 4.484 7.95 6.73 11.925.07.124.157.239.276.418l2.429-7.653zm-18.47 7.604c.091-.116.14-.164.172-.221 2.303-4.062 4.607-8.123 6.902-12.189a1.14 1.14 0 00.124-.537c.008-2.457.006-4.914.005-7.371 0-.096-.012-.192-.028-.429l-9.602 13.145 2.427 7.602zM43.04 41.458l-7.024-12.393-3.922 12.393H43.04zM19.19 29.106l-7.015 12.38H23.11c-1.3-4.11-2.588-8.175-3.919-12.38zm9.882 21.87l12.34-7.739-.05-.101h-9.814l-2.476 7.84zm-3.09-.098l.101-.065-2.415-7.646h-9.983l12.297 7.711zm-9.54-30.338l-.103-.005-3.585 16.394.088.032 5.654-9.976-2.055-6.445zm20.269 6.407l5.643 9.95.092-.045-3.576-16.341-.112.01-2.047 6.426zm-9.173 23.047l.131.003 2.2-6.849h-4.491l2.16 6.846z" fill="#000"/></svg>