<svg width="20" height="20" fill="none" xmlns="http://www.w3.org/2000/svg"><mask id="a" maskUnits="userSpaceOnUse" x="0" y="0" width="20" height="20"><path fill-rule="evenodd" clip-rule="evenodd" d="M0 0h20v20H0V0z" fill="#fff"/></mask><g mask="url(#a)" fill-rule="evenodd" clip-rule="evenodd"><path d="M10 20C4.5 20 0 15.5 0 9.95.05 4.45 4.5-.05 10.05 0 15.55.05 20 4.5 20 10.1c-.05 5.45-4.5 9.9-10 9.9z" fill="#0090FF"/><path d="M10.95 8.8l-.3 1.6 2.85.4-.2.75-2.8-.4c-.2.65-.3 1.35-.55 1.95-.25.7-.5 1.4-.8 2.05-.4.85-1.1 1.45-2.05 1.6-.55.1-1.15.05-1.6-.3-.15-.1-.3-.3-.3-.45 0-.2.1-.45.25-.55.1-.05.35 0 .5.05.15.15.3.35.4.55.3.4.7.45 1.1.15.45-.4.7-.95.85-1.5.3-1.2.6-2.35.85-3.55v-.2l-2.65-.4.1-.75 2.75.4.35-1.55-2.85-.45.1-.8 2.95.4c.1-.3.15-.55.25-.8.25-.9.5-1.8 1.1-2.6.6-.8 1.3-1.3 2.35-1.25.45 0 .9.15 1.2.5.05.05.15.15.15.25 0 .2 0 .45-.15.6-.2.15-.45.1-.65-.1-.15-.15-.25-.3-.4-.45-.3-.4-.75-.45-1.1-.1-.25.25-.5.6-.65.95-.35 1.05-.6 2.15-.95 3.25l2.75.4-.2.75-2.65-.4" fill="#fff"/></g></svg>