<svg width="26" height="26" fill="none" xmlns="http://www.w3.org/2000/svg"><path d="M12.607 23.128c5.802 0 10.506-4.706 10.506-10.513 0-5.806-4.704-10.512-10.506-10.512-5.802 0-10.506 4.706-10.506 10.512 0 5.807 4.704 10.513 10.506 10.513z" fill="url(#paint0_linear_103:683)"/><path d="M12.607 22.077c5.222 0 9.455-4.236 9.455-9.462 0-5.225-4.233-9.461-9.455-9.461S3.152 7.39 3.152 12.615c0 5.226 4.233 9.462 9.455 9.462z" fill="#FCE7D0"/><path fill-rule="evenodd" clip-rule="evenodd" d="M15.065 13.393c.365.06.864.193 1.112.297.387.162.479.176.662.107l.019-.007.015-.006c.113-.042.174-.066.219-.047.052.021.085.1.155.273l.018.043c.717 1.758.625 2.736-.352 3.737-.903.927-2.272 1.381-4.167 1.381-1.898 0-3.317-.48-4.204-1.422-.732-.778-.94-1.566-.675-2.555.08-.294.218-.725.308-.954.138-.354.188-.414.319-.398.084.01.292-.042.461-.117.38-.172 1.228-.355 2.011-.434.863-.088 3.32-.027 4.1.101v.001zm-4.687.92c0-.146.065-.312.175-.45.355-.441.84-.17.84.47 0 .546-.301.924-.66.825-.202-.054-.67.543-.806 1.03-.091.332-.097.463-.028.847.109.625.043.63-.093.007-.174-.8-.052-1.372.404-1.9l.252-.292h-.216c-.235 0-.54.141-.676.315-.049.06-.121.11-.162.11-.158 0 .475-.575.714-.65.227-.072.256-.106.256-.312zm4.363.862c-.52.137-.891-.92-.476-1.356.33-.345.79-.104.882.463.04.242.07.276.28.317.225.044.77.48.77.614 0 .035-.126-.032-.28-.15-.197-.149-.36-.213-.543-.213-.307 0-.322.057-.082.289.437.42.6 1.312.37 2.014-.078.233-.126.345-.107.248.168-.913.063-1.446-.39-1.96-.212-.24-.303-.297-.424-.266zm-2.368.928c-.396-.197-.492-.634-.156-.71.317-.073 1.08.003 1.187.117.097.1.097.128-.006.29a.997.997 0 01-.315.29c-.228.124-.248.218-.097.445.079.117.174.157.376.157.245 0 .28-.023.37-.248.102-.257.3-.34.3-.124 0 .185-.255.585-.371.585-.057 0-.103.031-.103.071 0 .04-.065.217-.144.393-.152.337-.402.528-.694.528-.241 0-.567-.32-.661-.648-.053-.186-.144-.317-.265-.382-.264-.143-.418-.67-.196-.67.035 0 .108.11.162.247.088.22.127.248.351.248.271 0 .5-.16.5-.352 0-.065-.107-.171-.238-.236z" fill="#FAFBFB"/><path d="M9.297 15.7c-.406-.34-1.207-.26-1.556-.177l.61-1.983.946-.249 1.353-.354h2.808l1.996.142 1.523.389.372.178.541 1.877c-.35-.083-1.285-.163-1.691.177-.509.426-.509.496-.745.496s-1.387-1.275-2.706-1.275c-1.32 0-2.47 1.275-2.707 1.275-.237 0-.237-.07-.744-.496z" fill="#F6A428"/><path d="M11.056 14.568c.15 0 .271-.127.271-.284a.278.278 0 00-.27-.284.278.278 0 00-.272.284c0 .156.122.284.271.284zM14.44 14.568c.149 0 .27-.127.27-.284a.278.278 0 00-.27-.284.278.278 0 00-.272.284c0 .156.122.284.271.284z" fill="#fff"/><path fill-rule="evenodd" clip-rule="evenodd" d="M6.99 5.99c-.3.208-.7.701-.896 1.106-.306.634-.411 1.891-.22 2.644.238.934.928 1.868 1.752 2.373l.448.274-.134.179c-.182.243-.185.814-.004 1.003.128.134.126.147-.131.912-.405 1.204-.416 1.798-.053 2.621.214.482 1.004 1.278 1.58 1.59 1.986 1.08 5.417.991 7.158-.185.49-.331 1.103-1.03 1.303-1.49.34-.778.289-1.532-.193-2.84-.181-.493-.207-.648-.202-1.233.004-.505.03-.682.105-.725.336-.198.948-.752 1.183-1.07.623-.846.785-1.409.744-2.583-.034-.959-.161-1.392-.578-1.966-.276-.38-.778-.818-.939-.818-.054 0-.176.081-.27.179-.153.162-.166.212-.116.48.031.163.057.569.057.9 0 .527-.022.642-.184.928-.251.448-.883 1.036-1.372 1.279-.224.111-.448.202-.5.202-.05 0-.275-.128-.497-.284-.382-.266-1.13-.567-1.412-.567-.093 0-.128-.05-.128-.18a.619.619 0 00-.168-.354c-.143-.151-.226-.174-.638-.174-.564 0-.81.098-.86.349-.017.084-.036.169-.057.253-.01.039-.2.115-.418.167a3.719 3.719 0 00-1.29.62c-.118.093-.273.169-.344.169-.247 0-.944-.427-1.354-.831-.662-.652-.822-1.225-.669-2.392.042-.32.034-.454-.034-.542-.166-.217-.352-.215-.67.005zm.262.589c-.107.486-.037 1.39.139 1.768.315.684 1.198 1.49 1.918 1.756.211.077.368.178.382.25.135.253-.746 1.45-1.374 1.583a.142.142 0 01-.054.01c-.164 0-.926-.576-1.23-.93-1.085-1.264-1.115-3.21-.068-4.381.175-.197.326-.358.337-.358.008 0-.014.137-.05.302zm11.162.175c.76 1.012.842 2.57.2 3.719-.32.572-1.446 1.541-1.69 1.455-.258.042-1.334-.939-1.373-1.485-.09-.094.07-.248.325-.32.721-.203 1.829-1.252 2.052-1.945.127-.391.166-1.268.074-1.638-.045-.18-.038-.192.08-.126.072.042.221.194.332.34zM12.94 8.678c.097.066.284 1.589.269 2.205l-.006.318c-.286.114-.963.107-1.143-.064-.057.037-.068-.063-.037-.368l.122-1.246c.063-.652.103-.836.189-.86.194-.055.511-.047.606.016zm1.908 3.255c1.203.294 2.161.787 2.161 1.11 0 .093-.028.188-.063.21-.021.013-.043.003-.063-.023-2.771-.82-5.49-.843-8.496.049-.008.008-.02.012-.036.012-.039 0-.071-.108-.071-.24 0-.228.027-.254.525-.524.557-.3 1.282-.54 2.114-.694.782-.145 3.176-.084 3.929.1zm.217 1.46c.364.06.864.193 1.112.297.387.162.479.176.662.107l.019-.007.014-.006c.113-.042.174-.066.219-.047.053.021.086.1.155.273l.018.043c.718 1.758.625 2.736-.35 3.737-.904.927-2.273 1.381-4.168 1.381-1.898 0-3.317-.48-4.204-1.422-.732-.778-.94-1.566-.675-2.555.08-.295.218-.725.308-.954.138-.354.188-.414.318-.398.086.01.294-.042.462-.117.38-.172 1.227-.355 2.011-.434.862-.088 3.32-.027 4.1.101zm-4.512.47a.752.752 0 00-.175.45c0 .206-.029.24-.256.311-.24.076-.872.652-.714.652.04 0 .112-.05.16-.111.137-.174.443-.316.678-.316h.215l-.251.293c-.456.528-.578 1.1-.404 1.9.136.624.202.618.092-.007-.068-.384-.063-.515.029-.847.136-.487.604-1.084.807-1.03.357.1.659-.278.659-.826 0-.639-.486-.91-.84-.468zm3.712-.043c-.415.434-.044 1.493.476 1.356.12-.031.212.024.423.265.454.515.56 1.047.391 1.96-.019.096.03-.015.106-.248.231-.702.068-1.594-.368-2.014-.241-.232-.225-.289.081-.289.183 0 .346.064.541.213.156.117.282.185.282.15 0-.134-.546-.57-.77-.614-.21-.042-.24-.075-.28-.318-.091-.566-.552-.807-.882-.46zm-3.089.435c.01.08-.023.184-.075.23-.132.114-.278-.07-.216-.273.057-.189.263-.157.291.042v.001zm3.43.064c0 .235-.142.289-.257.098-.094-.155-.008-.362.139-.333.082.017.118.09.118.236zm-2.389 1.073c-.336.077-.241.514.156.712.13.065.237.17.237.236 0 .191-.228.352-.499.352-.224 0-.263-.027-.35-.248-.055-.136-.128-.248-.162-.248-.223 0-.07.528.195.67.12.066.211.197.265.383.093.328.42.648.662.648.29 0 .542-.191.693-.528.079-.176.144-.353.144-.393 0-.039.046-.071.103-.071.116 0 .37-.4.37-.585 0-.215-.197-.133-.3.124-.09.225-.124.248-.369.248-.202 0-.297-.04-.376-.157-.151-.227-.131-.321.097-.445a.998.998 0 00.315-.29c.103-.162.103-.189.006-.29-.108-.114-.87-.19-1.187-.117v-.001zm.76.159c.022.034-.022.078-.097.1-.164.045-.405-.015-.405-.1 0-.082.455-.082.503 0z" fill="#161617"/><path d="M17.009 13.042c0-.322-.958-.815-2.161-1.109-.753-.184-3.147-.245-3.93-.1-.83.155-1.557.392-2.114.694-.497.27-.524.296-.524.525 0 .131.032.24.072.24l.035-.013c.01-.013.01-.032-.002-.053-.021-.037-.007-.087.032-.113.05-.032.05-.074-.002-.141-.059-.074-.008-.137.237-.286.301-.185.315-.187.406-.059.09.126.094.126.058-.019-.027-.115.002-.166.113-.203.14-.046.223.013.286.202.01.032.273.008.582-.053 1.428-.283 3.301-.296 4.812-.032l.777.135.11-.152c.145-.2.44-.131.333.078-.107.21-.076.263.052.09l.118-.158.27.165c.149.09.262.204.252.253a.421.421 0 00.06.297l.065.022c.035-.02.063-.116.063-.21z" fill="#939598"/><path d="M16.82 12.933c.01-.05-.102-.163-.251-.252l-.271-.164-.116.157c-.13.173-.16.118-.052-.091.106-.21-.19-.279-.334-.078l-.11.152-.777-.136c-1.51-.263-3.384-.25-4.812.032-.309.062-.57.085-.582.053-.063-.19-.147-.247-.286-.2-.112.036-.14.087-.113.202.035.145.031.146-.058.019-.091-.128-.105-.126-.406.059-.245.15-.297.212-.238.286.053.066.054.108.003.14-.04.027-.054.077-.032.113.012.022.012.042.002.053 3.005-.89 5.724-.868 8.495-.048a.42.42 0 01-.062-.297zM13.203 11.2l-.055-.318a5.046 5.046 0 01-.059-.633l-.005-.315-.19.19c-.232.234-.313.238-.518.023-.09-.095-.13-.136-.153-.127-.02.006-.029.043-.046.11-.029.182-.042.368-.04.553 0 .225-.034.425-.077.452.18.172.857.179 1.143.065z" fill="#58595B"/><path d="M12.94 8.68c.097.062.284 1.587.27 2.203l-.007.318-.055-.318a5.046 5.046 0 01-.059-.633l-.005-.315-.19.19c-.232.234-.312.238-.518.022-.09-.094-.13-.135-.153-.126-.02.006-.029.043-.046.11a3.25 3.25 0 00-.04.553c0 .225-.034.425-.077.452-.057.038-.068-.062-.037-.367l.122-1.246c.063-.652.104-.836.189-.86.194-.055.511-.047.606.016z" fill="#939598"/><path d="M7.39 8.347c-.175-.378-.246-1.282-.139-1.768.037-.165.059-.3.05-.3-.119.112-.23.231-.337.356-1.046 1.172-1.016 3.117.069 4.38.304.355 1.065.93 1.229.93a.582.582 0 00.055-.009c.07-.03.013-.122-.121-.16-.217-.06-.988-.733-1.244-1.087-.402-.55-.528-1.013-.526-1.932.001-.604.032-.887.116-1.097.099-.241.11-.253.08-.072-.22 1.325 0 2.345.664 3.065.374.405.466.384.12-.028-.153-.18-.277-.36-.277-.4 0-.038.061.011.137.111.073.099.27.248.435.332.278.141.314.144.5.043.218-.117.327-.419.246-.685-.026-.084-.02-.139.011-.123 1.139.576 1.265.622 1.232.45-.014-.07-.169-.173-.38-.251-.722-.265-1.604-1.073-1.92-1.756v.001zm11.223 2.126c.643-1.148.56-2.707-.2-3.719-.11-.147-.259-.3-.33-.34-.12-.066-.127-.055-.081.126.092.37.052 1.247-.074 1.638-.224.693-1.332 1.742-2.05 1.945-.258.071-.417.227-.327.32.05.052.78-.25 1.051-.439l.238-.163-.023.328c-.017.248.007.355.102.444.258.242.544.19.943-.173.343-.31.34-.298-.046.23l-.232.317.217-.16c.272-.203.45-.462.674-.986.21-.492.294-1.573.163-2.116-.044-.182-.065-.346-.047-.365.042-.044.17.46.253.996.088.571-.023 1.308-.281 1.864-.228.491-.96 1.267-1.435 1.523-.159.084-.25.168-.203.185.243.086 1.369-.883 1.688-1.455z" fill="#F7941D"/><path d="M16.925 11.928c-.047-.017.044-.101.203-.185.474-.256 1.207-1.032 1.436-1.524.257-.555.367-1.292.28-1.863-.082-.537-.21-1.041-.252-.996-.019.019.003.183.046.365.132.543.048 1.624-.164 2.116-.223.524-.4.783-.673.985l-.217.161.233-.318c.385-.528.389-.54.045-.229-.4.363-.684.415-.943.173-.095-.089-.12-.196-.101-.444l.02-.328-.236.163c-.272.188-1 .492-1.05.438.038.547 1.116 1.528 1.373 1.486zM9.69 10.353c.034.172-.093.126-1.232-.45-.031-.016-.037.04-.01.123.08.266-.029.568-.246.685-.187.101-.223.098-.501-.043a1.489 1.489 0 01-.436-.332c-.074-.1-.136-.15-.136-.11 0 .039.125.218.277.4.346.411.254.432-.12.027-.664-.72-.886-1.741-.664-3.065.03-.18.019-.17-.079.072-.085.21-.116.494-.116 1.097-.002.919.123 1.382.525 1.932.257.354 1.027 1.027 1.244 1.088.134.037.19.13.121.16.628-.134 1.51-1.33 1.373-1.584z" fill="#AD5A00"/><path d="M12.646 16.798c-.196.102-.44.106-.44.177 0 .072.102.709.542.709.44 0 .54-.637.54-.709 0-.07-.244-.075-.438-.177l-.102-.071-.102.071z" fill="#F72F80"/><path d="M12.68 16.715h.135v.567h-.135v-.567z" fill="#161617"/><path d="M11.398 11.201c.108-.226.157-1.322.168-1.841-.484.153-1.497.45-1.454.672.1.532-.17 1.41-.136 1.382.102-.08 1.387-.141 1.422-.213zm2.534 0c-.108-.226-.158-1.322-.168-1.841.483.153 1.496.45 1.454.672-.101.532.169 1.41.135 1.382-.102-.08-1.386-.141-1.421-.213z" fill="#302F2F"/><path d="M10.783 10.648c.179.058.386-.108.463-.37.077-.261-.005-.52-.183-.578-.179-.057-.386.108-.463.37-.077.262.005.52.183.578zM14.545 10.648c-.178.058-.385-.108-.462-.37-.078-.261.005-.52.183-.578.178-.057.385.108.463.37.077.262-.005.52-.184.578z" fill="#58595B"/><defs><linearGradient id="paint0_linear_103:683" x1="12.607" y1="2.103" x2="12.607" y2="23.128" gradientUnits="userSpaceOnUse"><stop stop-color="#5109AD"/><stop offset="1" stop-color="#A617C3"/></linearGradient></defs></svg>