<svg xmlns="http://www.w3.org/2000/svg" viewBox="0 0 32 32"><defs><style>.cls-1{fill:#fff;fill-rule:evenodd}</style><mask id="mask" x="10" y="6" width="93.1" height="20" maskUnits="userSpaceOnUse"><path class="cls-1" d="M10 6h93.1v20H10z" id="a"/></mask></defs><g id="Layer_2" data-name="Layer 2"><g id="Layer_1-2" data-name="Layer 1"><circle cx="16" cy="16" r="16" fill="#13b5ec"/><g mask="url(#mask)"><path class="cls-1" d="M17.2 12.9l3.6-2.1V15zm3.6 9L16 24.7l-4.8-2.8V17l4.8 2.8 4.8-2.8zm-9.6-11.1l3.6 2.1-3.6 2.1zm5.4 3.1l3.6 2.1-3.6 2.1zm-1.2 4.2L11.8 16l3.6-2.1zm4.8-8.3L16 12.2l-4.2-2.4L16 7.3zM10 9.4v13.1l6 3.4 6-3.4V9.4L16 6z"/></g></g></g></svg>