<svg width="55" height="55" fill="none" xmlns="http://www.w3.org/2000/svg"><path d="M19.65 52.391c.782-.7 7.872-9.819 8.361-10.776-4.722.096-8.676-1.585-11.67-5.206-2.982-3.605-3.859-7.784-2.946-12.506 3.334 2.521 6.472 5.11 9.796 7.608l7.323-9.369c-1.668-1.371-3.343-2.624-4.986-3.917l-4.878-3.841L30.826 1.379C28.162.593 21.951.984 17.273 3 10.39 5.968 5.494 10.928 2.849 17.931-2.427 31.9 4.722 47.664 19.651 52.391zm7.829-40.988c1.72-2.212 3.45-4.418 5.179-6.624.655-.836 1.316-1.667 1.976-2.5.217-.274.428-.476.848-.324 1.871.677 3.703 1.436 5.416 2.459 3.547 2.119 6.485 4.886 8.723 8.36 2.433 3.776 3.937 7.896 4.185 12.404.108 1.954.13 3.916-.154 5.874-.43 2.962-1.3 5.768-2.684 8.422-2.507 4.813-6.162 8.508-10.884 11.143-3.475 1.94-7.248 2.915-11.2 3.19-1.734.12-3.473.004-5.204-.184-.073-.008-.141-.064-.297-.138 1.737-2.23 3.45-4.433 5.166-6.633 1.72-2.206 3.443-4.411 5.207-6.67l-9.892-7.732c2.563-3.365 5.137-6.593 7.703-9.851 1.645 1.287 3.21 2.515 4.778 3.738 1.574 1.228 3.11 2.507 4.772 3.684.683-3.047.242-7.201-1.965-10.432-3.067-4.487-7.395-6.496-12.97-6.39.515-.716.888-1.27 1.297-1.796zm1.48.446c11.353 1.4 16.155 12.773 12.918 20.64l-10.086-7.865-5.9 7.539c1.636 1.36 3.306 2.61 4.941 3.902 1.626 1.285 3.27 2.545 4.96 3.857l-9.658 12.382c.45.037.801.092 1.153.09 4.04-.013 7.879-.893 11.487-2.72 2.652-1.342 4.966-3.134 6.996-5.309a24.604 24.604 0 005.337-8.85c.586-1.696.953-3.43 1.184-5.21.226-1.739.231-3.483.095-5.206-.25-3.174-1.114-6.202-2.555-9.063-2-3.973-4.864-7.17-8.528-9.664-1.769-1.204-3.685-2.113-5.811-2.858l-6.533 8.335z" fill="#DD2664"/></svg>