<svg xmlns="http://www.w3.org/2000/svg" width="55" height="55"><defs><linearGradient id="a" x1="519.44" y1="480.56" x2="480.55" y2="519.45" gradientTransform="matrix(1 0 0 -1 0 1000)" gradientUnits="userSpaceOnUse"><stop offset="0" stop-color="#377f94"/><stop offset="1" stop-color="#34adc4"/></linearGradient><linearGradient id="b" x1="481.79" y1="518.21" x2="518.21" y2="481.79" gradientTransform="matrix(1 0 0 -1 0 1000)" gradientUnits="userSpaceOnUse"><stop offset="0" stop-color="#00a5bd"/><stop offset="1" stop-color="#005e78"/></linearGradient></defs><path d="M512.75 524.37a27.53 27.53 0 01-22.41 1.38 2 2 0 010-.34 5.38 5.38 0 01.78-2.59 15.67 15.67 0 012.3-3 104.48 104.48 0 0011.14.75q5 .12 6.64.83a2.42 2.42 0 011.64 2.36 3.49 3.49 0 01-.06.65zm-12.62-15.69a5.06 5.06 0 004-1.83q1.58-1.83 1.57-5.75c0-3.41-.74-6.07-2.21-8a5.08 5.08 0 00-4.21-2.12 5 5 0 00-4 1.89c-1.07 1.27-1.61 3.2-1.61 5.82 0 3.38.73 6 2.18 7.87a5.18 5.18 0 004.24 2.12zM500 472.5a27.5 27.5 0 00-12.75 51.87q.53-.71 1.08-1.38c.15-.2 1.24-1.35 3.29-3.47a10.37 10.37 0 01-2.37-1.79 2.67 2.67 0 01-.69-1.79 5.36 5.36 0 01.92-2.65 21.12 21.12 0 014.23-4.29 9.65 9.65 0 01-4.15-3.69 9.77 9.77 0 01-1.45-5.23 10.07 10.07 0 013.3-7.54 11.73 11.73 0 018.46-3.16 13 13 0 017.13 1.92 34.73 34.73 0 003.95-4.44 8.09 8.09 0 001.75-4.54 3.58 3.58 0 00-1-2.58 3.06 3.06 0 00-2.3-1 3.62 3.62 0 00-2.18.71 4.19 4.19 0 00-1.43 2.09h-.45a5.68 5.68 0 011.57-3.46 4.35 4.35 0 013.14-1.21 4.67 4.67 0 013.36 1.29 4.11 4.11 0 011.34 3.05 5.92 5.92 0 01-.58 2.51 16.58 16.58 0 01-2.93 4.17q-3 3.24-3.74 4h4.24a12.85 12.85 0 001.85-.09 2.41 2.41 0 001-.4 2.6 2.6 0 00.74-.85h.45l-1.45 4.22h-4.47a9.64 9.64 0 011.5 5.52 9.33 9.33 0 01-3.15 7.07 11.9 11.9 0 01-8.46 2.94 16.08 16.08 0 01-4.47-.66 8.47 8.47 0 00-1.92 2.13 3.38 3.38 0 00-.5 1.54 1.48 1.48 0 00.53 1.05 3.87 3.87 0 002.08.74c.6.09 2.11.18 4.51.25a81.93 81.93 0 018.61.5 8.11 8.11 0 014.78 2.22 6 6 0 011.79 4.43 3.85 3.85 0 010 .48A27.5 27.5 0 00500 472.5z" transform="translate(-472.5 -472.5)" style="isolation:isolate" opacity=".6" fill="url(#a)"/><path d="M503.5 493.1c1.47 1.93 2.21 4.59 2.21 8q0 3.91-1.57 5.75a5.06 5.06 0 01-4 1.83 5.18 5.18 0 01-4.24-2.12c-1.45-1.86-2.18-4.49-2.18-7.87 0-2.62.54-4.55 1.61-5.82a5 5 0 014-1.89 5.08 5.08 0 014.21 2.12zm-11.88 26.42a10.37 10.37 0 01-2.37-1.79 2.67 2.67 0 01-.69-1.79 5.36 5.36 0 01.92-2.65 21.12 21.12 0 014.23-4.29 9.65 9.65 0 01-4.15-3.69 9.77 9.77 0 01-1.45-5.23 10.07 10.07 0 013.3-7.54 11.73 11.73 0 018.46-3.16 13 13 0 017.13 1.92 34.73 34.73 0 003.95-4.44 8.09 8.09 0 001.75-4.54 3.58 3.58 0 00-1-2.58 3.06 3.06 0 00-2.3-1 3.62 3.62 0 00-2.18.71 4.19 4.19 0 00-1.43 2.09h-.45a5.68 5.68 0 011.57-3.46 4.35 4.35 0 013.14-1.21 5.2 5.2 0 012 .37A25.76 25.76 0 10488.34 523q.3-.36 3.28-3.45zm21.25-41.83a5.93 5.93 0 01.56.46 4.11 4.11 0 011.34 3.05 5.92 5.92 0 01-.58 2.51 16.58 16.58 0 01-2.93 4.17q-3 3.24-3.74 4h4.24a12.85 12.85 0 001.85-.09 2.41 2.41 0 001-.4 2.6 2.6 0 00.74-.85h.45l-1.45 4.22h-4.47a9.64 9.64 0 011.5 5.52 9.33 9.33 0 01-3.15 7.07 11.9 11.9 0 01-8.46 2.94 16.08 16.08 0 01-4.47-.66 8.47 8.47 0 00-1.92 2.13 3.38 3.38 0 00-.5 1.54 1.48 1.48 0 00.53 1.05 3.87 3.87 0 002.08.74c.6.09 2.11.18 4.51.25a81.93 81.93 0 018.61.5 8.11 8.11 0 014.78 2.22 5.85 5.85 0 011.62 2.89 25.76 25.76 0 00-2.12-43.25zm-1.7 43.67q-1.68-.71-6.64-.83a104.48 104.48 0 01-11.14-.75 15.67 15.67 0 00-2.3 3 7.2 7.2 0 00-.52 1.15 25.79 25.79 0 0021.95-1.47 2.59 2.59 0 00-1.35-1.1z" transform="translate(-472.5 -472.5)" fill="url(#b)"/><path d="M43.28 18.03h-.45a2.6 2.6 0 01-.74.85 2.41 2.41 0 01-1 .4 12.85 12.85 0 01-1.85.09H35q.78-.72 3.74-4a16.58 16.58 0 002.93-4.17 5.92 5.92 0 00.58-2.51 4.11 4.11 0 00-1.34-3.05 4.67 4.67 0 00-3.36-1.29 4.35 4.35 0 00-3.14 1.21 5.68 5.68 0 00-1.57 3.46h.45a4.19 4.19 0 011.43-2.09 3.62 3.62 0 012.18-.71 3.06 3.06 0 012.3 1 3.58 3.58 0 011 2.58 8.09 8.09 0 01-1.75 4.54 34.73 34.73 0 01-3.95 4.46 13 13 0 00-7.11-1.92 11.73 11.73 0 00-8.46 3.16 10.07 10.07 0 00-3.3 7.54 9.7 9.7 0 005.6 8.92A21.12 21.12 0 0017 40.79a5.36 5.36 0 00-.92 2.65 2.67 2.67 0 00.69 1.79 10.37 10.37 0 002.37 1.79 108.3 108.3 0 00-3.29 3.47q-.56.68-1.08 1.38a26.69 26.69 0 003.09 1.38 1.87 1.87 0 010-.34 5.38 5.38 0 01.78-2.59 15.67 15.67 0 012.3-3 104.48 104.48 0 0011.14.75q5 .12 6.64.83a2.42 2.42 0 011.64 2.36 3.49 3.49 0 01-.06.65 27.23 27.23 0 002.39-1.41 3.85 3.85 0 000-.48 6 6 0 00-1.79-4.43 8.11 8.11 0 00-4.78-2.22 81.93 81.93 0 00-8.61-.5c-2.4-.07-3.91-.16-4.51-.25a3.87 3.87 0 01-2.08-.74 1.48 1.48 0 01-.53-1.05 3.38 3.38 0 01.5-1.54 8.27 8.27 0 011.92-2.13 16 16 0 004.47.66 11.9 11.9 0 008.46-2.94 9.33 9.33 0 003.15-7.07 9.64 9.64 0 00-1.5-5.52h4.47zM31.64 34.35a5.06 5.06 0 01-4 1.83 5.18 5.18 0 01-4.24-2.12c-1.45-1.86-2.18-4.49-2.18-7.87 0-2.62.54-4.55 1.61-5.82a5 5 0 014-1.89 5.08 5.08 0 014.21 2.12c1.47 1.93 2.21 4.59 2.21 8q0 3.91-1.57 5.75z" fill="#fff"/></svg>