<svg version="1.0" xmlns="http://www.w3.org/2000/svg" width="266.667" height="266.667" viewBox="0 0 200 200"><path d="M86.5 1.9c-6.8.7-18.2 3.5-21.4 5.1-3.2 1.7-10.7 5-11.4 5-.3 0-2.6 1.4-4.9 3-2.4 1.7-6.1 4.2-8.2 5.7-8.1 5.3-18.1 16.4-25.3 28.2C10.8 56.2 5 69.6 5 72.8c0 1.1-.7 3.6-1.5 5.5-2.1 5.2-2.1 37.9 0 43 .8 2 1.5 4.7 1.5 5.9 0 1.3.9 4 2 6.1 1.1 2 2 4.3 2 5 0 .8 1.1 3.4 2.5 5.8s3 5.5 3.7 6.9c3.6 7.3 21.8 26.7 27.4 29.2 1.3.6 2.4 1.5 2.4 1.9 0 .4 2.1 1.7 4.8 3 2.6 1.2 5.9 3.1 7.4 4.1 1.4 1 3.2 1.8 4 1.8.7.1 3.1.9 5.3 2 2.2 1.1 5 1.9 6.3 2 1.2 0 3.9.7 5.9 1.5 4.9 2.1 37 2.1 43.4.1 2.4-.8 6.1-1.7 8.2-2.1 2-.3 3.7-1 3.7-1.5 0-.4 1.5-1.2 3.3-1.5 1.7-.4 3.7-1.1 4.3-1.6.6-.5 3.5-2.1 6.5-3.7 16.8-8.6 32.7-25.2 40.9-42.7 4.5-9.7 5-11 6.6-16.5 3.6-12.8 4-41.1.8-50.4-.8-2.1-1.4-4.7-1.4-5.8 0-1.8-10.6-24.7-11.9-25.8-.3-.3-1.9-2.3-3.5-4.5-4-5.6-17.9-19.1-21.6-21-1.6-.8-3-1.9-3-2.3 0-.4-1-1.2-2.3-1.8-1.2-.6-4.4-2.3-7.2-3.8-2.7-1.4-5.7-2.6-6.5-2.6-.8 0-2.8-.9-4.5-2-1.6-1.1-4-2-5.3-2-1.2 0-3.8-.6-5.6-1.4-4-1.7-27-2.7-37.1-1.7zm31.5 9.5c12.4 2.2 28.8 9.6 35.8 16.1 1.5 1.4 3.2 2.5 3.9 2.5.7 0 1.3.3 1.3.7 0 .5 1.4 2.3 3.2 4.2 2 2.1 3.4 4.9 4 7.9.8 4.4.2 11.1-1.1 12.2-1.1.9-6.1 7.8-6.1 8.4 0 1.2-7.5 11.2-10.3 13.8l-3 2.8H72v43h59v-11h-17.7c-19.1-.1-19.9-.3-23-5.8-2.8-4.9.1-13.2 5.3-15.2 1.4-.6 13.3-1 26.6-1 26 0 28.3.4 30.7 5.7.7 1.5 1.1 10.2 1.1 22.7 0 22.8-.4 24.4-6.5 27.7-3.5 1.9-5.5 2-47.7 1.7-34.2-.2-44.2-.6-44.6-1.6-.2-.6-.9-1.2-1.6-1.2-.7 0-2.2-1.3-3.4-3-2.2-2.9-2.2-3.4-2.2-40.7V63.6l3.7-3.8 3.7-3.8h41.2c22.7 0 41.9-.3 42.8-.6.9-.3 1.6-1.2 1.6-1.9s.3-1.5.8-1.7c1.1-.5 6.2-7.5 6.2-8.6 0-2.3-17.2-11.6-27.5-14.8-8.6-2.7-33.8-2.7-41 0-5.2 1.9-19.6 8.7-20.5 9.6-.3.3-2.3 1.9-4.5 3.5C49.6 45.2 43.3 51.4 40 56c-3.6 4.9-9.4 17.3-11.5 24.5-2.5 8.5-2.6 30.9-.1 38.5 3.3 10.1 13.4 29 15.4 29 .4 0 1.8 1.6 3.1 3.5s2.7 3.5 3.1 3.5c.4 0 2.4 1.5 4.4 3.3 4.5 4.1 18 10.9 26.6 13.3 10.1 2.9 31 2.6 41-.6 16.4-5.1 33.1-18.2 41.8-32.6 9.1-15.2 12.1-29.1 10.2-46.9-.7-6.1-1.9-12.2-2.6-13.7-2.2-4.2-1.8-12 .6-14.1 2.6-2.2 6.9-2.1 9.7.1 2.5 1.9 6.6 13.8 8.4 24 2 11.6-.2 30.5-5.2 43.7-3.2 8.2-8.8 18.4-12.4 22.3-1.4 1.5-2.5 3.1-2.6 3.7-.1 1.4-14.4 14-20.9 18.3-22 14.6-51.5 18.2-78 9.5-5.6-1.8-15.4-6.5-15.8-7.5-.2-.4-.8-.8-1.4-.8-3.4 0-23.3-18.4-26.7-24.8-.6-1.1-1.7-2.6-2.4-3.4-1.5-1.6-8-14.8-9.7-19.8-.7-1.9-1.6-4.4-2-5.5-1.3-3-3-16.7-3-23.5 0-8.3 1.9-20.4 4.2-27.5 2.3-7 6.9-16.9 8-17.3.4-.2.8-.7.8-1.2 0-1.3 5.3-9 6.2-9 .4 0 .8-.7.8-1.5s.9-1.9 2-2.5c1.1-.6 2-1.7 2-2.5s.7-1.5 1.5-1.5 1.5-.7 1.5-1.5.4-1.5 1-1.5c.5 0 1.7-.8 2.7-1.8 9-9.1 26-17.5 41.8-20.7 13.3-2.7 20.9-2.7 35.5-.1zm5 36.6v7h-3.5c-3.3 0-3.5-.2-3.5-3.5V48H86v3.6c0 3.4-.1 3.5-3.2 3.2-3.2-.3-3.3-.4-3.6-5.7-.2-2.9-.1-6 .2-6.7.4-1.1 4.8-1.4 22.1-1.4H123v7z" fill="#4394a4"/></svg>