<svg xmlns="http://www.w3.org/2000/svg" width="20" height="20" fill="none"><g clip-path="url(#clip0)"><path d="M10.011 20C4.383 19.92-.012 15.53 0 9.977.01 4.367 4.429 0 10 0c5.617 0 10.011 4.4 10 10 0 5.6-4.418 9.908-9.989 10zm7.567-11.152c-.023-.058-.035-.127-.07-.184a12.57 12.57 0 00-2.145-2.996c-.07-.069-.138-.161-.254-.184-.069.15-.057.3-.057.45 0 .54.011 1.094.023 1.635.034 1.106.011 2.2-.185 3.283-.115.611-.265 1.21-.254 1.844-.057.161-.034.322-.023.484.058.749.727 1.163 1.43.887.335-.127.589-.346.808-.622.611-.772.934-1.66 1.061-2.616.104-.69.046-1.359-.334-1.981zM3.91 13.04c.046.6.184 1.164.38 1.729a.992.992 0 00.323.46c1.511 1.118 3.172 1.717 5.064 1.429a4.595 4.595 0 001.626-.541c-.669-.37-1.084-.922-1.453-1.51-.265-.438-.53-.875-.796-1.325a8.3 8.3 0 00-1.027-1.635c-.68-.841-1.522-1.383-2.652-1.337-.68.023-1.142.357-1.361.99-.208.554-.196 1.153-.104 1.74zm-1.13 1.05c.242.518.61.887 1.222 1.037-.092-.334-.173-.61-.242-.899-.208-.84-.346-1.682-.22-2.557.14-.934.681-1.544 1.512-1.694.15-.023.323.011.45-.046.173-.08-.024-.3.115-.438.08.08.058.184.08.265.035.115.07.196.22.219 1.015.138 1.788.691 2.41 1.475.53.668.935 1.417 1.361 2.165.37.646.715 1.29 1.258 1.81.646.621 1.51.748 2.249.333.611-.357.992-.91 1.291-1.532.035-.069.058-.15.012-.219-.357-.645-.23-1.325-.138-1.993.103-.749.23-1.498.346-2.235.034-.219 0-.392-.243-.472a1.086 1.086 0 01-.253-.138c-.15-.104-.266-.07-.37.057-.922.392-1.799.369-2.63-.23-.414-.3-.83-.622-1.245-.922-.715-.518-1.488-.841-2.387-.853-.22 0-.335.058-.439.265-.219.484-.53.91-1.026 1.153-.37.184-.727.115-1.027-.185a1.75 1.75 0 01-.45-.852c-.057-.254-.184-.288-.403-.242-.773.115-1.28.587-1.58 1.256-.52 1.117-.566 2.304-.45 3.513.057.692.196 1.36.576 1.959zM7.15 3.813c.243.081.393 0 .555.012.934.011 1.868 0 2.79.207.531.115 1.073.173 1.592.346 1.165.403 1.869 1.221 2.18 2.396.058.242.22.323.427.426 0-.506-.058-1.002.012-1.463.069-.46-.116-.749-.416-1.014-1.66-1.451-3.564-1.958-5.709-1.463a5.148 5.148 0 00-1.43.553zm.335 3.03c.196.012.22-.011.15-.161-.415-.853-.91-1.67-1.384-2.488-.046-.093-.104-.127-.207-.104-.439.092-.877.196-1.28.415-.174.092-.231.172-.116.368.23.392.461.795.646 1.21.138.3.311.38.634.357.508-.034 1.05-.08 1.454.369.034.034.092.034.103.034zm.439-2.903h-.162c-.346 0-.346 0-.184.311.415.784.853 1.555 1.257 2.35.184.358.392.646.784.818.265.116.496.311.738.484.058.035.104.058.15.012.035-.046-.011-.08-.034-.115-.093-.173-.173-.346-.266-.519-.565-.99-1.13-1.97-1.684-2.972-.15-.277-.311-.45-.6-.369zm2.387.219c.035.058.07.104.104.138.946 1.486 1.892 2.984 2.837 4.47.104.162.185.254.381.115.15-.115.254-.184.104-.403a137.945 137.945 0 01-2.445-3.87c-.254-.392-.566-.473-.98-.45zm1.13 4.493a2.184 2.184 0 00-.23-.518 439.258 439.258 0 01-2.295-3.94c-.127-.22-.254-.265-.462-.196a675.67 675.67 0 012.284 3.986c.161.276.334.53.704.668zM6.655 6.694c-.588-.127-1.177-.07-1.742.103-.265.08-.288.23-.115.473.046-.323.058-.346.392-.427.473-.115.969-.115 1.465-.15z" fill="#070707"/><path d="M8.582 3.26a5.148 5.148 0 00-1.43.553c.157.053.28.037.392.023a.852.852 0 01.173-.011l.4.008c.8.016 1.6.031 2.39.2.143.027.287.052.43.076.391.067.783.134 1.163.269 1.164.403 1.856 1.221 2.168 2.396.057.23.207.323.427.427 0-.16-.006-.32-.012-.477-.012-.34-.024-.671.023-.987.08-.46-.104-.748-.415-1.013-1.65-1.452-3.553-1.959-5.71-1.464zm6.248 7.955c.025-.12.05-.242.072-.362.196-1.095.22-2.19.185-3.284a77.6 77.6 0 01-.023-1.636v-.056c-.002-.13-.003-.262.057-.393.107.01.174.09.238.165l.016.02a12.26 12.26 0 012.145 2.995.524.524 0 01.048.118.83.83 0 00.022.066c-.08.04-.09.122-.1.188a5.232 5.232 0 01-.604 1.84c-.507.91-1.107 1.705-2.237 1.82-.019-.499.081-.99.181-1.48zm-12.638.916c.069.692.207 1.36.588 1.959.496.046.542-.035.473-.588-.162-.99-.173-1.97.196-2.926.311-.806.9-1.267 1.742-1.44a.789.789 0 01.128-.015c.12-.007.245-.015.321-.158a.164.164 0 01.047-.023c.187.187.418.185.65.182.123-.001.247-.003.365.025.842.208 1.464.715 2.006 1.348.179.21.355.422.532.634.588.706 1.176 1.413 1.833 2.05.6.588 1.269.865 2.1.52.564-.243.806-.704.887-1.268.044-.284.09-.566.136-.848.088-.542.177-1.083.245-1.63.034-.276.023-.46-.265-.564a1.264 1.264 0 01-.252-.136l-.094-.06c-.912.392-1.8.37-2.63-.23-.208-.15-.415-.305-.623-.46-.208-.156-.415-.312-.623-.462-.715-.506-1.488-.84-2.387-.852-.22 0-.346.058-.439.265-.219.484-.53.91-1.026 1.152-.38.173-.738.115-1.027-.184a1.75 1.75 0 01-.45-.853c-.046-.253-.184-.288-.403-.242-.773.138-1.269.61-1.58 1.29-.508 1.118-.566 2.316-.45 3.514z" fill="#FBFAFB"/><path d="M4.014 11.29c-.208.565-.196 1.164-.104 1.752.162.12.286.273.407.425a3.2 3.2 0 00.24.277c1.026 1.06 2.571 1.049 3.655.369.243-.15.439-.369.612-.6l.028-.037a.647.647 0 01.202-.204 7.795 7.795 0 00-1.026-1.636c-.68-.841-1.523-1.371-2.653-1.336-.68.023-1.13.357-1.36.99zm3.472-4.447c-.012 0-.07 0-.092-.034-.397-.441-.926-.405-1.426-.37l-.028.001c-.323.023-.496-.058-.634-.357a12.168 12.168 0 00-.646-1.21c-.115-.196-.058-.276.115-.368.404-.208.842-.311 1.28-.415.104-.023.162.011.208.104l.324.563c.367.636.73 1.267 1.06 1.925.058.15.046.173-.161.161zm1.038-2.534c-.15-.277-.312-.45-.6-.369h-.162c-.346 0-.346 0-.199.283l.015.028.192.352c.362.664.722 1.323 1.065 1.998.185.37.392.657.784.818.205.09.389.226.573.363.055.04.11.082.166.121.057.035.103.058.15.012.036-.027.008-.062-.017-.092l-.018-.023c-.046-.087-.09-.173-.133-.26a10.946 10.946 0 00-.132-.259l-.426-.743c-.426-.743-.852-1.486-1.258-2.23zm1.788-.15c.415-.023.726.058.968.46a168.14 168.14 0 002.446 3.872c.138.219.046.3-.104.403-.185.138-.277.046-.38-.115-.947-1.498-1.892-2.984-2.838-4.47a.287.287 0 00-.073-.126l-.02-.024zm.426 3.825c.15.288.335.53.704.668a2.23 2.23 0 00-.22-.518 347.327 347.327 0 01-2.294-3.94c-.127-.22-.254-.265-.462-.196.277.485.553.97.83 1.452.483.847.965 1.69 1.442 2.534z" fill="#FBFAFB"/><path d="M6.284 6.714c.124-.006.247-.012.371-.02-.588-.127-1.176-.07-1.753.103-.265.08-.288.23-.115.473.046-.312.057-.346.392-.427.363-.095.734-.112 1.105-.13zm10.602 4.173c-.496.899-1.107 1.682-2.238 1.809-.056.158-.035.316-.013.486l.002.01c.057.748.726 1.163 1.43.886.323-.126.588-.345.807-.622.611-.76.934-1.647 1.061-2.615.093-.703.023-1.37-.346-1.982-.079.046-.091.135-.103.214v.005a5.312 5.312 0 01-.6 1.81zM2.78 14.09c.496.046.542-.035.45-.576-.162-.991-.174-1.97.195-2.926.312-.807.912-1.268 1.742-1.44a.671.671 0 01.13-.015c.123-.008.252-.015.32-.158a.164.164 0 01.046-.023c.187.187.419.184.65.182.124-.002.248-.003.365.025.842.207 1.465.714 2.007 1.348.169.199.336.4.504.6.597.714 1.194 1.427 1.86 2.084.6.588 1.27.864 2.1.519.576-.23.807-.692.888-1.268.043-.283.09-.565.135-.847a44.03 44.03 0 00.245-1.63c.035-.276.023-.46-.265-.564a1.264 1.264 0 01-.252-.137l-.094-.059c.104-.127.22-.173.37-.058.08.058.16.104.253.139.242.08.277.253.242.472-.04.262-.082.522-.123.782-.078.483-.155.966-.223 1.453l-.018.13c-.088.626-.178 1.26.156 1.863.035.07.024.15-.011.219-.288.622-.669 1.187-1.292 1.532-.726.415-1.591.288-2.249-.334-.5-.477-.832-1.062-1.17-1.655l-.087-.154-.141-.252c-.368-.656-.74-1.321-1.22-1.914-.623-.783-1.396-1.336-2.41-1.474-.15-.023-.185-.092-.22-.22a.462.462 0 01-.013-.08c-.006-.062-.012-.129-.068-.184-.06.07-.05.156-.042.235.01.088.018.166-.073.203a.675.675 0 01-.27.036c-.061 0-.122.001-.18.01-.83.15-1.372.76-1.51 1.693-.128.864.01 1.717.218 2.558.07.288.15.576.243.899-.577-.127-.935-.507-1.188-1.014z" fill="#D0D0D0"/><path d="M4.329 13.485c-.125-.16-.251-.32-.419-.444.035.588.185 1.164.38 1.729a.916.916 0 00.324.46c1.5 1.118 3.16 1.717 5.063 1.429a4.669 4.669 0 001.626-.541c-.669-.358-1.084-.91-1.453-1.51-.171-.271-.334-.547-.496-.821-.1-.169-.199-.337-.3-.504a.647.647 0 00-.202.204l-.028.038-.04.047c-.172.205-.347.413-.572.552-1.084.68-2.63.692-3.656-.368a3.968 3.968 0 01-.227-.271z" fill="#D0D0D0"/></g><defs><clipPath id="clip0"><path fill="#fff" d="M0 0h20v20H0z"/></clipPath></defs></svg>