<svg width="176" height="176" fill="none" xmlns="http://www.w3.org/2000/svg"><path d="M161.333 88c0 40.502-32.831 73.333-73.333 73.333-40.502 0-73.333-32.831-73.333-73.333 0-40.502 32.831-73.333 73.333-73.333 40.502 0 73.333 32.831 73.333 73.333z" fill="url(#paint0_linear)"/><path fill-rule="evenodd" clip-rule="evenodd" d="M88 157.667a69.666 69.666 0 100-139.334 69.667 69.667 0 100 139.334zm0 3.666c40.502 0 73.333-32.831 73.333-73.333 0-40.502-32.831-73.333-73.333-73.333-40.502 0-73.333 32.831-73.333 73.333 0 40.502 32.831 73.333 73.333 73.333z" fill="#000"/><path d="M100.049 50.285c-4.195 0-6.285 4.194-10.48 4.194-4.187 0-6.284-4.194-10.472-4.194-4.194 0-8.382 2.097-8.382 2.097s-11.733-11.733-8.382-16.764c-9.775 2.097-27.236 11.733-18.861 33.528-3.49 13.963-9.636 43.157-6.285 48.187 4.195 6.285 16.764 18.854 23.049 23.049 6.285 4.187 14.667 18.854 31.43 18.854 16.765 0 20.952-14.667 27.237-18.854 6.284-4.195 18.861-16.764 23.048-23.049 3.352-5.03-2.786-34.224-6.284-48.187 8.382-21.795-9.079-31.43-18.854-33.528 3.351 5.03-8.382 16.764-8.382 16.764s-4.195-2.097-8.382-2.097z" fill="#727670"/><path fill-rule="evenodd" clip-rule="evenodd" d="M66.367 32.883l-2.508 3.754c-.352.528-.47 1.489.102 3.117.543 1.577 1.584 3.351 2.802 5.075a51.878 51.878 0 004.385 5.353 26.862 26.862 0 011.606-.587c1.665-.557 3.967-1.144 6.343-1.144 2.655 0 4.635 1.32 6.131 2.325l.125.073c1.628 1.1 2.757 1.797 4.216 1.797 1.467 0 2.596-.704 4.224-1.79l.125-.08c1.496-1.005 3.476-2.325 6.131-2.325 2.368 0 4.678.587 6.343 1.144.616.206 1.159.411 1.599.587a54.912 54.912 0 004.385-5.353c1.225-1.724 2.259-3.498 2.809-5.075.564-1.628.454-2.589.102-3.117l-2.508-3.754 4.415.946c5.148 1.1 12.379 4.18 17.255 9.988 4.914 5.844 7.268 14.226 3.139 25.439 1.738 7.025 4.077 17.556 5.603 27.045.777 4.862 1.356 9.504 1.518 13.266.08 1.878.058 3.594-.096 5.031-.154 1.371-.462 2.743-1.136 3.755-2.2 3.3-6.498 8.118-10.964 12.584-4.473 4.473-9.291 8.77-12.591 10.97-1.291.858-2.567 2.332-4.121 4.32l-.888 1.144c-1.283 1.65-2.713 3.512-4.363 5.265-4.158 4.437-9.849 8.433-18.883 8.433-8.976 0-15.664-3.945-20.827-8.286-2.413-2.032-4.517-4.18-6.358-6.05l-.345-.352c-1.972-2.002-3.534-3.55-4.913-4.474-3.3-2.2-8.125-6.497-12.591-10.97-4.474-4.474-8.771-9.284-10.971-12.584-.667-1.012-.975-2.384-1.13-3.755a33.546 33.546 0 01-.095-5.031c.162-3.769.734-8.404 1.518-13.273 1.526-9.482 3.865-20.02 5.603-27.038-4.136-11.205-1.782-19.595 3.131-25.447 4.884-5.793 12.108-8.873 17.263-9.98l4.407-.954.008.008zm41.242 21.134l-.029-.007-.117-.059a22.738 22.738 0 00-2.237-.88 17.018 17.018 0 00-5.177-.953c-1.467 0-2.589.704-4.224 1.79l-.125.08c-1.496.997-3.476 2.325-6.13 2.325-2.655 0-4.628-1.32-6.131-2.325l-.125-.08c-1.628-1.086-2.757-1.79-4.217-1.79-1.818 0-3.703.462-5.184.953-.76.254-1.507.548-2.237.88l-.117.059-.022.007-1.188.594-.932-.931 1.298-1.298-1.298 1.298-.014-.015-.03-.029-.102-.11a41.453 41.453 0 01-1.709-1.833 55.51 55.51 0 01-3.791-4.752 25.372 25.372 0 01-3.271-5.977 10.282 10.282 0 01-.587-2.787c-4.18 1.364-9.02 3.96-12.415 7.994-4.085 4.854-6.277 12.004-2.31 22.315l.205.543-.139.557a352.775 352.775 0 00-5.676 27.295c-.777 4.81-1.32 9.284-1.481 12.848a29.98 29.98 0 00.073 4.458c.147 1.24.381 1.878.543 2.127 1.994 2.985 6.079 7.597 10.508 12.027 4.437 4.444 9.05 8.521 12.027 10.516 1.767 1.173 3.608 3.028 5.5 4.95l.33.337c1.855 1.885 3.85 3.916 6.123 5.837 4.796 4.034 10.678 7.422 18.466 7.422 7.729 0 12.51-3.33 16.206-7.275 1.518-1.613 2.824-3.3 4.092-4.943l.954-1.217c1.518-1.951 3.124-3.879 4.972-5.111 2.984-1.995 7.59-6.072 12.026-10.509 4.437-4.437 8.522-9.049 10.509-12.027.169-.256.403-.894.543-2.126.132-1.181.154-2.684.073-4.474a117.683 117.683 0 00-1.474-12.833 352.617 352.617 0 00-5.676-27.302l-.147-.557.213-.543c3.96-10.31 1.775-17.453-2.31-22.308-3.403-4.04-8.235-6.637-12.415-8-.065.951-.263 1.889-.587 2.786a25.387 25.387 0 01-3.271 5.977 55.395 55.395 0 01-5.5 6.585l-.11.11-.029.03v.007l-1.305-1.291 1.298 1.29-.939.94-1.181-.587v-.008z" fill="#000"/><path d="M77 98.157c-3.49-5.588-12.57-13.831-20.951-2.098 2.786 4.195 10.897 10.48 20.951 2.098zm25.139 0c3.498-5.588 12.576-13.831 20.958-2.098-2.794 4.195-10.897 10.48-20.951 2.098h-.007zM90.845 123.09c3.608-2.347 11.294-11.821 11.294-14.439 0-2.992-6.527-5.984-12.57-5.984-7.538 0-12.569 2.992-12.569 5.984 0 2.61 7.656 12.056 11.279 14.424-4.444 4.642-14.498 9.57-28.043.543.704 4.195 4.195 12.995 12.577 14.667 0 5.588 3.351 16.764 16.756 16.764 13.413 0 16.764-11.176 16.764-16.764 3.491-1.394 10.898-6.285 12.57-14.667-5.354 4.693-18.15 10.78-28.058-.528z" fill="#000"/><path d="M66.52 98.48a2.097 2.097 0 100-4.195 2.097 2.097 0 000 4.194zm46.098 0a2.097 2.097 0 110-4.195 2.097 2.097 0 010 4.194z" fill="#fff"/><path d="M77 133.393A1.393 1.393 0 0178.393 132h22.352a1.397 1.397 0 011.394 1.393v6.989a12.573 12.573 0 11-25.146 0v-6.989H77z" fill="#DDBFAE"/><path d="M74.903 85.184c1.393-.697 5.03-3.351 0-8.382-4.188-4.187-14.667-4.187-14.667-2.09 0 1.173 1.32 1.687 2.86 2.288 1.188.462 2.508.983 3.432 1.907.345.344.763.997 1.254 1.76 1.591 2.478 3.923 6.116 7.12 4.517zm29.817 0c-1.393-.697-5.023-3.351 0-8.382 4.195-4.187 14.667-4.187 14.667-2.09 0 1.173-1.32 1.687-2.853 2.288-1.188.462-2.515.983-3.432 1.907a12.156 12.156 0 00-1.261 1.76c-1.584 2.478-3.924 6.116-7.114 4.517h-.007z" fill="#595D57"/><defs><linearGradient id="paint0_linear" x1="88" y1="14.667" x2="88" y2="161.333" gradientUnits="userSpaceOnUse"><stop stop-color="#84D1EE"/><stop offset="1" stop-color="#C282E1"/></linearGradient></defs></svg>