<svg xmlns="http://www.w3.org/2000/svg" width="20" height="20" fill="none"><g clip-path="url(#clip0)"><path d="M18.857.421c-.85-.561-3.793.76-4.968 1.718-3.55-1.411-6.526-.377-7.427.058C3.365.779 1.086-.038.492 1.64c-.594 1.68.249 5.466.9 6.84-1.398 5.159-.85 7.822.811 9.322 1.66 1.507 4.432 1.526 6.629 1.603l3.582-.038c4.674.025 6.922-2.03 7.222-4.125.3-2.101-.287-5.422-1.13-7.759 1.513-3.352 1.2-6.494.351-7.063z" fill="#F7EBD1"/><path d="M1.06 15.192l-.275.102c-.407-1.66.42-5.939.541-6.565l.015-.076.351-.198c.109-.415.421-1.194.421-1.194l.243-1.156L4.182 3.64s.205.006.569-.115c.177-.136.383-.245.588-.354.113-.06.225-.119.331-.182-.951-.626-2.707-1.418-3.774-1.54C.854 1.333.728 2.342.593 3.424L.58 3.52C.377 1.284.868 1.105 1.826.817c.958-.287 3.046.658 4.636 1.386C9.151.996 12.503 1.7 13.89 2.23 16.232.364 18.186.249 18.76.492c.575.242.683 1.762.517 2.164-.204-1.226-.402-1.807-1.38-1.634-.976.172-2.56 1.239-3.294 1.832 0 0 .255.16.447.288.99.549 2.554 2.656 2.554 2.656s.109.403.147.67c.236.486.44 1.003.44 1.003l.595 1.2c.466 1.495.868 4.994.632 5.71-.3-4.394-2.19-8.532-4.157-10.364-.77-.714-1.656-1.13-2.503-1.368-.17.348-1.178.628-2.401.64-1.337.012-2.432-.292-2.44-.686a7.713 7.713 0 00-2.899 1.4c-1.973 1.508-2.676 3.609-3.333 5.69-.658 2.082-.722 4.988-.626 5.499z" fill="#fff"/><path d="M7.992 11.324c-.048.01-.074.017-.074.017s-.594-.134-1.373.53-.402 2.637.02 3.435c.42.799 1.647 2.893 3.429 2.912 1.781.026 3.09-.951 3.965-2.733.869-1.781.415-3.812-1.743-4.253l-.049-.01c-.46-.403-1.056-.776-1.835-.788-1.03-.015-1.734.442-2.34.89z" fill="#fff"/><path d="M17.33 1.75c-.817.428-1.928 1.379-1.928 1.379.703.517 1.858 1.794 2.37 2.867.331-.555.797-1.513.868-3.237.07-1.715-.48-1.434-1.296-1.016l-.013.007zm-14.68.62c-1.309-.708-1.322-.218-1.342.494l-.005.182c-.032.811.345 2.778.785 3.659.428-1.13 1.475-2.554 2.33-3.206 0 0-.35-.364-1.768-1.13zm6.354 13.135c.332-.46.907-.3 1.124-.045.23-.294.67-.262.92-.013.242.249.236.881.14 1.252-.096.37-.256.785-1.118.81-1.296.039-1.398-1.545-1.066-2.005z" fill="#FF6C6C"/><path fill-rule="evenodd" clip-rule="evenodd" d="M18.5 1.29c-.342-.215-.765.002-1.256.254l-.016.008c-.83.428-1.928 1.366-1.973 1.405l-.21.178.223.166c.632.467 1.781 1.699 2.305 2.785l.179.376.21-.357c.352-.594.83-1.584.901-3.34.038-.843-.07-1.284-.364-1.475zm-.078 1.462c-.057 1.348-.357 2.21-.645 2.778-.51-.875-1.36-1.852-2.024-2.407.358-.294 1.099-.875 1.68-1.175.325-.173.702-.364.823-.281.064.038.205.223.166 1.085zM1.405 1.871c.268-.153.67-.064 1.347.3 1.315.713 1.737 1.09 1.813 1.158l.013.01.173.18-.198.153c-.843.645-1.852 2.037-2.26 3.11l-.18.472-.23-.453c-.446-.9-.842-2.919-.81-3.768l.003-.09.003-.089c.013-.415.026-.81.326-.983zm.121 1.188c-.026.657.236 2.133.568 3.078.466-.958 1.246-2.005 1.98-2.638-.23-.166-.683-.479-1.526-.932-.55-.294-.78-.332-.869-.32-.019 0-.038.007-.044.014-.088.05-.096.352-.102.6v.013c0 .028-.002.057-.004.087a1.9 1.9 0 00-.003.098z" fill="#3D006F"/><path d="M4.802 8.857h-.02c-.868.109-1.538.894-1.787 1.584 0 0 .74-.83 1.858-1.016h.013c.587-.064 1.213.358 1.813 1.233 0 0-.153-1.335-1.098-1.705a1.576 1.576 0 00-.78-.096zm9.368.281c.274-.14.58-.224.874-.243.543-.038 1.533.134 2.063 1.654 0 0-.722-1.188-2.024-1.085-.767.063-1.488.69-1.603 1.213 0 0-.364-.996.69-1.54z" fill="#3D006F"/><path fill-rule="evenodd" clip-rule="evenodd" d="M12.363 12.72a.691.691 0 01-.083.684c-.166.21-.44.3-.773.249-.605-.099-.942-.263-1.08-.346l.012-.696c.356-.066.86-.385 1.036-.625.21-.3.013-1.003-1.079-.996-1.098 0-1.57.383-1.239.926.266.435.62.591.9.662l-.013.697c-.18.076-.59.224-.995.222a1.2 1.2 0 01-.447-.08c-.288-.116-.473-.288-.543-.499a.633.633 0 01.057-.523s-.587.172-.421.651c.05.144.146.322.34.484.39.44.666 1.395.762 1.946-.19.357-.216 1.019.06 1.536.243.46.677.708 1.22.69.076 0 .146-.007.21-.014.754-.083.964-.498 1.086-.932.082-.304.11-.786-.017-1.14.038-.412.503-1.309.876-1.686a.905.905 0 00.341-.29c.3-.402-.21-.92-.21-.92zM9.54 15.402h.016a.62.62 0 01.31.09c.115.095.204.906.204.906s.153-.779.281-.887h-.003a.34.34 0 01.22-.07c.12 0 .243.05.332.14a.405.405 0 01.083.14l.03.08c.062.241.054.595-.01.853L11 16.66c-.083.298-.177.638-.937.657-.403.013-.696-.153-.875-.485-.236-.447-.179-1.016-.032-1.22a.466.466 0 01.383-.21z" fill="#3D006F"/><path d="M7.522 11.673s1.245-1.481 2.81-1.424c1.954.064 2.58 1.724 2.58 1.73-.607-.619-1.45-1.334-2.587-1.347-1.213-.013-2.05.505-2.803 1.041z" fill="#3D006F"/><path fill-rule="evenodd" clip-rule="evenodd" d="M17.847.034c.424-.062.862-.055 1.169.148.298.2.502.583.633 1.03.135.46.208 1.04.206 1.698-.005 1.29-.302 2.911-1.04 4.586.83 2.354 1.41 5.655 1.106 7.787-.33 2.298-2.763 4.397-7.506 4.372l-3.593.039-.086-.003-.234-.008c-1.014-.034-2.151-.072-3.235-.259-1.199-.207-2.369-.602-3.257-1.408-1.778-1.607-2.292-4.396-.922-9.51-.33-.738-.686-2-.896-3.284a13.357 13.357 0 01-.189-1.994C-.003 2.6.056 2.01.221 1.545c.173-.49.482-.82.913-.992.415-.165.913-.169 1.452-.079 1.047.174 2.381.725 3.875 1.406 1.052-.472 3.944-1.373 7.38-.068.629-.478 1.612-1.009 2.551-1.37.506-.194 1.012-.344 1.455-.408zm-1.249.945c-.97.372-1.97.928-2.527 1.383l-.131.107-.157-.063c-3.451-1.371-6.34-.363-7.196.05l-.121.058-.123-.056C4.789 1.747 3.479 1.205 2.49 1.041 2 .959 1.621.977 1.346 1.087c-.26.104-.46.3-.583.65-.133.374-.19.887-.185 1.486.005.594.073 1.252.18 1.906.216 1.314.584 2.575.894 3.228l.045.096-.027.102c-1.394 5.14-.805 7.651.726 9.035.772.701 1.819 1.07 2.97 1.268 1.041.18 2.138.216 3.158.25l.311.01 3.58-.038c4.604.026 6.666-1.987 6.937-3.878.29-2.036-.282-5.306-1.116-7.62l-.04-.11.048-.106c.74-1.64 1.032-3.224 1.036-4.458.002-.618-.067-1.14-.182-1.534-.12-.405-.273-.628-.4-.713-.118-.078-.367-.117-.77-.059-.384.056-.846.19-1.33.377z" fill="#3D006F"/><path opacity=".6" d="M10.364 11.303c-.62.012-.907.09-.747.185.16.096.415.108.58.115.186.006.588-.077.729-.134.134-.051.057-.18-.562-.166z" fill="#fff"/></g><defs><clipPath id="clip0"><path fill="#fff" d="M0 0h20v20H0z"/></clipPath></defs></svg>