<svg width="20" height="20" fill="none" xmlns="http://www.w3.org/2000/svg"><path d="M19 16.641A2.358 2.358 0 0116.641 19H3.36A2.358 2.358 0 011 16.641V3.36A2.358 2.358 0 013.359 1H16.64A2.358 2.358 0 0119 3.359V16.64z" fill="#fff"/><path d="M16.207 16.145H10L16.207 10v6.145z" fill="url(#paint0_linear)"/><path d="M16.207 16.145H3.855V3.793l12.352 12.352z" fill="url(#paint1_linear)"/><path opacity=".14" d="M16.207 16.207l-3.104-3.104.56-.496 2.544 3.6z" fill="url(#paint2_linear)"/><defs><linearGradient id="paint0_linear" x1="13.103" y1="9.972" x2="13.103" y2="16.157" gradientUnits="userSpaceOnUse"><stop stop-color="#FF4681"/><stop offset="1" stop-color="#9B44F6"/></linearGradient><linearGradient id="paint1_linear" x1=".913" y1="7.027" x2="13.284" y2="19.398" gradientUnits="userSpaceOnUse"><stop stop-color="#FF4681"/><stop offset=".739" stop-color="#9B44F6"/></linearGradient><linearGradient id="paint2_linear" x1="14.601" y1="13.042" x2="13.73" y2="15.341" gradientUnits="userSpaceOnUse"><stop/><stop offset="1"/></linearGradient></defs></svg>