<svg clip-rule="evenodd" fill-rule="evenodd" stroke-linejoin="round" stroke-miterlimit="1.414" viewBox="0 0 560 400" xmlns="http://www.w3.org/2000/svg"><path d="M180.146 199.827c.002-21.951.192-43.905-.106-65.852-.097-7.228 2.652-12.294 8.228-16.5 22.05-16.631 44.007-33.386 65.997-50.097.624-.474 1.218-.988 1.843-1.46 2.147-1.622 4.427-2.708 7.016-1.053 2.505 1.601 2.844 3.989 2.253 6.719-1.369 6.314-2.64 12.648-3.997 18.964-7.486 34.838-15.036 69.663-22.39 104.528-.665 3.152-.687 6.687-.02 9.834 8.164 38.496 16.515 76.953 24.804 115.423.618 2.87 1.138 5.76 1.702 8.641.492 2.516-.01 4.7-2.242 6.205-2.304 1.552-4.517.917-6.543-.568a874.417 874.417 0 01-13.659-10.189c-17.906-13.667-35.693-27.493-53.735-40.978-6.326-4.728-9.447-10.185-9.292-18.353.412-21.748.14-43.508.141-65.264zm91.887 3.868a4518.023 4518.023 0 0017.828 10.262c26.001 14.904 52.049 29.727 77.98 44.753 6.979 4.044 12.28 3.953 12.157-7.147-.385-34.292-.14-68.592-.144-102.889 0-1.567.084-3.15-.1-4.698-.483-4.067-3.094-5.97-6.963-4.796-2.217.672-4.297 1.894-6.331 3.057a80558.187 80558.187 0 00-83.641 47.883c-5.236 3-10.442 6.052-16.912 9.805 2.876 1.775 4.477 2.814 6.126 3.77zm-10.17 21.033a48042.587 48042.587 0 0017.508 82.013c2.13 9.932 4.276 19.862 6.579 29.754 1.357 5.83 4.928 7.127 9.89 3.846.816-.538 1.599-1.129 2.376-1.722 7.774-5.93 15.541-11.87 23.316-17.8 13.685-10.438 27.412-20.823 41.045-31.328 6.68-5.148 6.289-8.998-1.087-13.266-5.078-2.938-10.138-5.907-15.226-8.827a56382.667 56382.667 0 00-59.558-34.138c-8.116-4.644-16.263-9.235-25.608-14.537.373 2.997.45 4.526.765 6.005zm.366-44.21c1.726-.864 3.5-1.645 5.172-2.605 23.949-13.76 47.879-27.55 71.823-41.318 7.641-4.394 15.355-8.663 22.95-13.136 6.402-3.771 6.716-7.647 1.07-12.274-3.027-2.482-6.246-4.729-9.358-7.108-18.983-14.513-37.926-29.08-56.96-43.527-6.037-4.583-9.469-3.243-11.189 4.072-1.477 6.283-2.954 12.568-4.305 18.879-5.413 25.266-10.78 50.542-16.155 75.817-1.453 6.83-2.871 13.67-4.305 20.504l1.257.697z" fill="#31cb9d" fill-rule="nonzero"/></svg>