<svg width="1012" height="1012" fill="none" xmlns="http://www.w3.org/2000/svg"><path d="M84.333 500.307c0 228.501 185.239 413.739 413.74 413.739s413.739-185.238 413.739-413.739c0-228.544-185.238-413.74-413.739-413.74-228.544 0-413.74 185.239-413.74 413.74z" fill="#F04832"/><mask id="a" style="mask-type:alpha" maskUnits="userSpaceOnUse" x="84" y="86" width="828" height="829"><path d="M84.333 500.307c0 228.501 185.239 413.739 413.74 413.739s413.739-185.238 413.739-413.739c0-228.544-185.238-413.74-413.739-413.74-228.544 0-413.74 185.239-413.74 413.74z" fill="#C4C4C4"/></mask><g mask="url(#a)"><path d="M408.3 757.06v172.714c.126.422-45.118-.379-44.697 0l-2.361-172.714a4.983 4.983 0 003.921 1.897h39.215a4.983 4.983 0 003.922-1.897z" fill="red"/><path d="M408.3 757.06v172.714c.126.422-45.118-.379-44.697 0l-2.361-172.714a4.983 4.983 0 003.921 1.897h39.215a4.983 4.983 0 003.922-1.897v0z" stroke="#000" stroke-width=".2" stroke-miterlimit="10"/><path d="M647.427 658.854l2.361 270.921c0-.38-49.04.422-49.377 0V658.854c3.711 3.753 8.855 6.03 14.505 6.03h17.963a20.484 20.484 0 0014.548-6.03z" fill="red"/><path d="M647.427 658.854l2.361 270.921c0-.38-49.04.422-49.377 0V658.854c3.711 3.753 8.855 6.03 14.505 6.03h17.963a20.484 20.484 0 0014.548-6.03v0z" stroke="#000" stroke-width=".2" stroke-miterlimit="10"/><path d="M492.549 315.997c0 37.064-18.638 161.877-47.1 250.891h-42.968c26.902-57.22 46.594-225.043 46.594-254.391 0-35.547-28.8-69.027-64.304-69.027-35.504 0-64.304 33.48-64.304 69.027 0 29.348 19.692 197.171 46.594 254.391h-43.01c-28.42-89.014-47.1-213.827-47.1-250.891 0-59.54 48.281-115.621 107.82-115.621 59.539 0 107.736 56.081 107.736 115.621h.042z" fill="red"/><path d="M492.549 315.997c0 37.064-18.638 161.877-47.1 250.891h-42.968c26.902-57.22 46.594-225.043 46.594-254.391 0-35.547-28.8-69.027-64.304-69.027-35.504 0-64.304 33.48-64.304 69.027 0 29.348 19.692 197.171 46.594 254.391h-43.01c-28.42-89.014-47.1-213.827-47.1-250.891 0-59.54 48.281-115.621 107.82-115.621 59.539 0 107.736 56.081 107.736 115.621h.042z" stroke="#000" stroke-width=".2" stroke-miterlimit="10"/><path d="M709.876 281.8a82.22 82.22 0 01-30.782 71.219 26.995 26.995 0 00-8.054 11.09c-1.771 4.428-1.897 8.644-2.108 13.24a44.944 44.944 0 01-20.535 35.294 6.7 6.7 0 00-2.952 5.65v10.71h-43.094v-10.71a6.652 6.652 0 00-2.952-5.65 44.998 44.998 0 01-20.577-37.824c0-3.753.422-7.084 1.265-10.035a27.198 27.198 0 019.698-14.337c10.373-7.801 23.192-8.475 35.42-10.373 10.458-1.602 20.409-3.669 29.517-9.319a51.864 51.864 0 0021.168-25.511c1.939-5.355 2.909-11.047 2.909-16.74a51.4 51.4 0 00-46.72-50.726 50.804 50.804 0 00-46.974 23.023 4.852 4.852 0 01-4.048 2.277h-24.583a4.813 4.813 0 01-3.997-2.147 4.803 4.803 0 01-.431-4.516 82.309 82.309 0 01157.83 25.385z" fill="#FFC300"/><path d="M709.876 281.8a82.22 82.22 0 01-30.782 71.219 26.995 26.995 0 00-8.054 11.09c-1.771 4.428-1.897 8.644-2.108 13.24a44.944 44.944 0 01-20.535 35.294 6.7 6.7 0 00-2.952 5.65v10.71h-43.094v-10.71a6.652 6.652 0 00-2.952-5.65 44.998 44.998 0 01-20.577-37.824c0-3.753.422-7.084 1.265-10.035a27.198 27.198 0 019.698-14.337c10.373-7.801 23.192-8.475 35.42-10.373 10.458-1.602 20.409-3.669 29.517-9.319a51.864 51.864 0 0021.168-25.511c1.939-5.355 2.909-11.047 2.909-16.74a51.4 51.4 0 00-46.72-50.726 50.804 50.804 0 00-46.974 23.023 4.852 4.852 0 01-4.048 2.277h-24.583a4.813 4.813 0 01-3.997-2.147 4.803 4.803 0 01-.431-4.516 82.309 82.309 0 01157.83 25.385v0z" stroke="#000" stroke-width=".2" stroke-miterlimit="10"/><path d="M678.757 529.613c0 19.439-10.795 55.407-26.987 77.418a20.407 20.407 0 00-18.89-12.692h-17.963a20.37 20.37 0 00-18.891 12.692c-16.192-22.011-26.987-57.979-26.987-77.376 0-20.367 11.933-41.872 29.433-53.046a2.527 2.527 0 012.526-.051 2.528 2.528 0 011.311 2.16v49.25c0 11.259 8.265 18.132 19.481 19.228 12.861 1.223 23.655-5.692 23.655-18.3v-50.178c0-2.024 2.193-3.163 3.838-2.109 17.541 11.174 29.516 32.679 29.516 53.046l-.042-.042z" fill="red"/><path d="M678.757 529.613c0 19.439-10.795 55.407-26.987 77.418a20.407 20.407 0 00-18.89-12.692h-17.963a20.37 20.37 0 00-18.891 12.692c-16.192-22.011-26.987-57.979-26.987-77.376 0-20.367 11.933-41.872 29.433-53.046a2.527 2.527 0 012.526-.051 2.528 2.528 0 011.311 2.16v49.25c0 11.259 8.265 18.132 19.481 19.228 12.861 1.223 23.655-5.692 23.655-18.3v-50.178c0-2.024 2.193-3.163 3.838-2.109 17.541 11.174 29.516 32.679 29.516 53.046l-.042-.042z" stroke="#000" stroke-width=".2" stroke-miterlimit="10"/><path d="M645.445 428.961v99.935c0 11.891-9.614 18.384-21.547 18.384s-21.547-6.493-21.547-18.426v-99.893h43.094z" fill="#FFC300"/><path d="M645.445 428.961v99.935c0 11.891-9.614 18.384-21.547 18.384s-21.547-6.493-21.547-18.426v-99.893h43.094v0z" stroke="#000" stroke-width=".2" stroke-miterlimit="10"/><path d="M613.61 339.104a1.945 1.945 0 01-.473 2.583 1.932 1.932 0 01-.877.369c-3.668.548-7.168 1.307-10.373 2.319a36.442 36.442 0 00-12.102 6.03l-31.962-60.804a4.808 4.808 0 01-.548-2.235v-5.693a4.778 4.778 0 014.807-4.807h12.819a3.367 3.367 0 011.703.445c.519.296.95.725 1.248 1.242l33.481 56.967 1.012 1.602 1.265 2.024v-.042z" fill="#FFC300"/><path d="M613.61 339.104a1.945 1.945 0 01-.473 2.583 1.932 1.932 0 01-.877.369c-3.668.548-7.168 1.307-10.373 2.319a36.442 36.442 0 00-12.102 6.03l-31.962-60.804a4.808 4.808 0 01-.548-2.235v-5.693a4.778 4.778 0 014.807-4.807h12.819a3.367 3.367 0 011.703.445c.519.296.95.725 1.248 1.242l33.481 56.967 1.012 1.602 1.265 2.024v-.042z" stroke="#000" stroke-width=".2" stroke-miterlimit="10"/><path d="M322.533 566.888a4.934 4.934 0 00-4.976 4.217c-.422 3.373-.337 13.493.38 17.077l42.377 166.98c.164.694.481 1.343.928 1.898a4.974 4.974 0 003.921 1.897h19.608V566.888h-62.238z" fill="#ADADAD"/><path d="M451.942 571.063a4.933 4.933 0 00-4.933-4.175h-62.238v192.069h19.607a4.974 4.974 0 003.922-1.897 4.73 4.73 0 00.927-1.898l42.378-166.98c.717-3.584.843-13.704.337-17.077v-.042z" fill="#CCC"/><path d="M451.605 588.225l-42.377 166.98a4.773 4.773 0 01-.928 1.855 4.983 4.983 0 01-3.922 1.898h-39.215a4.97 4.97 0 01-3.921-1.898 4.774 4.774 0 01-.928-1.897l-42.377-166.938a83.263 83.263 0 01-.38-17.078 4.93 4.93 0 014.976-4.216h124.434c2.488 0 4.638 1.771 4.933 4.216.464 3.374.38 13.494-.337 17.078h.042z" stroke="#000" stroke-width=".2" stroke-miterlimit="10"/><path d="M614.917 594.339a20.405 20.405 0 00-14.431 5.978 20.405 20.405 0 00-5.978 14.431v29.727a20.496 20.496 0 0020.409 20.409h8.981v-70.545h-8.981z" fill="#ADADAD"/><path d="M651.77 607.031a20.403 20.403 0 00-18.932-12.692h-8.94v70.545h8.982a20.492 20.492 0 0020.408-20.409v-29.727a20.223 20.223 0 00-1.518-7.717z" fill="#CCC"/><path d="M653.288 614.79v29.685a20.45 20.45 0 01-20.408 20.409h-17.963a20.496 20.496 0 01-20.409-20.409v-29.727c0-5.413 2.15-10.604 5.978-14.431a20.405 20.405 0 0114.431-5.978h17.963a20.409 20.409 0 0120.408 20.409v.042z" stroke="#000" stroke-width=".2" stroke-miterlimit="10"/></g></svg>