<svg data-name="Layer 1" xmlns="http://www.w3.org/2000/svg" viewBox="0 0 368.47 372.75"><path d="M47.13 179.41a19.82 19.82 0 11-19.82-19.81 19.82 19.82 0 0119.82 19.81m314.91 0a19.82 19.82 0 11-19.81-19.81A19.82 19.82 0 01362 179.41M204.59 257.6a19.82 19.82 0 11-19.81-19.81 19.82 19.82 0 0119.81 19.81M125.32 219a19.82 19.82 0 11-19.82-19.82A19.82 19.82 0 01125.32 219m157.46 0A19.82 19.82 0 11263 199.23 19.82 19.82 0 01282.78 219M40.7 239.4A13.39 13.39 0 1127.32 226a13.39 13.39 0 0113.38 13.4m314.91 0a13.39 13.39 0 11-13.38-13.4 13.4 13.4 0 0113.39 13.39m-157.46 79.26a13.39 13.39 0 11-13.38-13.38 13.4 13.4 0 0113.38 13.38M118.9 279a13.39 13.39 0 11-13.38-13.39A13.38 13.38 0 01118.9 279m157.46 0A13.39 13.39 0 11263 265.64 13.39 13.39 0 01276.35 279m-242.07 7.52a7 7 0 11-7-7 7 7 0 017 7m314.91 0a7 7 0 11-7-7 7 7 0 017 7m-157.46 79.27a7 7 0 11-7-7 7 7 0 017 7m-79.26-39.63a7 7 0 11-7-7 7 7 0 017 7m157.46 0a7 7 0 11-7-7 7 7 0 017 7M211 26.78A26.78 26.78 0 11184.24 0 26.78 26.78 0 01211 26.78m0 79.22a26.78 26.78 0 11-26.77-26.78A26.78 26.78 0 01211 106m0 78.2a26.78 26.78 0 11-26.77-26.78A26.78 26.78 0 01211 184.24M368.47 106a26.78 26.78 0 11-26.78-26.78A26.78 26.78 0 01368.47 106m-314.91 0a26.78 26.78 0 11-26.78-26.74A26.78 26.78 0 0153.56 106m79.26-39.63A26.78 26.78 0 11106 39.63a26.78 26.78 0 0126.78 26.78m0 78.19A26.78 26.78 0 11106 117.82a26.78 26.78 0 0126.78 26.78m157.5-78.19a26.78 26.78 0 11-26.78-26.78 26.78 26.78 0 0126.78 26.78m0 78.19a26.78 26.78 0 11-26.78-26.78 26.78 26.78 0 0126.78 26.78" fill="#141414"/></svg>