<svg width="58" height="52" fill="none" xmlns="http://www.w3.org/2000/svg"><path d="M54.406 44.5a2.89 2.89 0 00-1.036.194c-.326.136-.633.312-.863.526l-5.2-4.579 3.991-12.547h.134c.518 0 .998-.194 1.4-.584.404-.39.595-.896.595-1.5 0-.565-.21-1.072-.594-1.481-.422-.39-.883-.584-1.4-.584h-.135l-3.492-10.97c.27-.155.5-.409.691-.72.154-.273.25-.624.269-1.013 0-.565-.211-1.072-.595-1.481a1.953 1.953 0 00-1.458-.604c-.25.02-.48.058-.71.136-.23.078-.441.215-.595.37l-9.227-6.799c.038-.117.077-.234.134-.35 0-.118.02-.254.02-.43 0-.564-.212-1.07-.595-1.48-.422-.41-.883-.604-1.4-.604-.5.039-.922.175-1.286.448-.384.292-.633.682-.71 1.13H21.141c-.096-.409-.346-.78-.71-1.11A1.876 1.876 0 0019.184 0c-.576 0-1.074.214-1.458.604-.403.41-.595.896-.595 1.48 0 .157 0 .293.039.43.038.136.057.253.096.35l-9.228 6.8a2.388 2.388 0 00-.575-.37 3.018 3.018 0 00-.73-.137c-.575 0-1.074.214-1.457.604-.403.41-.595.896-.595 1.48 0 .39.096.741.268 1.014.154.311.403.545.691.72h.038L2.187 23.887h-.134c-.576 0-1.075.214-1.458.604-.403.41-.595.896-.595 1.48 0 .585.192 1.092.595 1.482.383.409.863.603 1.458.603h.096l3.549 11.008a1.87 1.87 0 00-.73.721 1.994 1.994 0 00-.268 1.013c0 .585.192 1.091.595 1.481.383.41.863.604 1.458.604.25 0 .48-.039.729-.136.192-.078.383-.176.575-.332l9.228 6.742c-.039.136-.077.253-.096.37-.038.136-.038.272-.038.39 0 .584.191 1.07.594 1.48.384.41.863.604 1.458.604.441 0 .864-.156 1.247-.448.365-.273.614-.643.71-1.13h11.203c.077.487.307.877.71 1.13.365.292.787.448 1.285.448.519 0 .998-.214 1.401-.604s.595-.896.595-1.48c0-.137 0-.254-.02-.39a4.565 4.565 0 00-.134-.37l10.532-7.716 5.16 4.52c-.134.215-.249.448-.306.721a2.506 2.506 0 00-.096.818c-.02.838.268 1.52.863 2.105.556.584 1.266.876 2.091.876.806 0 1.496-.292 2.072-.876.556-.585.863-1.267.863-2.105a3.185 3.185 0 00-.863-2.143c-.614-.565-1.304-.857-2.11-.857zm-7.348-30.59l3.3 10.385c-.23.137-.422.312-.556.526a1.686 1.686 0 00-.327.702h-1.688a1.823 1.823 0 00-.48-.916 3.082 3.082 0 00-.863-.584l.614-10.112zm-.959-.681l-.71 10.716h-.057l-.077.038-4.201-8.104c.21-.156.383-.37.518-.682.115-.254.172-.546.191-.857 0 0 0-.059-.019-.156-.038-.059-.038-.137-.019-.215l3.396-1.48c.115.155.25.292.46.428a.734.734 0 00.499.254l.02.058zM34.666 24.003c-.039.02-.077 0-.154-.02-.077 0-.154-.019-.211-.019-.096 0-.192 0-.288.02a.856.856 0 01-.307.058l-5.582-9.878c.096-.078.192-.195.268-.331.077-.117.154-.253.23-.37l9.055 1.15c0 .292.096.545.25.74.115.233.288.428.498.584l-3.76 8.066zm4.642-7.618c.038 0 .115 0 .211.02.038.039.096.039.192.02.077.019.153 0 .23-.02.077 0 .153-.04.269-.078l4.2 8.144a1.872 1.872 0 00-.402.487c-.134.175-.192.37-.211.565h-7.54c-.076-.195-.172-.39-.249-.565a3.182 3.182 0 00-.422-.487l3.722-8.086zm-6.446 8.163c-.134.137-.25.293-.307.449a7.06 7.06 0 00-.23.526H21.122a1.266 1.266 0 00-.212-.526c-.115-.156-.23-.293-.326-.448l5.621-9.878c.077 0 .154 0 .23.02.077.038.173.038.288.019.096.02.192 0 .269-.02.077 0 .153-.02.268-.02l5.602 9.879zm-13.122-.506c-.134 0-.23-.039-.287-.059-.077 0-.173-.019-.269-.019-.077 0-.154 0-.211.02-.077.038-.153.038-.192.019l-3.74-8.066c.191-.156.364-.35.498-.584.115-.195.192-.448.25-.74l9.054-1.228c.077.195.154.35.23.448a.758.758 0 00.269.331l-5.602 9.878zm-1.86.429c-.173.136-.327.272-.423.448-.134.194-.21.409-.23.604h-7.5c-.077-.176-.173-.37-.25-.546a3.096 3.096 0 00-.422-.467l4.201-8.105c.077 0 .154 0 .23.02.077.038.154.038.269.019.057.02.134 0 .21-.02.059 0 .135-.02.212-.02l3.703 8.067zm-8.154 2.065h7.425c.057.234.153.448.287.604.096.175.23.331.422.448l-3.74 8.085h-.634l-.23.059-4.201-8.183c.153-.117.307-.273.422-.468.096-.156.173-.35.25-.545zm9.055 1.52c.039 0 .096 0 .192.019a.203.203 0 00.211.02c.096.038.192.019.288-.02.096 0 .192-.039.268-.058l5.583 9.838a1.072 1.072 0 00-.269.351 2.287 2.287 0 01-.23.39l-9.055-1.15a3.738 3.738 0 00-.25-.74 2.86 2.86 0 00-.498-.585l3.76-8.066zm1.803-.546c.116-.117.211-.273.326-.448.116-.156.173-.331.212-.526h11.203c0 .195.077.37.211.526.096.175.211.312.326.448l-5.582 9.839a.544.544 0 01-.25-.02c-.096-.039-.192-.039-.288-.039-.134 0-.23.02-.287.04a.604.604 0 01-.269.058v-.04l-5.602-9.838zm13.122.506a.936.936 0 00.288.059.313.313 0 00.269.02c.076.038.172.019.249-.02.057 0 .134-.02.211-.02h-.057l3.74 8.066c-.191.176-.364.39-.48.585a1.726 1.726 0 00-.21.74l-9.113 1.15a1.151 1.151 0 01-.192-.41c-.076-.116-.172-.233-.249-.35l5.544-9.82zm1.861-.428a1.88 1.88 0 00.422-.448c.115-.156.211-.37.288-.604h7.54c.076.195.153.39.249.545a.828.828 0 00.422.429l-4.297 8.222c-.077-.04-.154-.04-.23-.059h-.633l-3.76-8.085zm.038-23.906l9.19 6.82a1.152 1.152 0 00-.077.35 1.74 1.74 0 00-.058.41c-.019.077 0 .136.02.175.038.058.038.116.038.194v-.058l-3.415 1.539a2.914 2.914 0 00-.69-.585 1.887 1.887 0 00-.902-.233h-.192c-.096.02-.173.039-.211.058h.038L35.567 3.78v-.02c0-.039.02-.058.038-.078zm-2.09.37c.114.059.23.098.364.098.115.039.23.039.364.039.058.039.135.02.211-.02.039 0 .096-.02.192-.02l3.818 8.573a1.25 1.25 0 00-.403.37 1.735 1.735 0 00-.269.488L28.7 12.352a1.89 1.89 0 00-.134-.545 2.697 2.697 0 00-.269-.468l5.218-7.287zM21.121 2.65h11.203c0 .136.058.272.153.409.077.156.154.292.25.409l-5.295 7.248c-.096 0-.21-.04-.307-.059-.134 0-.268-.02-.364-.02-.154 0-.288 0-.422.02-.135.04-.25.078-.346.137v-.059l-5.237-7.248c.077-.116.173-.233.25-.37.038-.136.076-.272.115-.467zm-1.938 1.539c.115 0 .23 0 .403-.04.115 0 .23-.038.345-.097l5.257 7.307c-.135.136-.25.292-.307.467-.077.175-.135.37-.154.546l-9.093 1.227c-.077-.156-.173-.331-.25-.487a7.188 7.188 0 00-.345-.37l3.78-8.573s.057 0 .153.02a.26.26 0 00.211 0zm-1.305-.507v.04c0 .038.02.038.058.019l-3.818 8.572c-.076-.039-.134-.039-.172-.058h-.192c-.345 0-.652.078-.902.234-.287.175-.518.37-.69.584l-3.453-1.54c.019 0 .038-.057.057-.155v-.195c-.02-.117-.038-.253-.057-.409-.039-.117-.077-.214-.077-.312l9.247-6.78zm-9.553 8.845l3.453 1.481a.514.514 0 00-.058.215v.214c-.019.292.039.545.192.799.115.292.288.526.518.682L8.23 24.023h-.096l-.748-10.814c.192-.058.384-.155.556-.292.154-.136.288-.253.384-.39zm-1.9 25.62L3.09 27.764a1.59 1.59 0 00.556-.526c.134-.175.25-.409.326-.701h1.803c.096.331.25.643.5.877.21.272.479.467.805.584h.038l-.69 10.15zm-.652-12.644H3.971a1.977 1.977 0 00-.288-.74 4.489 4.489 0 00-.556-.526l3.3-10.346.71 10.132a2.27 2.27 0 00-.845.584c-.249.292-.422.585-.518.896zm1.612 13.365l.748-10.813h.096l4.201 8.105c-.23.195-.403.429-.518.682-.134.293-.21.565-.192.858v.175c0 .058.02.117.058.195l-3.453 1.48a4.407 4.407 0 00-.422-.428c-.154-.078-.326-.176-.518-.254zm10.494 9.489l-9.228-6.741c0-.117.038-.234.077-.351a7.94 7.94 0 00.057-.429v-.195a3.216 3.216 0 01-.057-.214v.059l3.415-1.54c.172.234.402.429.69.585.269.156.576.234.902.234h.21a.62.62 0 00.193-.059l3.817 8.573-.076.078zm2.033-.351a.773.773 0 01-.345-.097c-.154 0-.288-.04-.403-.04-.077 0-.154 0-.211.02-.077.04-.154.04-.192.02h.038l-3.779-8.573a2.14 2.14 0 00.345-.37c.077-.136.173-.292.25-.487h.038l9.055 1.15c0 .214.058.409.153.564.077.176.173.351.307.507l-.901 1.227-4.355 6.079zm12.412 1.403H21.122c-.039-.117-.077-.253-.154-.429-.077-.156-.173-.273-.25-.37l5.238-7.365c.115.078.23.137.345.137.115.039.25.039.422.02.115.019.23 0 .403-.02.115 0 .23-.04.403-.137h-.038l5.237 7.365c-.096.156-.173.292-.25.39a1.227 1.227 0 00-.153.409zm2.34-1.5a.294.294 0 01-.191-.02c-.077 0-.154-.02-.211-.02a2.91 2.91 0 01-.365.04 1.018 1.018 0 01-.364.097L28.277 40.7c.115-.156.23-.312.326-.507.077-.155.115-.35.135-.565l9.093-1.15c.077.176.153.352.268.468.096.156.211.293.327.41l-3.645 8.26-.115.293zm.94.448h-.038v-.059l.096-.253 3.683-8.32c0 .04.077.06.173.06h.192c.307 0 .614-.079.901-.215.25-.117.48-.292.691-.565v-.04l4.412 1.93-10.11 7.462zm6.12-10.287a.325.325 0 01.02-.195c0-.04.019-.078.019-.175a2.327 2.327 0 00-.192-.838 3 3 0 00-.518-.702l4.259-8.163h.077l.767 12.021-4.432-1.948zm4.7-10.112c.307-.117.595-.292.844-.545.211-.215.346-.507.442-.858h1.764c.077.293.173.507.327.702.134.233.326.409.556.526l-3.3 10.384-.633-10.209z" fill="#2E9AD0"/></svg>