<svg version="1.0" xmlns="http://www.w3.org/2000/svg" viewBox="110.5 57.1 348.92 238.57"><path d="M253.4 58c-1.2.5-2.6 2.2-3.2 3.9-.6 1.7-1.6 3.1-2.1 3.1-.6 0-2.1 1.9-3.5 4.2-2.7 4.8-7.1 29.4-6 33.8 1.2 4.4 4.3 7 8.6 7 5.3 0 6.9-1 11.3-7.5 2.1-3 4.1-5.5 4.4-5.5.3 0 1.4 2 2.4 4.5 2 4.7 6 8.7 11.4 11.3 4.8 2.3 4.3 4.2-1.2 4.2H271v12h28v-5.4c0-4.9-.2-5.5-2.2-5.8-3.8-.5-3.2-3.4 1.6-8 3.4-3.4 4.7-5.4 5.2-8.6.9-5.8 3.3-5.6 7.4.8 1.8 2.8 4.2 5.7 5.3 6.5 3 2.1 10 1.9 12-.3 3.5-3.9 3.8-6.7 1.7-20-2.5-15.5-3.3-18.2-6.6-21.3-1.4-1.3-3.2-3.8-3.9-5.6-1.6-3.9-6.7-5.3-11.1-3.1-2.6 1.2-5.3 5.8-3.4 5.8.5 0 1-1 1.2-2.2.4-2.5 4.7-4.3 8.4-3.4 1.4.4 3 1.9 3.7 3.4.6 1.5 2 3.3 2.9 4 3.3 2.4 5.5 8.6 7.3 20.2 2.9 19 1.9 23-5.9 23-3.8 0-4.8-.5-7.9-3.9-2-2.2-4.3-5.4-5.2-7-1-2.1-2.3-3.1-3.8-3.1-1.7 0-3.1-1.3-5.2-5-3.3-5.6-4.7-6.3-12.5-5.8-4.5.2-5.5.7-5.8 2.2-.5 2.7 2.4 4.6 6.9 4.6 3.2 0 4.9 1.2 4.9 3.6 0 .2-7.2.4-15.9.4h-15.9l-3.1 4.8c-4.9 7.7-7.2 9.4-12.2 9-3.9-.3-4.6-.7-6.2-4-1.7-3.5-1.7-4 .6-18.2 2-12.1 2.9-15.2 5.1-18.1 1.5-1.9 3.1-3.5 3.7-3.5.5 0 .9-.8.9-1.9 0-2.2 1.9-3.9 5.7-5.1 1.9-.6 2.2-.8.8-.9-1.1 0-3 .4-4.1.9zm34.4 42.9c-1.8 2.2-3.4 3.8-3.6 3.6-.2-.2.1-2 .8-3.9.9-2.8 1.7-3.6 3.6-3.6h2.5l-3.3 3.9z"/><path d="M261.8 59.6c1.2.8 2.2 2.2 2.2 3 0 .8.4 1.4 1 1.4 1 0 .3-2.7-1.3-4.8-.5-.6-1.7-1.2-2.5-1.2-1.2 0-1.1.4.6 1.6zM287.7 58.6c-.4.4-.7 3.1-.7 5.9 0 5.6 1.5 8 4.4 6.9 1.4-.5 1.6-1.8 1.4-6.8-.3-5.3-.6-6.1-2.3-6.4-1.2-.2-2.4 0-2.8.4zM278.2 60.2c-1.7 1.7-1.5 9.3.2 10.7 1.1.9 2 1 3.5.1 3.7-1.9 2.5-12-1.4-12-.6 0-1.6.5-2.3 1.2zM296.6 61.5c-1.1 3.1-.6 8.2 1 9.6 2.8 2.3 4.9-.1 4.9-5.7 0-4.5-.2-4.9-2.6-5.2-1.7-.2-2.9.3-3.3 1.3zM268 63c-1.4 2.6-.4 7.6 1.7 8.4 2.7 1.1 4.4-1.4 4.1-5.8-.2-3.3-.7-4.2-2.5-4.4-1.4-.2-2.6.4-3.3 1.8zM256 75.5c0 2-.5 2.5-2.6 2.5-3.3 0-3 3.3.4 3.8 1.4.2 2.2 1 2.2 2.3 0 1.2.7 1.9 2 1.9s2-.7 2-2 .7-2 1.9-2c1.9 0 3.5-2.3 2.4-3.4-.4-.3-1.5-.6-2.5-.6-1.3 0-1.8-.7-1.8-2.5s-.5-2.5-2-2.5-2 .7-2 2.5zM311 75c0 1.5.5 2 1.8 1.8.9-.2 1.7-1 1.7-1.8s-.8-1.6-1.7-1.8c-1.3-.2-1.8.3-1.8 1.8zM306 80c0 1.5.5 2 1.8 1.8.9-.2 1.7-1 1.7-1.8s-.8-1.6-1.7-1.8c-1.3-.2-1.8.3-1.8 1.8zM316 80c0 1.5.5 2 1.8 1.8.9-.2 1.7-1 1.7-1.8s-.8-1.6-1.7-1.8c-1.3-.2-1.8.3-1.8 1.8zM311 85c0 1.5.5 2 1.8 1.8.9-.2 1.7-1 1.7-1.8s-.8-1.6-1.7-1.8c-1.3-.2-1.8.3-1.8 1.8zM130.5 150.1c-3.8.4-9.9 1-13.5 1.4l-6.5.6V246.8l8 .5c4.4.2 8.3.3 8.8 0 .4-.2.7-7.8.7-16.9V214l3.9 2c4.2 2.1 11.2 8.2 25.6 22.1l9 8.7 12.5.3c22.5.5 19.6 1.7 28.6-11.9 9.4-14.3 19.4-27.3 20.4-26.7 1.2.7 14 19.9 19.8 29.6l5.2 8.6 10.2.6c5.6.4 10.4.4 10.6.2.3-.2-3.6-5.7-8.5-12.2-8.4-11-23.5-33-26.2-38-1-2.1-.3-3.5 8-15 5.1-7.1 12.3-16.8 16.2-21.7 5.3-6.8 6.6-9 5.6-9.7-.8-.5-2-.7-2.7-.4-.8.3-3.3.5-5.7.5h-4.4L245 167.4c-6.1 9.1-11.7 17-12.5 17.6-1 .8-2.5-.7-6.8-7.4-3.1-4.6-7.9-12.5-10.7-17.5l-5.2-9.1h-4.3c-2.3 0-7-.3-10.4-.6-4.2-.5-6.1-.3-6.1.4s3.5 5.8 7.9 11.5c7.3 9.7 16.3 22.7 22.4 32.4l2.6 4.2-16 21.3c-8.9 11.7-16.9 22.1-17.8 23.1-1.6 1.7-2.4 1.1-15.2-11.6-11.4-11.4-14.3-13.7-19.2-15.5-3.2-1.2-7-2.2-8.5-2.3-1.5-.1-3.8-.5-5.2-.9-2.3-.7-2.2-.8 1-.9 2-.1 6.3-.8 9.5-1.6 18.2-4.8 30-15.9 31.2-29.4.8-8.8-1.1-15.2-6.3-21-8.5-9.4-22.6-12.6-44.9-10zm17 6c9.5 2.6 14.6 9.8 15.3 22 .6 9.6-1.5 17.2-6 21.7-5.3 5.5-8.3 6.6-19.5 7l-10.3.4v-7.4c0-4.1.3-15.6.7-25.6.5-15.4.9-18.2 2.2-18.5 3.3-.9 13.7-.7 17.6.4zM314.8 150.6c-8 1.9-13.3 4.8-19.4 10.5-18.5 17.6-19.2 55.7-1.3 75.3 12.6 13.8 32.9 17.4 52.1 9.3 8.8-3.7 16.6-14.1 18.3-24.3l.6-4.2-7.3-1.1c-4-.7-8.3-1.3-9.5-1.5-2.9-.4-3.6 1.7-1.2 3.7 3.9 3.4 1.5 14-4.3 19.4-3.8 3.5-10.9 6.3-16.3 6.3-17.7 0-26.7-18.1-25.2-50.4 1.1-24.5 8.8-36.9 23.6-38.4 12.1-1.1 24.1 7.3 24.1 16.9 0 4-1.7 8.9-3.2 8.9-.4 0-.8.5-.8 1.1 0 .8 1.9.9 6.3.5 11.9-1.4 12-1.4 11.4-5.3-.9-5.4-5.2-13.7-9.1-17.6-9-9.1-24.3-12.7-38.8-9.1zM409.8 150.6c-8.2 1.9-13.4 4.9-19.3 10.8-5.5 5.5-10.4 14.5-12.4 23-1.7 6.9-1.4 22.9.4 30.1 8 30.8 39.3 44.7 65.8 29.2 9.7-5.7 15-15 15.1-26.2.1-5.9-.3-7.7-2.7-11.7-1.5-2.6-3.6-5.2-4.7-5.8-2.1-1.1-10.1-1.3-14.7-.4l-3 .6 2.8 2.7c3.7 3.8 5.2 9.8 4.7 20-.6 14.6-5.2 20.3-16.8 20.9-5.6.3-7.2 0-12-2.5-9.6-5-14-14-16.2-32.5-2-17.7 1.3-36.1 8.1-45.5 7.7-10.7 26.4-10.8 32.6-.3 1.5 2.7 2 5.2 1.9 11.2-.1 8.9-1 8.3 10.6 6.5 7.5-1.2 7.5-1.2 7.2-4.2-.5-4.8-4.6-12.7-8.8-16.8-9.3-9.2-24-12.7-38.6-9.1zM198.3 270.7l-3.3.4v12c0 11.2.1 11.9 2 11.9 1.7 0 2-.7 2-4 0-2.2.5-4 1-4 .6 0 3 1.8 5.4 4 2.5 2.3 5.3 4 6.7 4 2.2 0 2.2-.1-1.1-3.5-1.9-2-4.5-3.8-5.9-4.2-2.3-.6-2.2-.6 1-2 1.8-.8 4.1-2.1 5.1-3 2.3-2.1 2.3-7.5 0-9.6-1.9-1.8-7.9-2.7-12.9-2zm9.3 3.8c1.1 1.6 1.4 3.4.9 5.5-.7 3.3-3 5-6.9 5-2.5 0-2.6-.2-2.6-6.5V272h3.5c2.6 0 3.9.6 5.1 2.5zM216 270.8c0 .4 1.8 3.2 4 6.3l4 5.7-3.8 4.9c-5.2 6.6-5.6 7.3-3.9 7.3.9 0 3.2-2.3 5.2-5.2l3.7-5.2 3.2 5.2c2.3 3.8 3.7 5.1 5.4 5.2 2.8 0 2.8.1-2.2-7.2l-3.9-5.8 2.9-4.2c4.6-6.7 4.6-6.8 3.1-6.8-.8 0-2.7 1.8-4.2 4s-3.1 4-3.6 4c-.4 0-1.8-1.8-3-3.9-1.3-2.4-3.1-4.1-4.5-4.4-1.3-.2-2.4-.2-2.4.1zM245.2 271.5c-5.7 2.5-7.9 11.2-4.5 18.2 3.1 6.6 12.9 8.1 17.3 2.6 2.5-3.3 2.6-5.3 0-5.3-1.4 0-2 .7-2 2.4 0 3.2-2.2 4.8-6.2 4.4-4.2-.4-5.8-3.4-5.8-10.8 0-6.3 1.6-9.9 4.6-11.1 3.1-1.1 6.8 1.1 7.2 4.3.2 2 .7 2.5 2.2 2.1 1.8-.5 1.8-.7.4-3.5-2.4-4.6-7.3-5.9-13.2-3.3zM276.8 271.6c-8.7 4.7-7.3 20.7 2.1 23.5 7.4 2.2 14.9-3.8 12.2-9.8-.6-1.3-1.9-2.3-3-2.3-1.8 0-1.9.3-1 2.8.6 1.9.6 3.8 0 5.5-.9 2.2-1.7 2.7-4.5 2.7-5 0-6.6-2.8-6.6-11.1 0-7.8 1.9-11.2 6.4-11.2 3 0 4.6 1.6 4.6 4.5 0 1.1.8 1.8 2 1.8 3.9 0 1.4-5.1-3.4-7-3.6-1.3-5.5-1.2-8.8.6zM296.5 278.4c-1.6 1.2-1.7 1.6-.6 3 1.9 2.2 2.9 2 3.3-.7.2-1.5 1.1-2.3 2.9-2.5 2.2-.3 2.8.2 3.3 2.4.4 1.4.6 2.7.4 2.8-.2.2-2.4 1-5.1 2-5 1.9-7.2 4.5-6.2 7.5 1.4 4.4 8.3 2.7 10.7-2.5 1.3-2.8 2.8-1.5 2.8 2.3 0 1.3.5 2.3 1.1 2.3.8 0 1-2.5.7-7.6-.3-6-.7-7.9-2.3-9-2.4-1.8-8.6-1.8-11 0zm8.2 10.9c-1.5 3.6-5.3 4.9-6.3 2.3-.7-1.9 1.2-4.5 4.1-5.6 3-1.1 3.6-.3 2.2 3.3zM319.4 279.2c-1 1.3-1.2 1.7-.4 1 1.9-1.7 4.7-1.5 5.4.4.3.9.6 4.5.6 8 0 5.7.2 6.4 2 6.4s2-.7 2-6.3c0-6.9 1.5-10.1 4.6-9.5 1.6.3 1.9 1.3 2.2 8.1.3 6.9.5 7.7 2.2 7.7 1.8 0 2-.7 2-7.1 0-3.9-.5-7.9-1-9-1.4-2.5-7.5-2.6-8.9-.2-.9 1.7-1 1.7-2.8 0-2.7-2.3-5.6-2.1-7.9.5zM344.9 279.6c-5.4 5.7-1.3 15.8 6.5 15.8 3.3 0 7.6-2.6 7.6-4.6 0-1.7-2.9-.7-3.5 1.1-.9 2.9-4.3 3.6-6.6 1.5-2.4-2.2-2.6-9.9-.3-13.2 2.4-3.4 5.8-2.6 6.2 1.4.3 2.9 0 3.3-3.5 4.2-3.5 1-3.4 1 1.7.5 3-.3 5.7-.7 5.9-.9.7-.6-1-5.3-2.5-6.8-2.5-2.6-8.6-2-11.5 1zM362.2 278.2c-2.3 2.3-1.4 5.7 2.1 7.4 4.5 2.3 6.7 4.4 6.7 6.6 0 2.7-6.4 2.5-8.3-.2-1.2-1.7-1.6-1.8-2-.6-1.6 4 8.7 5.6 12.4 1.9 2.7-2.7 2-4.6-2.8-7.6-4.7-3-6.7-5.3-5.8-6.7 1-1.6 5.6-1.2 7.7.7 1.6 1.4 1.8 1.4 1.8.1 0-.9-.7-1.9-1.6-2.2-2.7-1-8.9-.7-10.2.6zM314 286.7c0 7.6.2 8.3 2 8.3s2-.7 2-6.7c0-3.6-.3-6.3-.7-5.9-.4.3-1.3-.4-2-1.6-1.1-2-1.2-1.3-1.3 5.9z"/></svg>