<svg width="21" height="20" fill="none" xmlns="http://www.w3.org/2000/svg"><path d="M10.33 20c5.523 0 10-4.477 10-10s-4.477-10-10-10c-5.522 0-10 4.477-10 10s4.478 10 10 10z" fill="#040404"/><g clip-path="url(#clip0)"><path d="M16.29 11.582c-.322-.706-.852-1.242-1.48-1.687-.855-.606-1.815-1.01-2.776-1.415a72.744 72.744 0 01-2.576-1.13 3.624 3.624 0 01-1.27-.968c-.66-.797-.598-1.803.157-2.456.424-.367.91-.62 1.47-.679 1.189-.125 2.33.054 3.404.589.816.407 1.499.987 2.134 1.627.155.157.306.317.478.495.195-.242.378-.474.569-.699.068-.08.06-.132-.015-.2-.405-.368-.793-.753-1.21-1.105-.82-.694-1.741-1.223-2.792-1.482-1.655-.408-3.303-.365-4.905.233-1.568.586-2.6 1.657-2.845 3.353-.212 1.468.196 2.727 1.34 3.72.55.476 1.161.858 1.823 1.15 1.002.441 2.02.848 3.028 1.274.655.278 1.302.573 1.85 1.038.896.76.766 1.813.217 2.483-.54.661-1.277.982-2.112 1.052-1.816.153-3.43-.348-4.801-1.553-.366-.32-.708-.667-1.066-.997-.041-.037-.141-.073-.168-.052-.237.188-.464.387-.725.61.361.345.692.678 1.04.992.992.891 2.12 1.54 3.437 1.825 1.384.299 2.765.257 4.132-.107.992-.264 1.905-.685 2.683-1.37 1.397-1.23 1.643-3.079.978-4.54zm-1.604 3.689c-.212.213-.468.383-.704.57-.032.026-.073.037-.094.048.11-.312.253-.611.322-.926.251-1.14-.118-2.053-1.077-2.733-.679-.48-1.44-.794-2.207-1.102-.804-.324-1.616-.634-2.41-.982-.851-.372-1.648-.838-2.238-1.575-.715-.896-.903-1.906-.581-2.998.208-.708.601-1.297 1.242-1.702.043-.027.087-.05.131-.074l.035.03c-.021.052-.04.103-.063.153-.29.663-.425 1.345-.241 2.062.174.68.608 1.18 1.156 1.595.648.49 1.377.838 2.122 1.155.843.36 1.694.703 2.532 1.073.71.314 1.391.684 1.984 1.195 1.413 1.218 1.263 3.034.09 4.21z" fill="#fff"/></g><defs><clipPath id="clip0"><path fill="#fff" transform="translate(4.019 2.203)" d="M0 0h12.624v15.594H0z"/></clipPath></defs></svg>