<svg xmlns="http://www.w3.org/2000/svg" width="268" height="284" viewBox="54 0 280 284"><g xmlns="http://www.w3.org/2000/svg"><circle xmlns="http://www.w3.org/2000/svg" fill="#fff" cx="196" cy="143" r="128"/><path d="M187.633 14.225c-4.425.246-10.519.806-11.087 1.018-.235.087-1.642.336-3.127.553-1.486.217-3.533.579-4.549.805-1.016.225-2.743.606-3.838.846-1.095.24-2.694.628-3.554.861-.86.233-2.566.693-3.791 1.021-2.201.59-8.112 2.645-9.069 3.153-.272.144-.63.261-.797.261-.168 0-.905.266-1.639.59-1.991.878-2.934 1.282-4.019 1.718-.984.396-8.681 4.097-9.922 4.77-.761.414-1.151-.036 8.76 10.122a867.293 867.293 0 017.689 7.975c3.146 3.334 3.162 3.346 4.025 2.988 1.69-.701 11.344-3.53 13.738-4.026 9.018-1.868 15.172-2.562 26.716-3.014 6.357-.248 19.412.877 26.731 2.304 4.498.876 5.132 1.01 6.113 1.291.547.156 2.274.603 3.838.993 1.563.389 4.249 1.16 5.968 1.713 1.719.553 3.146 1.006 3.172 1.006.026 0 1.302-1.503 2.836-3.341a489.864 489.864 0 013.793-4.5c.552-.638 1.644-1.917 2.425-2.843 1.965-2.326 6.61-7.363 8.358-9.064.798-.776 1.45-1.543 1.449-1.706-.003-.348-4.785-2.716-11.228-5.557-2.627-1.158-3.277-1.419-3.542-1.419-.167 0-.526-.121-.797-.27-2.107-1.153-14.81-4.769-21.105-6.007-10.6-2.085-22.313-2.867-33.547-2.241m114.05 54.515c-.176.58-.826 3.101-1.445 5.603-1.231 4.975-2.169 8.429-3.472 12.793-.467 1.563-1.111 3.738-1.432 4.833-.32 1.094-1.403 4.452-2.407 7.462l-1.825 5.472.533 1.066c.293.587 1.631 3.179 2.973 5.759 4.565 8.78 7.916 17.385 9.719 24.961.398 1.672.844 3.489.991 4.036 1.86 6.928 3.136 18.538 3.17 28.856.01 3.127-.113 6.325-.275 7.107-.719 3.483-.921 4.257-1.616 6.191a91.963 91.963 0 00-.999 2.906c-.648 2.117-4.101 8.576-6.383 11.941-3.778 5.572-5.072 7.205-9.685 12.224a443.038 443.038 0 00-2.871 3.144c-1.814 2.048-10.423 9.423-13.88 11.889-10.563 7.538-20.319 13.168-30.862 17.811-3.648 1.607-12.057 4.825-12.606 4.825-.125 0-.63.18-1.123.4-1.113.497-4.695 1.59-5.212 1.59-.21 0-.605.117-.876.26-.461.243-2.61.766-7.743 1.884-1.173.256-2.908.645-3.856.866-.948.221-2.164.402-2.701.403-.537.001-2.256.2-3.82.441-8.057 1.244-19.431.254-30.277-2.635-2.323-.619-8.018-2.364-8.671-2.657-.313-.14-1.208-.465-1.99-.721-7.336-2.406-24.149-10.27-29.774-13.925-.583-.379-1.133-.689-1.224-.689-.09 0-1.134-.64-2.319-1.422-1.186-.781-2.194-1.421-2.24-1.421-.599 0-10.234-6.912-14.621-10.489-8.56-6.979-11.708-10.006-18.632-17.909-1.215-1.388-4.395-5.607-4.395-5.832 0-.074-.586-.989-1.302-2.035-.717-1.046-1.377-2.11-1.468-2.364-.091-.254-.395-.793-.675-1.198-5.056-7.31-6.13-14.693-4.523-31.104.467-4.769 2.242-15.21 3.116-18.337 1.537-5.494 3.05-10.565 3.433-11.514.127-.313.442-1.257.7-2.097.611-1.991 3.253-8.723 4.42-11.265.503-1.094 1.674-3.626 2.603-5.626 2.209-4.755 2.211-5.019.107-10.721-2.247-6.086-3.905-11.141-4.71-14.356-.117-.469-.498-1.877-.846-3.128-1.102-3.958-1.985-7.676-2.617-11.026-.391-2.073-.362-2.089-2.789 1.604-3.908 5.947-8.181 13.776-10.34 18.947a134.32 134.32 0 01-1.316 3c-.43.947-.871 2.129-.98 2.627-.11.497-.317.977-.461 1.067-.145.089-.263.359-.263.6 0 .24-.179.841-.398 1.333-1.043 2.346-2.707 8.231-4.593 16.248-1.309 5.565-2.246 13.488-2.87 24.265-.272 4.71.805 17.333 2.041 23.923.775 4.126 1.875 9.016 2.559 11.371 2.071 7.132 2.497 8.42 3.727 11.273.213.493.387 1.038.387 1.212 0 .174.124.538.276.81.151.271.805 1.773 1.452 3.336 6.452 15.591 18.533 32.378 32.15 44.673 5.07 4.578 7.503 6.487 14.878 11.673 1.759 1.237 5.997 3.818 9.24 5.629 1.929 1.077 11.568 5.829 11.824 5.829.132 0 .743.259 3.67 1.556 1.691.75 7.518 2.71 12.651 4.257 21.241 6.398 49.061 6.573 70.931.444 1.251-.351 2.701-.739 3.222-.864a17.085 17.085 0 001.706-.514c.417-.158 1.717-.573 2.89-.922 1.173-.348 2.324-.73 2.558-.848.235-.119 1.067-.435 1.848-.703a39.42 39.42 0 002.275-.857 443.26 443.26 0 013.411-1.439c12.928-5.403 26.476-14.134 36.947-23.811 5.12-4.731 7.69-7.388 12.258-12.671.967-1.118 5.174-6.704 7.418-9.849 7.447-10.436 14.398-25.753 18.182-40.062 4.488-16.972 5.134-40.61 1.537-56.29-.144-.625-.539-2.416-.879-3.98-.34-1.563-.789-3.418-.998-4.122-1.781-6.007-2.21-7.393-2.592-8.387-.24-.625-.605-1.585-.81-2.132-2.397-6.401-5.711-13.734-8.095-17.91-2.993-5.242-5.729-9.624-7.404-11.857l-1.323-1.765-.319 1.054m-38.641 52.572c.43.066 1.134.066 1.564 0 .43-.065.078-.118-.782-.118s-1.212.053-.782.118m-31.841 28.422c.274.072.722.072.995 0 .274-.072.05-.13-.497-.13-.548 0-.771.058-.498.13" fill="#f30504" fill-rule="evenodd"/><path d="M90.634 6.764c-4.973 3.279-8.29 19.93-6.769 33.978.156 1.437.408 4.212.561 6.166.477 6.087 1.251 12.067 2.155 16.631.216 1.095.48 2.822.586 3.838.106 1.017.285 1.912.399 1.99.113.079.345.846.515 1.706a142.69 142.69 0 002.611 10.945c.348 1.251.729 2.659.846 3.128.805 3.215 2.463 8.27 4.71 14.356 2.104 5.702 2.102 5.966-.107 10.721-.929 2-2.1 4.532-2.603 5.626-1.167 2.542-3.809 9.274-4.42 11.265-.258.84-.573 1.784-.7 2.097-.383.949-1.896 6.02-3.433 11.514-.478 1.712-1.665 8.004-2.413 12.793-.623 3.997-1.655 15.056-1.426 15.285.057.057 1.045-.04 2.194-.216 4.287-.658 6.799-.819 12.893-.824 6.986-.006 10.34.331 16.398 1.646 10.476 2.275 22.81 9.434 31.353 18.198 1.742 1.787 1.596 1.806 2.563-.329 8.143-17.976 17.711-28.428 31.278-34.167 8.622-3.647 20.685-4.243 31.13-1.538 13.982 3.621 25.818 14.603 32.123 29.806a107.337 107.337 0 001.151 2.701c.147.312.597 1.458 1.001 2.546.403 1.089.801 2.089.884 2.223.083.134 1.001-.567 2.041-1.558 6.657-6.345 12.739-10.309 22.298-14.534.592-.262 1.212-.476 1.379-.476.166 0 .706-.179 1.198-.398 2.637-1.173 7.684-2.388 13.405-3.228 5.407-.793 21.2-.472 23.596.481.761.302.531-6.491-.543-16.044-.51-4.531-1.346-9.299-2.17-12.367-.147-.547-.593-2.364-.991-4.036-1.803-7.576-5.154-16.181-9.719-24.961a729.149 729.149 0 01-2.973-5.759l-.533-1.066 1.825-5.472c1.004-3.01 2.087-6.368 2.407-7.462.321-1.095.965-3.27 1.432-4.833 1.313-4.397 2.246-7.839 3.468-12.793.617-2.502 1.304-5.125 1.527-5.828.405-1.279.723-2.654 1.481-6.397 1.329-6.559 2.035-10.668 2.515-14.641l.722-5.97c.413-3.43.438-16.325.036-18.764-.757-4.591-.945-5.466-1.63-7.563-1.806-5.532-3.772-8.738-5.227-8.522-.555.082-1.648.23-2.43.329-1.281.161-3.242.635-6.965 1.682-8.683 2.443-22.88 11.48-30.548 19.446-.618.642-1.29 1.167-1.493 1.167a.369.369 0 00-.368.366c0 .202-.653 1.001-1.451 1.777-1.748 1.701-6.393 6.738-8.358 9.064-.781.926-1.873 2.205-2.425 2.843-.553.638-2.259 2.663-3.793 4.5-1.534 1.838-2.81 3.341-2.836 3.341-.026 0-1.453-.453-3.172-1.006a112.096 112.096 0 00-5.968-1.713c-1.564-.39-3.291-.837-3.838-.993-.981-.281-1.615-.415-6.113-1.291-7.319-1.427-20.374-2.552-26.731-2.304-11.544.452-17.698 1.146-26.716 3.014-2.394.496-12.048 3.325-13.738 4.026-.863.358-.879.346-4.025-2.988a867.293 867.293 0 00-7.689-7.975c-8.186-8.39-9.387-9.697-9.162-9.972.118-.144.098-.166-.046-.049-.144.118-1.109-.586-2.144-1.563-10.43-9.844-18.069-15.548-25.453-19.008-5.381-2.522-11.804-3.747-13.562-2.587m98.496 7.37c.432.066 1.072.064 1.421-.004.35-.067-.004-.12-.786-.118-.781.002-1.067.057-.635.122m-42.226 80.654c8.509 2.265 14.582 13.936 9.334 17.939-2.919 2.226-13.287 3.271-21.053 2.12-6.68-.989-7.617-10.712-1.567-16.266 3.914-3.595 8.796-4.988 13.286-3.793m101.613.035c9.108 2.361 13.798 12.753 8.307 18.407-3.227 3.322-21.463 2.556-24.778-1.041-1.269-1.377-1.999-4.085-1.473-5.468.15-.394.273-.984.273-1.31 0-1.065 1.497-3.683 3.09-5.404 4.428-4.783 9.36-6.536 14.581-5.184m17.229 27.849c.797 2.882.896 3.791.908 8.293l.013 4.597-1.919 1.742c-3.904 3.543-7.858 5.724-14.855 8.192-3.875 1.367-5.001 1.681-11.513 3.204-4.23.99-11.416 1.437-15.064.937l-1.355-.186.177-1.691c.403-3.862 3.858-7.785 10.983-12.474 7.769-5.112 12.226-7.591 20.752-11.542 3.03-1.404 7.806-2.606 10.076-2.536l1.404.043.393 1.421m-133.834-.52c2.399.496 4.093 1.025 5.97 1.864 3.197 1.429 7.83 3.787 11.087 5.643a526.725 526.725 0 005.078 2.864c9.959 5.473 15.948 11.198 15.957 15.252.015 6.511-32.709-1.022-42.783-9.848-3.097-2.713-3.689-9.095-1.361-14.686.87-2.089 1.054-2.122 6.052-1.089m-66.743 3.505c0 .548.059.772.13.498a2.319 2.319 0 000-.995c-.071-.274-.13-.05-.13.497m260.702 3.838c.003.626.062.848.13.495.068-.354.065-.866-.006-1.138-.071-.271-.127.018-.124.643m-261.839 8.671c0 .548.058.771.13.498a2.35 2.35 0 000-.995c-.072-.274-.13-.05-.13.497m262.445 3.838c0 1.877.046 2.607.102 1.624.056-.984.055-2.519-.001-3.412-.056-.893-.102-.088-.101 1.788m-262.445 5.544c0 .547.058.771.13.497a2.35 2.35 0 000-.995c-.072-.273-.13-.049-.13.498m261.839 8.102c.003.626.062.848.13.495.068-.354.065-.866-.006-1.138-.071-.271-.127.018-.124.643m-17.336 15.21c0 .704.056.991.123.64a4.041 4.041 0 000-1.28c-.067-.351-.123-.064-.123.64m-204.768 40.743c0 .049.416.465.924.924l.924.835-.835-.924c-.779-.861-1.013-1.055-1.013-.835m179.797 4.246l-.835.924.924-.835c.508-.459.924-.875.924-.924 0-.219-.234-.026-1.013.835m-184.772 13.86c.61.625 1.174 1.137 1.252 1.137.079 0-.357-.512-.968-1.137-.611-.626-1.174-1.138-1.253-1.138-.078 0 .358.512.969 1.138m7.107 7.107c.611.625 1.174 1.137 1.253 1.137.078 0-.358-.512-.969-1.137-.61-.626-1.174-1.137-1.252-1.137-.078 0 .357.511.968 1.137m177.097 1.492l-.835.924.924-.835c.508-.459.924-.875.924-.924 0-.219-.235-.026-1.013.835m-88.039 15.767c.354.068.865.065 1.137-.006.272-.071-.017-.127-.643-.124-.625.003-.848.062-.494.13m-6.968 17.052c.273.072.721.072.995 0 .273-.071.049-.13-.498-.13s-.771.059-.497.13" fill="#fba10b" fill-rule="evenodd"/><path d="M126.591 121.758c-1.528 2.055-2.571 8.905-1.799 11.827.149.565.339 1.363.422 1.772.318 1.565 4.573 4.85 9.511 7.343 9.856 4.975 29.258 8.872 34.018 6.831l1.342-.575-.157-1.521c-.381-3.699-3.768-7.293-11.625-12.337-1.513-.97-2.822-1.765-2.911-1.765-.089 0-1.538-.814-3.221-1.809-6.421-3.798-13.307-7.248-16.734-8.384-3.585-1.188-8.427-1.945-8.846-1.382m134.248-.181c-5.35 1.112-12.608 4.444-21.885 10.047-11.999 7.247-16.334 11.45-16.837 16.327l-.158 1.526 3.297.206c12.881.805 31.52-5.072 39.634-12.497l1.777-1.626-.013-4.596c-.012-4.405-.094-5.183-.874-8.221l-.346-1.35-2.014.033c-1.107.018-2.269.086-2.581.151m-75.196 45.742c-3.765 1.175-5.398 6.163-4.277 13.065.861 5.3 7.256 11.155 14.867 13.61.445.143.498.613.498 4.405v4.246l-.961.567c-.529.311-1.381 1.188-1.894 1.947-.513.759-.974 1.43-1.023 1.491-.445.558-10.889.099-15.028-.659-2.28-.418-8.984-.608-9.328-.264-.1.1.197.616.662 1.145 1.211 1.38 1.842 2.771 2.393 5.282l.484 2.203h1.124c1.241 0 1.252.015 2.107 2.843.578 1.909 2.227 5.497 2.947 6.413l.529.673.536-1.194c.474-1.055.531-1.862.491-6.911l-.045-5.716 1.467.119c.806.065 2.618.24 4.025.388 8.346.88 18.672.88 26.013 0 1.172-.141 3.116-.337 4.318-.436l2.186-.18-.054 5.483c-.051 5.187-.02 5.547.582 6.672.659 1.232 1.212 1.788 1.212 1.216 0-.181.186-.732.413-1.225.228-.493.983-2.367 1.68-4.165l1.266-3.269 1.504-.457 1.504-.457.897-3.253c.492-1.789.985-3.727 1.093-4.305l.198-1.052-4.207.006c-3.465.005-4.408.098-5.356.528-1.686.767-3.996.966-8.548.739l-4.051-.203-1.293-1.665c-.748-.964-1.598-1.743-2.017-1.848l-.724-.181.079-4.301.078-4.301 1.137-.525c8.721-4.027 11.321-7.879 11.353-16.821.024-6.799-.832-8.36-5.284-9.633-2.211-.632-21.541-.648-23.553-.02m.72 47.677c.266 1.252.767 1.755 2.485 2.494l1.458.628.942-1.028c1.641-1.79 2.947-1.273 4.761 1.887 1.155 2.011 2.575 1.626 5.341-1.446 1.275-1.417 1.176-1.41 2.762-.208l1.27.963 1.052-.756c1.23-.884 1.524-1.301 1.797-2.543l.201-.915h-22.265l.196.924" fill="#060505" fill-rule="evenodd"/></g></svg>