<svg xmlns="http://www.w3.org/2000/svg" viewBox="0 0 1080 1080"><style>.st3{fill:#85b3cb}</style><circle cx="540" cy="540" r="531" fill="#fff" id="Layer_1"/><g id="Layer_3"><path fill="#206994" d="M434.7 260.3L224 446.9h210.7z"/><path fill="#367fac" d="M434.7 446.8L224 633.2h210.7z"/><path class="st3" d="M434.7 633.2L224 819.7h210.7zM434.7 819.7l210.6-186.5H434.7z"/><path fill="#488db4" d="M434.7 633.2l210.6-186.4H434.7z"/><path fill="#1b5f86" d="M434.7 446.8l210.6-186.5H434.7z"/><path fill="#2272a5" d="M224 633.4l210.7-186.5H224z"/><path fill="#ca4b06" d="M645.3 446.8L856 260.3H645.3z"/><path fill="#f8782f" d="M645.3 633.2L856 446.8H645.3z"/><path fill="#f6681c" d="M645.3 446.8L434.7 633.2h210.6z"/><path fill="#f8a77a" d="M645.3 633.2L434.7 819.7h210.6z"/><path fill="#fa965a" d="M645.3 819.7L856 633.2H645.3z"/><path fill="#f98748" d="M856 446.8L645.3 633.2H856z"/><path fill="#e15309" d="M645.3 260.3L434.7 446.8h210.6z"/></g></svg>