<svg width="20" height="20" fill="none" xmlns="http://www.w3.org/2000/svg"><circle cx="10" cy="10" r="10" fill="#652EF4"/><path d="M8.872 15.348c-1.727.413-2.665.639-3.416 1.652-.15-.45-.413-1.764.075-2.552.3-.6 1.051-1.126 2.252-1.54.939-.337 2.177-.637 3.453-.787l.45-.038-.45-.113c-2.064-.45-3.453-.9-4.88-2.064-.675-.525-.975-1.426-.787-2.29.112-.637.638-1.839 2.74-2.44a53.71 53.71 0 011.632-.423c.297-.074.579-.144.845-.214C12.55 4.126 13.638 3.863 14.2 3c0 .45-.037 1.426-.75 2.402-.939 1.314-2.703 2.14-5.217 2.44l-.45.037.45.075c2.064.45 3.453.901 4.879 2.065.676.525.976 1.426.788 2.29-.112.637-.638 1.839-2.74 2.439-.9.263-1.651.45-2.29.6z" fill="#fff"/><path d="M12.963 9.118a8.415 8.415 0 00-2.402-1.201c1.426-.413 2.515-1.089 3.228-1.952.075.863.037 2.14-.826 3.153z" fill="#fff"/></svg>