<svg width="1088" height="1088" fill="none" xmlns="http://www.w3.org/2000/svg"><path d="M542.589 582.951l-18.268.733c-40.956 0-72.412 31.469-77.726 73.113-2.624 20.769-2.724 27.449-3.322 34.563-.897 16.615-5.215 23.594-22.022 13.922a566.456 566.456 0 01-68.858-45.76C225.508 540.616 237.465 345.77 393.249 238.761c36.538-24.958 58.261-52.874 49.127-99.333-12.921-64.87-68.957-94.215-126.221-61.281-149.673 86.239-222.55 218.605-228.562 364.43a512.519 512.519 0 0015.546 124.492 35.993 35.993 0 001.096 6.644c26.141 132.731 101.276 231.799 228.561 295.475a543.839 543.839 0 0085.1 31.837 30.274 30.274 0 0118.062 10.82 30.323 30.323 0 016.65 19.986 195.314 195.314 0 002.99 27.449c7.407 41.44 39.859 67.4 83.041 67.76h13.286v-.79l.664-443.299z" fill="#17A84B"/><path d="M768.263 78.313c-57.167-32.934-113.203-3.59-125.992 61.281-9.165 46.526 12.692 74.342 48.997 99.333 155.418 107.01 167.838 301.855 40.952 420.761a562.886 562.886 0 01-68.922 45.728c-16.841 9.704-21.027 2.559-22.055-13.891a194.73 194.73 0 00-3.089-34.562c-5.315-41.441-36.54-72.748-77.727-73.113l-18.268-.733v443.923h13.884c43.349 0 75.699-26.35 83.209-67.793a194.812 194.812 0 002.922-27.416 30.367 30.367 0 016.681-20.009 30.329 30.329 0 0118.099-10.829 539.658 539.658 0 0085.03-31.838c127.153-64.007 202.221-162.84 228.563-295.442.433-2.393.728-4.583.996-6.644a509.02 509.02 0 0015.545-124.491c-6.145-145.66-79.189-278.026-228.825-364.265z" fill="#077FA2"/><path d="M538.57 367.438c-53.744.565-90.149 38.318-89.684 93.052 0 58.157 36.538 95.778 91.976 95.842h1.826V367.637l-4.118-.199z" fill="#17A84B"/><path d="M636.393 461.021a94.386 94.386 0 00-27.781-65.917 94.287 94.287 0 00-66.023-27.467v188.797a94.435 94.435 0 0066.613-28.132 94.545 94.545 0 0020.276-30.798 94.565 94.565 0 006.947-36.217l-.032-.266z" fill="#077FA2"/></svg>