<svg width="1286" height="1245" fill="none" xmlns="http://www.w3.org/2000/svg"><path d="M642.579 1133.71c295.741 0 535.481-229.813 535.481-513.308 0-283.494-239.74-513.312-535.481-513.312-295.74 0-535.484 229.818-535.484 513.312 0 283.495 239.744 513.308 535.484 513.308z" fill="#953132"/><path d="M731.31 359.319H342.709v513.312H731.31c138.476 0 260.085-82.13 260.085-256.656S869.786 359.319 731.31 359.319zm152.774 273.595l-77.163 117.703c-2.916 4.496-6.977 8.207-11.802 10.784a33.665 33.665 0 01-15.776 3.948H491.467c-8.635 0-16.916-3.288-23.022-9.141-6.106-5.853-9.536-13.791-9.536-22.069V498.683c0-4.096.843-8.152 2.479-11.936a31.114 31.114 0 017.06-10.114 32.646 32.646 0 0110.563-6.751 33.725 33.725 0 0112.456-2.357h287.876a33.724 33.724 0 0115.764 3.931c4.823 2.568 8.888 6.266 11.814 10.75l77.109 117.702c3.212 4.954 4.915 10.67 4.915 16.503s-1.703 11.549-4.915 16.503h.054z" fill="#fff"/></svg>