<svg width="52" height="58" fill="none" xmlns="http://www.w3.org/2000/svg"><path d="M49.26 12.457s-.917-.565-1.551-.937c-2.442-1.412-4.872-2.857-7.313-4.27a3.569 3.569 0 00-1.182-.426c-9.392-1.51-18.784-3.01-28.187-4.51A2099 2099 0 002.883 1.01C2.28.924 0 .5 0 .5s.901 2.175 1.186 2.799c7.444 16.42 14.887 32.84 22.32 49.26A330.308 330.308 0 0024.87 55.5s.855-1.79 1.46-2.843c7.378-12.895 14.767-25.78 22.156-38.674.153-.252.775-1.527.775-1.527zm-12.17-3.05c-3.918 4.959-7.783 9.863-11.68 14.8C19.018 17.65 12.647 11.126 6.178 4.492 16.544 6.145 26.757 7.765 37.09 9.407zM24.316 26.66c-.099 4.685-.208 9.38-.328 14.066-.055 2.343-.12 4.685-.274 7.071-6.24-13.77-12.48-27.54-18.719-41.3.022-.012.055-.033.077-.044 1.248 1.28 2.507 2.561 3.766 3.853C13.906 15.493 18.974 20.67 24.03 25.87c.175.186.296.525.285.788zm1.817 20.689c-.033-.011-.077-.011-.11-.022.012-.942.012-1.883.033-2.825.099-4.695.208-9.38.318-14.077.022-1.105.033-2.222.077-3.327a.57.57 0 01.23-.416c5.823-3.656 11.646-7.302 17.47-10.958.022.022.044.033.066.055-6.021 10.53-12.053 21.05-18.084 31.57zm3.875-25.298c-.022-.033-.055-.054-.077-.087 3.142-3.974 6.284-7.947 9.458-11.965 1.675.975 3.328 1.949 5.046 2.956-4.838 3.054-9.632 6.075-14.427 9.096z" fill="#C6283B"/></svg>