<svg width="55" height="55" fill="none" xmlns="http://www.w3.org/2000/svg"><path d="M36.65 34.363h-2.579v6.279h2.579c1.096 0 1.874-.487 2.312-1.46.244-.536.365-1.12.365-1.777 0-.852-.219-1.558-.632-2.093-.487-.633-1.193-.95-2.045-.95zm1.339 3.748a1.969 1.969 0 01-.292.803c-.17.243-.365.413-.633.51-.121.05-.34.074-.584.074h-1.168V35.53h1.144c.535 0 .949.17 1.168.487.268.34.39.851.39 1.533.024.17 0 .365-.025.56zm-12.266-3.748h-.243v3.821c0 .389-.049.681-.17.876-.195.365-.56.56-1.144.56-.463 0-.779-.17-.974-.512-.146-.243-.194-.535-.194-.924v-3.821h-1.29v3.504c0 .755.097 1.339.316 1.752.39.78 1.12 1.193 2.19 1.193 1.071 0 1.826-.39 2.215-1.193.22-.413.317-.997.317-1.752v-3.504h-1.023zm6.571 3.042a3.156 3.156 0 00-.998-.414l-.803-.194c-.632-.146-.9-.244-.997-.292-.146-.074-.22-.195-.22-.414a.7.7 0 01.22-.511c.146-.146.438-.22.827-.22.487 0 .827.122 1.022.366.098.121.17.316.195.584l.024.219h1.193v-.244c0-.73-.244-1.265-.73-1.606-.463-.316-1.047-.486-1.68-.486-.73 0-1.29.194-1.703.56-.414.389-.609.875-.609 1.46 0 .56.22.997.657 1.29.244.145.633.291 1.169.413l.778.17c.39.098.682.195.852.317.049.024.17.121.17.462 0 .22-.073.487-.535.633a2.077 2.077 0 01-.73.122c-.584 0-.95-.146-1.193-.463a1.34 1.34 0 01-.17-.681v-.22h-1.217v.244c0 .681.22 1.241.682 1.68.462.413 1.07.608 1.85.608.656 0 1.24-.146 1.752-.438.535-.317.803-.852.803-1.582.048-.584-.17-1.047-.609-1.363zm-16.378-3.042h-.244v1.167h1.947v5.111h1.29V35.53h1.947v-1.167h-4.94zm25.188-23.095H13.896a2.337 2.337 0 00-2.336 2.336v17.62h31.88v-17.62a2.337 2.337 0 00-2.336-2.336zm-6.838 7.179H29.52v9.296h-3.48v-9.296h-5.11v-3.358h13.336v3.358z" fill="#002868"/><path d="M27.5 0C12.314 0 0 12.314 0 27.5S12.314 55 27.5 55 55 42.686 55 27.5 42.686 0 27.5 0zm16.427 41.104a2.825 2.825 0 01-2.823 2.823H13.896a2.825 2.825 0 01-2.823-2.823v-27.5a2.825 2.825 0 012.823-2.823h27.208a2.825 2.825 0 012.823 2.823v27.5z" fill="#002868"/></svg>