<svg width="601" height="601" fill="none" xmlns="http://www.w3.org/2000/svg"><path fill="#fff" d="M.039.988h600v600h-600z"/><path d="M226.336 151.767c-4.527-.703-4.718-.785-2.587-1.113 4.083-.628 13.724.228 20.367 1.808 15.51 3.687 29.624 13.131 44.689 29.905l4.002 4.456 5.725-.921c24.121-3.876 48.659-.795 69.182 8.686 5.646 2.608 14.549 7.8 15.661 9.134.354.426 1.005 3.163 1.445 6.084 1.525 10.105.762 17.85-2.329 23.636-1.682 3.148-1.776 4.145-.645 6.84.903 2.15 3.419 3.741 5.911 3.737 5.1-.006 10.59-8.251 13.134-19.723l1.01-4.557 2.002 2.267c10.978 12.439 19.601 29.402 21.083 41.477l.386 3.148-1.846-2.862c-3.176-4.925-6.367-8.277-10.453-10.981-7.366-4.874-15.155-6.533-35.782-7.62-18.629-.981-29.173-2.573-39.628-5.982-17.788-5.799-26.755-13.523-47.884-41.245-9.385-12.314-15.186-19.126-20.956-24.612-13.112-12.467-25.995-19.004-42.487-21.562z" fill="#FF007A"/><path d="M387.577 179.259c.468-8.251 1.587-13.693 3.837-18.663.89-1.968 1.725-3.578 1.853-3.578.129 0-.258 1.452-.86 3.227-1.635 4.823-1.904 11.421-.777 19.096 1.43 9.74 2.243 11.145 12.537 21.665 4.828 4.935 10.444 11.159 12.48 13.831l3.701 4.858-3.701-3.472c-4.527-4.246-14.938-12.527-17.238-13.711-1.542-.793-1.771-.78-2.722.167-.877.872-1.061 2.183-1.183 8.38-.189 9.658-1.506 15.857-4.683 22.055-1.718 3.353-1.989 2.637-.434-1.147 1.161-2.825 1.279-4.067 1.27-13.417-.018-18.785-2.248-23.301-15.327-31.038-3.313-1.96-8.772-4.786-12.131-6.281s-6.027-2.797-5.93-2.895c.37-.368 13.125 3.355 18.259 5.329 7.636 2.938 8.897 3.318 9.824 2.964.622-.237.923-2.048 1.225-7.37zM235.131 211.395c-9.191-12.653-14.878-32.055-13.647-46.558l.381-4.488 2.092.382c3.929.716 10.703 3.238 13.875 5.164 8.705 5.287 12.473 12.247 16.307 30.12 1.123 5.235 2.597 11.16 3.275 13.165 1.091 3.229 5.215 10.769 8.569 15.667 2.415 3.527.81 5.198-4.528 4.716-8.154-.736-19.199-8.359-26.324-18.168zM376.428 305.572c-42.953-17.295-58.081-32.306-58.081-57.635 0-3.728.128-6.777.285-6.777.156 0 1.818 1.23 3.693 2.733 8.71 6.987 18.463 9.97 45.465 13.91 15.889 2.318 24.831 4.19 33.079 6.926 26.216 8.694 42.437 26.339 46.305 50.372 1.124 6.983.465 20.079-1.358 26.98-1.439 5.452-5.829 15.278-6.993 15.655-.323.105-.64-1.133-.722-2.816-.442-9.025-5.002-17.81-12.661-24.392-8.708-7.482-20.407-13.439-49.012-24.956zM346.274 312.756c-.539-3.202-1.472-7.292-2.074-9.088l-1.097-3.266 2.036 2.285c2.817 3.162 5.044 7.208 6.93 12.597 1.44 4.114 1.602 5.337 1.591 12.021-.011 6.562-.191 7.937-1.52 11.639-2.097 5.838-4.699 9.978-9.065 14.421-7.847 7.985-17.934 12.407-32.491 14.241-2.531.318-9.906.855-16.39 1.192-16.34.85-27.094 2.605-36.757 5.998-1.39.489-2.63.785-2.756.659-.391-.389 6.188-4.311 11.623-6.928 7.662-3.692 15.29-5.706 32.38-8.552 8.443-1.406 17.161-3.112 19.375-3.791 20.907-6.41 31.654-22.952 28.215-43.428z" fill="#FF007A"/><path d="M365.964 347.725c-5.707-12.268-7.017-24.113-3.891-35.159.335-1.181.872-2.147 1.196-2.147.323 0 1.67.728 2.992 1.618 2.63 1.77 7.905 4.752 21.956 12.413 17.535 9.56 27.533 16.963 34.331 25.421 5.954 7.407 9.639 15.842 11.412 26.129 1.004 5.827.416 19.848-1.079 25.716-4.715 18.5-15.672 33.033-31.3 41.513-2.29 1.242-4.345 2.262-4.568 2.266-.222.005.612-2.116 1.854-4.714 5.258-10.99 5.856-21.68 1.882-33.579-2.434-7.285-7.396-16.175-17.415-31.199-11.649-17.469-14.504-22.118-17.37-28.278zM204.627 413.918c15.94-13.458 35.773-23.02 53.838-25.954 7.786-1.265 20.756-.763 27.966 1.082 11.556 2.958 21.894 9.582 27.271 17.474 5.254 7.714 7.508 14.435 9.855 29.391.926 5.899 1.933 11.824 2.238 13.165 1.762 7.751 5.192 13.946 9.442 17.058 6.751 4.94 18.375 5.248 29.81.787 1.941-.757 3.626-1.28 3.745-1.162.414.412-5.344 4.266-9.406 6.295-5.466 2.731-9.813 3.786-15.588 3.786-10.473 0-19.168-5.328-26.423-16.191-1.428-2.138-4.637-8.542-7.132-14.23-7.66-17.473-11.443-22.795-20.338-28.62-7.74-5.069-17.723-5.977-25.232-2.295-9.865 4.837-12.617 17.443-5.552 25.432 2.808 3.175 8.045 5.914 12.326 6.447 8.011.996 14.895-5.098 14.895-13.186 0-5.251-2.018-8.248-7.1-10.541-6.939-3.132-14.399.529-14.363 7.048.015 2.78 1.226 4.526 4.012 5.787 1.788.809 1.83.873.372.57-6.368-1.32-7.86-8.997-2.74-14.093 6.147-6.118 18.858-3.418 23.222 4.933 1.834 3.507 2.047 10.493.448 14.711-3.578 9.442-14.01 14.407-24.594 11.705-7.205-1.84-10.139-3.831-18.827-12.78-15.096-15.55-20.957-18.563-42.72-21.961l-4.17-.651 4.745-4.007z" fill="#FF007A"/><path fill-rule="evenodd" clip-rule="evenodd" d="M90.794 65.579c50.413 61.187 128.137 156.453 131.996 161.786 3.185 4.404 1.986 8.363-3.472 11.466-3.035 1.725-9.275 3.474-12.399 3.474-3.534 0-7.515-1.702-10.414-4.452-2.049-1.943-10.319-14.293-29.411-43.916-14.607-22.666-26.832-41.469-27.166-41.784-.771-.728-.758-.704 25.677 46.595 16.599 29.7 22.202 40.2 22.202 41.604 0 2.856-.779 4.358-4.303 8.288-5.873 6.552-8.499 13.915-10.394 29.153-2.125 17.081-8.1 29.147-24.659 49.798-9.692 12.088-11.278 14.304-13.724 19.176-3.081 6.136-3.928 9.572-4.271 17.32-.363 8.192.344 13.483 2.846 21.315 2.191 6.857 4.478 11.385 10.325 20.44 5.046 7.815 7.951 13.623 7.951 15.895 0 1.807.345 1.809 8.164.044 18.711-4.225 33.904-11.657 42.449-20.763 5.288-5.637 6.53-8.75 6.57-16.474.026-5.053-.151-6.111-1.517-9.017-2.223-4.731-6.271-8.664-15.191-14.763-11.688-7.99-16.681-14.422-18.06-23.269-1.131-7.258.182-12.379 6.648-25.931 6.692-14.028 8.351-20.005 9.473-34.144.724-9.135 1.728-12.738 4.352-15.63 2.738-3.015 5.202-4.036 11.976-4.962 11.044-1.508 18.077-4.366 23.857-9.693 5.015-4.62 7.113-9.073 7.435-15.776l.245-5.08-2.803-3.267C225.028 211.179 83.998 56.277 83.373 56.277c-.133 0 3.206 4.186 7.42 9.302zm66.481 307.777c2.294-4.064 1.075-9.288-2.763-11.84-3.626-2.411-9.26-1.275-9.26 1.867 0 .959.531 1.657 1.726 2.272 2.012 1.035 2.158 2.2.575 4.579-1.604 2.41-1.474 4.529.365 5.968 2.964 2.321 7.159 1.045 9.357-2.846zM244.948 259.493c-5.184 1.593-10.224 7.088-11.784 12.849-.952 3.516-.412 9.681 1.014 11.586 2.303 3.075 4.53 3.886 10.561 3.843 11.807-.082 22.071-5.146 23.264-11.477.979-5.189-3.529-12.381-9.739-15.538-3.204-1.628-10.019-2.275-13.316-1.263zm13.803 10.793c1.821-2.587 1.024-5.383-2.072-7.274-5.898-3.601-14.816-.621-14.816 4.95 0 2.773 4.651 5.799 8.914 5.799 2.837 0 6.72-1.692 7.974-3.475z" fill="#FF007A"/></svg>