<svg xmlns="http://www.w3.org/2000/svg" width="21" height="20" fill="none"><g clip-path="url(#clip0)"><circle cx="10.73" cy="10" r="10" fill="#EB322A"/><path fill-rule="evenodd" clip-rule="evenodd" d="M12.056 10.904a20.38 20.38 0 01-1.31.028c-.679 0-1.16-.02-1.33-.028-2.622-.116-4.58-.572-4.58-1.119 0-.546 1.958-1.002 4.58-1.12v1.784c.172.012.663.041 1.342.041.814 0 1.222-.034 1.295-.04V8.667c2.617.116 4.57.573 4.57 1.118 0 .546-1.953 1.002-4.57 1.118h.002zm0-2.422V6.887h3.651V4.453H5.765v2.434h3.65v1.595c-2.967.136-5.199.724-5.199 1.428 0 .705 2.232 1.292 5.2 1.43v5.113h2.639v-5.116c2.96-.136 5.189-.723 5.189-1.427 0-.704-2.226-1.291-5.19-1.428h.002z" fill="#fff"/></g><defs><clipPath id="clip0"><path fill="#fff" transform="translate(.73)" d="M0 0h20v20H0z"/></clipPath></defs></svg>