<svg xmlns="http://www.w3.org/2000/svg" width="568" height="568" viewBox="0 0 426 426"><path d="M209.723 426c117.636 0 213-95.363 213-213s-95.364-213-213-213c-117.637 0-213 95.363-213 213s95.363 213 213 213zm0 0" fill="#fff"/><path d="M91.234 172.633c-19.796 66.691 18.215 136.804 84.907 156.601 56.203 16.688 114.898-7.695 143.785-55.754 6.656-11.078 21.031-14.66 32.11-8 11.077 6.657 14.66 21.036 8 32.11-39.61 65.902-120.056 99.418-197.216 76.512C71.352 346.945 19.215 250.785 46.367 159.316 73.52 67.848 169.684 15.707 261.152 42.863c43.063 12.782 77.438 40.903 98.883 76.578 6.66 11.075 3.078 25.454-8 32.114-11.074 6.656-25.453 3.074-32.11-8.004-15.66-26.043-40.675-46.496-72.093-55.82-66.687-19.801-136.8 18.214-156.598 84.902zm0 0" fill-rule="evenodd"/></svg>