<svg width="60" height="61" fill="none" xmlns="http://www.w3.org/2000/svg"><g clip-path="url(#clip0)"><path d="M30.014 59.483l-.337-.168C16.532 51.619 6.589 38.923 2.544 23.755a57.927 57.927 0 01-1.46-7.302 66.306 66.306 0 01-.506-7.471c0-.421-.056-.365.337-.562a58.55 58.55 0 0121.88-7.246 63.11 63.11 0 018.623-.422c1.63.028 3.23.14 4.831.31 8.061.87 15.617 3.285 22.695 7.246.112.056.197.112.31.168.111.056.168.14.168.281v.421a75.284 75.284 0 01-.197 4.354 57.299 57.299 0 01-.843 6.18 57.245 57.245 0 01-3.988 12.723 58.161 58.161 0 01-11.853 17.33 58.488 58.488 0 01-12.05 9.41c-.168.112-.308.196-.477.308zM3.274 10.414v.337c0 2.05.141 4.13.394 6.152a52.46 52.46 0 00.955 5.505c.084.309.168.618.309.927 2.528 5.364 8.37 8.23 14.156 6.91 4.41-1.012 8.005-4.41 9.213-8.764.337-1.208.449-2.444.505-3.68.028-.814.113-1.629.253-2.443.955-4.944 4.241-9.016 8.876-10.954.252-.113.533-.197.786-.31.028-.027.084-.027.084-.084-.73-.252-5.084-.702-7.696-.758-5.617-.112-11.122.618-16.487 2.247a53.538 53.538 0 00-11.347 4.915zm41.43 33.65a.883.883 0 00.28-.282 54.351 54.351 0 003.174-4.381c3.511-5.45 5.983-11.32 7.36-17.667.477-2.163.786-4.326.983-6.517.14-1.488.196-2.977.196-4.494 0-.112 0-.196-.028-.309l-.421-.252a59.512 59.512 0 00-3.511-1.826C50.995 7.52 49.254 6.79 47.428 6.2c-2.219-.702-4.466-.786-6.713-.224-6.432 1.544-10.56 7.864-9.325 14.352.674 3.595 2.612 6.404 5.702 8.37.197.14.421.253.618.393 2.275 1.377 4.045 3.259 5.309 5.59a14.232 14.232 0 011.769 7.864c.028.478-.028.983-.084 1.517zm-14.69 12.554c.112-.056.253-.14.365-.224a54.335 54.335 0 009.775-7.36c.196-.168.337-.393.449-.617.197-.365.393-.759.562-1.124 1.404-2.92 1.713-5.954.786-9.1-1.825-6.067-7.668-9.55-13.538-8.82-1.685.197-3.23.73-4.69 1.573-2.781 1.573-5.758 2.22-8.96 1.91-1.573-.14-3.062-.562-4.495-1.18-1.123-.505-2.19-1.123-3.145-1.881-.056-.057-.14-.085-.281-.169.028.14.056.225.084.281a54.638 54.638 0 004.635 9.128 53.644 53.644 0 006.853 8.651c2.584 2.64 5.42 5 8.482 7.05 1.405.9 2.725 1.714 3.118 1.882z" fill="#000"/><path d="M3.275 10.413a52.425 52.425 0 0111.319-4.887c5.393-1.6 10.87-2.36 16.487-2.247 2.613.056 6.966.478 7.696.759.028.056-.028.084-.084.084-.253.112-.534.196-.786.309-4.635 1.938-7.921 6.01-8.876 10.954a18.03 18.03 0 00-.253 2.443c-.028 1.236-.14 2.472-.505 3.68-1.236 4.354-4.803 7.752-9.213 8.763-5.786 1.32-11.628-1.545-14.156-6.91a3.991 3.991 0 01-.31-.926 52.45 52.45 0 01-.954-5.505c-.253-2.05-.393-4.101-.393-6.152.028-.14.028-.224.028-.365z" fill="#F7A800"/><path d="M44.704 44.063c.056-.534.112-1.011.14-1.517.14-2.78-.45-5.42-1.77-7.864-1.263-2.331-3.033-4.185-5.308-5.59-.197-.14-.421-.252-.618-.393-3.117-1.966-5.027-4.747-5.702-8.37-1.207-6.516 2.893-12.808 9.326-14.353 2.275-.533 4.494-.477 6.712.225 1.826.562 3.567 1.32 5.309 2.135 1.208.562 2.36 1.18 3.51 1.825.141.085.254.14.422.253 0 .113.028.197.028.31 0 1.488-.084 3.005-.196 4.493a56.077 56.077 0 01-.983 6.516 52.57 52.57 0 01-7.36 17.668 54.367 54.367 0 01-3.173 4.381c-.112.085-.169.197-.337.281z" fill="#67B2E8"/><path d="M30.014 56.618c-.421-.169-1.713-.955-3.09-1.882a53.587 53.587 0 01-8.482-7.05 52.141 52.141 0 01-6.853-8.651 50.697 50.697 0 01-4.635-9.128c-.028-.085-.056-.14-.084-.281.14.084.197.112.28.168.984.758 2.023 1.405 3.147 1.882 1.432.618 2.92 1.04 4.494 1.18 3.174.309 6.15-.337 8.96-1.91a13.237 13.237 0 014.69-1.573c5.87-.73 11.713 2.753 13.538 8.82.927 3.117.646 6.15-.786 9.1-.197.393-.365.758-.562 1.123-.112.225-.253.45-.45.618a54.33 54.33 0 01-9.774 7.359c-.14.084-.28.169-.393.225z" fill="#00C4B3"/></g><defs><clipPath id="clip0"><path fill="#fff" d="M0 .275h60v60H0z"/></clipPath></defs></svg>