<svg width="60" height="60" fill="none" xmlns="http://www.w3.org/2000/svg"><path d="M.372 42.528v-5.004c.432-.228.864-.504 1.332-.708 2.364-1.02 3.384-2.76 3.24-5.376-.276-4.872.828-9.48 3.348-13.668C12.492 10.8 18.684 6.756 26.76 5.64c6.468-.9 12.312.744 17.94 4.452l-4.584 2.328c-8.844-4.104-17.028-3.372-24.396 3.24-5.268 4.728-7.092 12.876-5.88 17.052C26.364 24.396 42.864 16.08 59.508 7.716v5.04A238452.5 238452.5 0 01.372 42.528zm19.452 5.064c8.268 3.888 15.948 3.444 23.136-2.112 6.24-4.824 8.352-13.248 7.188-18.216-16.56 8.34-33.072 16.656-49.74 25.044v-5.052L59.484 17.52v4.992c-.276.156-.624.384-1.008.54-2.604 1.056-3.672 2.916-3.492 5.772.276 4.572-.768 8.916-3.048 12.888-4.344 7.536-10.884 11.808-19.56 12.744-6.168.66-11.748-.96-17.112-4.536 1.632-.84 3.108-1.584 4.56-2.328z" fill="#000"/></svg>