<svg width="55" height="55" fill="none" xmlns="http://www.w3.org/2000/svg"><path d="M8.15 51.462H.59l5.201-5.41c3.805-3.96 7.557-7.972 11.425-11.87 5.492-5.533 14.148-5.787 20.073-.678.488.421.95.877 1.397 1.343C43.92 40.306 49.15 45.77 54.542 51.4h-6.773c-2.98-2.75-5.698-5.178-8.32-7.704-1.827-1.76-3.468-3.711-5.29-5.475-3.846-3.723-9.777-3.547-13.546.353-3.88 4.015-7.74 8.05-11.612 12.072-.286.297-.594.571-.85.816zM1.689 5.33c5.008 5.236 10.018 10.469 15.027 15.703 6.113 6.387 15.78 6.296 21.925-.17 4.641-4.881 9.328-9.72 13.99-14.583.518-.541 1.005-1.113 1.675-1.858h-6.829c-2.634 2.388-4.81 4.255-6.86 6.252-2.049 1.994-3.95 4.138-5.95 6.183-4.235 4.332-10.177 4.238-14.323-.141-3.901-4.12-7.86-8.184-11.808-12.288H.9c.382.438.575.68.788.902z" fill="#000"/></svg>