<svg width="20" height="20" fill="none" xmlns="http://www.w3.org/2000/svg"><g clip-path="url(#clip0)"><path d="M9 11.871v7.07L13 19v-7.129L10.89 9 9 11.871z" fill="#F800C7"/><path d="M12.973 11L20 7.16 17.641 3l-7.079 3.867L9 10.543l3.973.457z" fill="#F800C7"/><path d="M9.443 6.9L2.559 3 0 7.07 6.94 11l4.06-.569L9.443 6.9z" fill="#F800C7"/><path d="M19.983 6.82a7.632 7.632 0 00-.847-1.955A12.14 12.14 0 0017.897 3.2c-.289-.336-.849-.23-.986.183-.994 2.99-4 5.2-6.882 3.645l-.004-.003-7.079-3.921a.587.587 0 00-.683.079c-.324.3-.842.852-1.343 1.682C.526 5.52.255 6.167.037 6.728c-.158.41.216.822.659.729 3.196-.67 6.688.72 6.727 3.893v7.848c0 .245.167.46.413.529a8.38 8.38 0 002.189.273c.79 0 1.507-.097 2.122-.196.448-.073 1.16-.482.853-.804-2.189-2.308-3.211-5.985-.421-7.617l.05-.028.002-.003 7.079-3.921a.541.541 0 00.273-.61z" fill="#441377"/></g><defs><clipPath id="clip0"><path fill="#fff" d="M0 0h20v20H0z"/></clipPath></defs></svg>