<svg width="60" height="60" fill="none" xmlns="http://www.w3.org/2000/svg"><path d="M59.332 30.266c-.007 16.217-13.197 29.15-29.718 29.14C13.181 59.393-.009 46.352 0 30.122.009 13.977 13.372.976 29.934 1c16.219.023 29.405 13.15 29.398 29.266zm-6.534-.403c-.284-6.195-2.378-11.625-6.9-15.97-5.896-5.667-12.99-7.301-20.9-6.02-8.905 1.44-18.653 10.018-18.443 22.723.203 12.22 10.368 22.334 23.14 22.276 13.046-.058 23.307-10.506 23.102-23.01z" fill="#030302"/><path d="M52.796 29.863c.207 12.503-10.054 22.952-23.1 23.01-12.772.058-22.937-10.056-23.14-22.276-.21-12.706 9.538-21.283 18.442-22.725 7.91-1.28 15.004.354 20.9 6.02 4.522 4.345 6.616 9.776 6.898 15.971z" fill="#DEA038"/><path d="M26.46 44.126h-7.74c-.502-2.942-.146-5.484 1.854-7.863 3.512-4.18 6.387-8.865 10.26-13.122H19.578v-6.828h6.835v-5.056h6.326v5.03h7.59c.035 2.782.32 5.283-1.681 7.692-3.484 4.197-6.383 8.866-10.132 13.24h12.26v6.852h-7.973v4.905h-6.341v-4.85z" fill="#030302"/></svg>