<svg width="60" height="60" fill="none" xmlns="http://www.w3.org/2000/svg"><path d="M44.556 32.832c-2.4-.552-4.884-.84-7.404-.84-7.116 0-13.896 2.28-19.488 6.48 2.688 3.888 7.176 6.444 12.264 6.444 7.272-.012 13.32-5.208 14.628-12.084z" fill="url(#paint0_linear)"/><path d="M57.312 18.444a29.635 29.635 0 00-3.18-5.688l-4.956 7.464c1.5 2.94 2.34 6.264 2.34 9.792 0 11.916-9.66 21.576-21.576 21.576-3.504 0-6.816-.84-9.744-2.316l-7.536 4.92a29.612 29.612 0 0017.28 5.544c4.008 0 7.896-.792 11.568-2.34 3.54-1.5 6.72-3.636 9.444-6.36a29.456 29.456 0 006.36-9.444 29.612 29.612 0 002.34-11.568 29.67 29.67 0 00-2.34-11.58z" fill="url(#paint1_linear)"/><path d="M29.94 15.12c-8.22 0-14.892 6.672-14.892 14.892 0 .768.06 1.524.18 2.256a39.084 39.084 0 00-5.616 4.656l-.072.072c.096.288-1.164-4.224-1.164-6.996 0-11.916 9.66-21.576 21.576-21.576 3.528 0 6.852.852 9.804 2.352l7.488-4.932A29.043 29.043 0 0041.52 2.64 29.612 29.612 0 0029.952.3c-4.008 0-7.92.792-11.58 2.34A29.652 29.652 0 008.928 9a29.455 29.455 0 00-6.36 9.444 29.612 29.612 0 00-2.34 11.568c0 4.008.792 7.896 2.34 11.568a29.425 29.425 0 003.576 6.228 35.809 35.809 0 015.052-7.104c-.144-.264-.144-.264 0 0a35.478 35.478 0 015.196-4.656c-.012.012-.144-.168-.048.036 5.82-4.284 13.02-6.804 20.808-6.804 2.64 0 5.196.288 7.668.84v-.096c.012-8.232-6.66-14.904-14.88-14.904z" fill="#041742"/><defs><linearGradient id="paint0_linear" x1="23.719" y1="44.856" x2="40.153" y2="28.422" gradientUnits="userSpaceOnUse"><stop stop-color="#0B95DC"/><stop offset="1" stop-color="#37D295"/></linearGradient><linearGradient id="paint1_linear" x1="21.436" y1="62.97" x2="62.889" y2="21.517" gradientUnits="userSpaceOnUse"><stop stop-color="#0B95DC"/><stop offset="1" stop-color="#37D295"/></linearGradient></defs></svg>